<svg width="100" height="100" viewBox="0 0 100 100" fill="none" xmlns="http://www.w3.org/2000/svg">
<path d="M31.2615 66.8951C32.8537 66.44 34.5137 67.3628 34.9689 68.9556C35.4239 70.5486 34.5016 72.2093 32.9092 72.6644C31.3855 73.1 29.4936 73.7297 27.8762 74.3245C27.0687 74.6215 26.3536 74.9009 25.8038 75.134C25.1632 75.4057 24.9775 75.5194 25.0385 75.4778C23.6703 76.4112 21.8044 76.0584 20.8713 74.6897C19.9388 73.3212 20.2914 71.4554 21.6591 70.5219C22.162 70.1788 22.8876 69.8543 23.464 69.6099C24.1319 69.3266 24.9431 69.0105 25.8067 68.6929C27.5317 68.0585 29.5667 67.3796 31.2615 66.8951Z" fill="white"/>
<path d="M63.4412 50.7034C65.0843 50.4978 66.5834 51.6633 66.7894 53.3069C66.9952 54.9508 65.8294 56.4505 64.1861 56.6563C51.7258 58.2168 49.6023 54.6592 24.2839 62.9705C22.7105 63.4868 21.0158 62.6295 20.4994 61.0555C19.9833 59.4816 20.8404 57.7863 22.4136 57.2696C48.3428 48.7577 52.7558 52.0416 63.4412 50.7034Z" fill="white"/>
<path d="M63.5564 38.7313C65.2063 38.5892 66.6599 39.8122 66.8021 41.4626C66.944 43.1131 65.7208 44.5674 64.0709 44.7096C55.4828 45.4493 49.5413 45.2229 44.8358 45.4615C40.0124 45.7061 35.4267 46.4222 28.0646 49.1352C26.5106 49.7077 24.7862 48.9113 24.2136 47.3569C23.6416 45.8025 24.4375 44.0782 25.9912 43.5055C33.915 40.5855 39.097 39.7452 44.5322 39.4696C50.0854 39.188 54.8942 39.4774 63.5564 38.7313Z" fill="white"/>
<path d="M28.0626 30.55C30.7297 29.8072 47.0089 25.2589 63.0147 25.9028C64.6695 25.9693 65.957 27.3653 65.8904 29.0208C65.8237 30.6761 64.4283 31.9642 62.7736 31.8976C47.794 31.2951 32.3152 35.5937 29.6713 36.33C28.0761 36.7742 26.423 35.8408 25.9785 34.2452C25.5343 32.6492 26.4673 30.9945 28.0626 30.55Z" fill="white"/>
<path d="M64.6517 12.9609C66.307 12.9157 67.6859 14.2219 67.7314 15.8778C67.7767 17.5336 66.4717 18.9129 64.8166 18.9587C52.0969 19.3076 44.225 20.212 39.5734 21.0104C37.2505 21.4091 35.7409 21.7793 34.84 22.0367C34.3912 22.165 34.092 22.2657 33.9185 22.3277C33.8328 22.3584 33.773 22.3816 33.736 22.3961C33.7107 22.4059 33.7057 22.4076 33.6755 22.4195C33.6672 22.4228 33.64 22.4336 33.6101 22.4449C33.595 22.4505 33.5638 22.4619 33.5251 22.4752C33.5054 22.482 33.3982 22.5193 33.2596 22.5533C31.651 22.9474 30.0272 21.9624 29.6332 20.3532C29.2683 18.8613 30.0884 17.3571 31.4918 16.8319C31.4861 16.8339 31.4803 16.8359 31.4752 16.8377C31.4798 16.8359 31.5196 16.8203 31.5523 16.8074C31.6343 16.7754 31.7497 16.7312 31.8999 16.6776C32.1998 16.5703 32.6233 16.4303 33.1933 16.2674C34.3316 15.9422 36.0551 15.5264 38.5592 15.0966C43.563 14.2377 51.73 13.3154 64.6517 12.9609Z" fill="white"/>
<path fill-rule="evenodd" clip-rule="evenodd" d="M42.8864 0.667505C55.0593 -0.547699 68.928 -0.414108 79.1124 3.72108C80.9023 4.448 81.8803 6.32377 81.541 8.15254C81.553 8.26005 81.5631 8.36866 81.5664 8.47869C81.7862 15.7404 81.1014 18.6849 79.9128 22.5259C78.8773 25.8722 77.4436 30.0035 75.936 40.2205C74.7272 48.4121 75.0795 54.3897 76.0853 58.4726C76.9178 61.8516 78.1237 63.6781 79.0333 64.5564C82.7069 64.0022 86.6047 63.3633 90.6915 62.6238C92.2613 62.3398 93.7828 63.0151 94.6547 64.2312C94.7788 64.3205 94.9001 64.4167 95.0158 64.5222C99.5423 68.6451 100.234 74.1471 99.9425 78.2208C99.6504 82.3074 98.3387 85.6603 98.0468 86.4109C97.7058 87.2872 97.0892 87.9743 96.3356 88.4137C95.7326 89.1508 94.8664 89.6772 93.8513 89.8336C83.5442 91.4213 68.3962 93.9476 55.8068 96.0794C49.5164 97.1446 43.8713 98.1103 39.7989 98.8098C37.7628 99.1595 36.1191 99.4422 34.9855 99.6379C34.4189 99.7357 33.979 99.812 33.6813 99.8635C33.533 99.8891 33.4197 99.9089 33.3436 99.922C33.3059 99.9286 33.2769 99.9334 33.2577 99.9367C33.2482 99.9383 33.2401 99.9398 33.2352 99.9406C33.2332 99.941 33.2303 99.9416 33.2303 99.9416H33.2284C32.8036 100.015 32.3828 100.017 31.9779 99.9592C30.4769 100.069 28.9043 99.9589 27.2729 99.5705C18.0235 97.3683 12.8007 92.2892 9.96379 87.2654C7.20448 82.3786 6.8303 77.7776 6.73175 76.5773C5.58043 62.555 9.21775 48.6392 12.7478 37.7245C9.94898 38.3424 7.17178 37.7975 4.87414 36.0986C-0.702312 31.9749 -1.42525 23.0731 2.35371 15.1561C2.45298 14.9482 2.56888 14.7534 2.69732 14.5712C5.33781 9.7937 9.79477 6.6096 14.4141 6.42116C20.2303 4.34877 31.1511 1.8391 42.8864 0.667505ZM73.604 10.2433C65.4535 7.71438 54.4267 7.55525 43.68 8.6281C36.336 9.3613 29.4367 10.6349 24.1297 11.9268C26.2922 15.8415 26.4359 21.4273 24.5699 27.6361L24.282 28.5481C20.3243 40.5782 13.246 58.2001 14.701 75.9221C14.7734 76.8035 15.0392 79.9883 16.9267 83.331C18.7372 86.5372 22.1709 90.133 29.1247 91.7886C29.7453 91.9363 30.3559 92.0027 30.9569 91.9956C29.5135 90.085 28.9102 87.7027 28.8923 85.4471C28.8452 79.4767 32.7123 72.6423 40.407 69.1265C41.6509 68.5582 43.0895 68.1365 44.5722 68.1715C44.7817 68.1262 44.9975 68.0967 45.2185 68.0855C47.7095 67.9596 56.8552 67.4972 70.2528 65.7819C69.4587 64.1851 68.8107 62.3743 68.321 60.3866C67.0019 55.0318 66.7103 47.9634 68.0253 39.0526L68.324 37.0986C69.8138 27.6806 71.2547 23.4519 72.2735 20.1598C73.1281 17.3981 73.6664 15.435 73.604 10.2433ZM90.056 70.8627C72.657 73.9199 58.8157 75.198 51.2423 75.7346C51.3862 78.7473 50.5169 82.1849 49.2314 85.2254C48.6373 86.6306 47.9068 88.0613 47.0468 89.4528C49.3671 89.0571 51.8644 88.6327 54.4724 88.1911C66.4407 86.1644 80.7699 83.7755 91.0663 82.1718C91.4168 81.0656 91.8375 79.4394 91.9654 77.6505C92.1536 75.0164 91.6813 72.626 90.056 70.8627ZM43.2564 76.6291C38.5695 78.9681 36.8694 82.8844 36.889 85.3836C36.8994 86.7033 37.3436 87.2146 37.4825 87.324C37.4887 87.3288 37.7812 87.5973 38.7066 87.4255C39.9831 85.8489 41.0665 84.0012 41.8664 82.1093C42.8381 79.811 43.2133 77.8837 43.2564 76.6291ZM15.9125 14.6523C14.8714 14.1762 11.7204 14.3141 9.45912 18.8874C9.41947 18.9676 9.3764 19.0455 9.33222 19.1218C6.71263 25.0303 8.49232 28.8254 9.62702 29.6653C10.009 29.9477 10.6223 30.2047 11.8312 29.6282C13.1898 28.9801 15.2111 27.254 17.4167 23.4507C18.916 16.9645 16.6246 14.9781 15.9125 14.6523Z" fill="white"/>
</svg>
