<svg width="100" height="94" viewBox="0 0 100 94" fill="none" xmlns="http://www.w3.org/2000/svg">
<path fill-rule="evenodd" clip-rule="evenodd" d="M1.32207 15.869C20.3929 -1.66993 49.8983 -3.37316 68.5839 4.45844C71.4658 5.66638 80.6219 10.8006 88.3157 20.9512C96.0014 31.0915 102.172 46.1774 99.269 67.0799C99.4186 67.7631 99.3324 68.5003 98.9658 69.161C98.1602 70.6124 96.3214 71.1415 94.8582 70.3427C90.7101 68.0775 88.3791 66.9286 85.9645 66.2771C83.5708 65.6314 80.9213 65.4304 76.0893 65.4304C74.4189 65.4304 73.0647 64.0872 73.0647 62.4303C73.0648 61.9649 73.1742 61.5255 73.365 61.1324C73.3683 61.0222 73.3777 60.9111 73.3936 60.7994C75.4663 46.1912 69.7594 35.1662 60.538 29.9203C58.724 28.8884 56.7423 28.0634 54.6198 27.4739C54.3139 28.8945 54.1778 29.66 53.9483 31.1909C55.4266 31.7124 56.7672 32.3631 57.922 33.1265C63.0776 36.5343 66.0269 40.5861 67.6092 45.0888C69.1511 49.4769 69.329 54.1257 69.2889 58.5776C69.206 67.7631 68.3108 76.3417 73.3187 84.7866C73.7673 85.5434 73.8394 86.4144 73.5974 87.192C73.6437 87.5082 73.6424 87.8368 73.5806 88.1686C73.2768 89.7978 71.6994 90.8742 70.0569 90.5729C64.2273 89.5034 60.6593 88.8761 57.859 87.8385C54.8598 86.727 52.7844 85.1732 49.7609 82.6762C48.8616 81.9331 48.4747 80.7413 48.7685 79.6175C50.608 72.581 51.6128 68.6258 52.0796 66.159C52.537 63.7416 52.3747 63.2302 52.2578 62.8786C51.5914 60.8746 50.667 60.3937 50.0839 60.2515C49.3099 60.0631 48.1415 60.242 46.8653 61.0279C45.604 61.8048 44.6426 62.9366 44.2326 63.9792C43.8616 64.9228 43.9752 65.6013 44.4649 66.1931L44.8263 66.6404C48.4646 71.266 49.2745 76.0357 47.7337 80.3841C46.2233 84.6461 42.6473 87.9484 38.7623 90.1765C34.8421 92.4245 30.2168 93.8101 26.0279 93.9823C21.9993 94.1478 17.4596 93.1901 15.0096 89.6042C14.4752 88.8221 13.8884 87.7947 13.7631 86.6304C13.6934 85.9822 13.7636 85.2567 14.088 84.5434C14.4096 83.8365 14.8968 83.3267 15.3758 82.9731C16.2322 82.3411 17.2427 82.0804 17.8963 81.9388C18.6188 81.7824 19.4595 81.6673 20.2209 81.5599L20.5379 81.5043C20.8169 81.4439 20.9886 81.3731 21.0844 81.3236C21.1474 81.2909 21.1822 81.265 21.1976 81.2523C21.2124 81.24 21.2183 81.2318 21.2183 81.2318C21.2197 81.23 21.2243 81.2252 21.2301 81.2132C21.2365 81.1997 21.2474 81.1734 21.2586 81.1312C21.2824 81.0418 21.3038 80.8957 21.3 80.6829C21.2918 80.235 21.1765 79.7082 21.0164 79.2073C20.9408 78.9707 20.8639 78.7641 20.7998 78.6018C20.7652 78.5141 20.7413 78.4558 20.7092 78.3762C20.6964 78.3443 20.6757 78.2925 20.6561 78.2405C20.6512 78.2281 20.5824 78.0535 20.532 77.8459C20.4452 77.4896 19.9387 75.4258 19.8851 73.2227C19.8587 72.1335 19.9347 70.7873 20.3646 69.5253C20.8073 68.2261 21.7485 66.7076 23.6068 65.99L23.7811 65.9285C24.6461 65.6504 25.389 65.816 25.6242 65.8718C25.9663 65.953 26.2602 66.0723 26.4276 66.1433C26.6173 66.2238 27.2863 66.5371 27.358 66.5691C27.6733 66.7097 27.879 66.7762 28.001 66.8084C28.0333 66.7602 28.0753 66.6952 28.123 66.6072C28.4323 66.0378 28.8162 64.8925 29.0505 62.7799C27.0969 62.3207 25.3052 61.8577 23.5527 61.4127C21.0536 60.7781 18.595 60.1755 15.686 59.6382C14.583 59.4345 13.6835 58.6422 13.3506 57.5795C13.0176 56.5169 13.3057 55.3586 14.0978 54.5706C15.8716 52.8065 16.3546 51.89 16.6114 51.0441C16.7633 50.5439 16.8679 49.9548 16.9807 49.0587C17.0836 48.2405 17.209 47.0116 17.3942 45.6885C17.5565 44.5302 18.3668 43.6214 19.4106 43.2655C24.9609 35.483 32.3966 31.5744 39.4673 30.269C42.4029 29.727 45.3137 29.6281 48.0261 29.9008C48.2292 28.5722 48.3778 27.7596 48.6494 26.4827C41.0886 26.0119 32.3032 28.2515 23.1431 34.189C21.7449 35.0954 19.8696 34.7057 18.9557 33.3189C18.7129 32.9503 18.5647 32.5477 18.5008 32.1391C18.3693 32.0052 18.2481 31.8576 18.1405 31.6958C16.3017 28.9311 14.7525 27.13 12.6367 25.7815C10.4949 24.4164 7.51055 23.3528 2.55475 22.5792C0.904815 22.3215 -0.22246 20.7851 0.0372024 19.1484C0.0914104 18.8072 0.203611 18.4895 0.359157 18.2011C0.321873 17.352 0.644598 16.4922 1.32207 15.869ZM54.5666 38.1198C51.7913 36.2854 46.4943 35.075 40.5749 36.1676C35.6508 37.0766 30.4483 39.5592 26.1637 44.4365C31.676 45.7096 37.2265 46.9877 44.0455 48.5792C45.6715 48.9587 46.6798 50.5739 46.2972 52.1868C45.9146 53.7995 44.2861 54.7996 42.6602 54.4202C35.0939 52.6543 29.11 51.2784 22.9747 49.8595C22.8534 50.8147 22.7015 51.7939 22.4037 52.7747C22.1936 53.4663 21.9242 54.1152 21.5855 54.7484C22.7819 55.0284 23.9259 55.3137 25.0532 55.6C27.5964 56.2458 30.0215 56.8829 32.8756 57.4897C34.5088 57.8371 35.5492 59.4323 35.1991 61.0523C35.192 61.0856 35.1828 61.1182 35.1745 61.151C35.2081 61.3651 35.2209 61.5858 35.206 61.8111C34.9853 65.1402 34.4257 67.6553 33.4486 69.454C32.3802 71.4204 30.7469 72.6071 28.762 72.8086C27.688 72.9176 26.7027 72.7077 25.9393 72.457C25.9302 72.6444 25.9269 72.8519 25.9324 73.0782C25.9646 74.4042 26.2511 75.7418 26.3725 76.2638C26.3905 76.3086 26.4114 76.3617 26.4325 76.4152C26.5265 76.6533 26.6542 76.9907 26.783 77.3938C27.0321 78.173 27.3253 79.3175 27.3482 80.5745C27.3709 81.8308 27.1249 83.4572 26.0141 84.8901C24.9639 86.2447 23.427 87.0583 21.5983 87.4107C22.5683 87.8154 23.9397 88.0634 25.7778 87.9879C28.908 87.8591 32.5873 86.7863 35.7338 84.9819C38.9153 83.1574 41.1689 80.8128 42.0261 78.3938C42.8029 76.2014 42.6235 73.4231 39.7902 70.0009C37.6411 67.4047 37.5997 64.3362 38.5969 61.7994C39.5554 59.3617 41.4853 57.2783 43.6743 55.9301C45.8488 54.591 48.6927 53.734 51.5263 54.4241C54.5506 55.1609 56.8304 57.4739 58.0028 60.9996C58.5979 62.7898 58.5476 64.5004 58.0244 67.2654C57.5581 69.7297 56.6337 73.407 55.1091 79.26C57.125 80.8548 58.361 81.6197 59.9758 82.2181C61.4279 82.7562 63.2028 83.169 66.0428 83.7192C62.3241 74.8031 63.1738 65.8312 63.2397 58.5239C63.279 54.1671 63.072 50.4082 61.8967 47.0635C60.7617 43.8336 58.6608 40.8261 54.5666 38.1198ZM46.2687 6.01318C42.8102 5.93318 39.2664 6.12916 35.721 6.62258C36.4138 7.50115 37.0456 8.44244 37.6163 9.37073C39.0601 11.7196 40.3156 14.3208 41.2867 16.2079C41.7613 17.1301 41.3922 18.2595 40.4627 18.7304C39.5328 19.2013 38.3942 18.8353 37.9195 17.913C36.8862 15.9052 35.7336 13.5123 34.3879 11.3229C33.3676 9.66315 32.3393 8.30295 31.3288 7.39019C28.1127 8.06735 24.9241 8.99793 21.8267 10.2018C24.7198 12.1069 28.0967 14.9008 30.8316 19.3936C31.3711 20.2799 31.0841 21.4325 30.1906 21.9679C29.2969 22.5031 28.1349 22.2186 27.5953 21.3321C24.5571 16.341 20.7252 13.842 17.6206 12.0359C14.4231 13.5891 11.3629 15.4605 8.51533 17.6699C11.4472 18.4324 13.8455 19.42 15.9065 20.7335C18.7435 22.5416 20.73 24.8322 22.572 27.4857C37.6246 18.7554 52.537 18.4522 63.5469 24.715C74.7446 31.0851 81.1654 43.8345 79.6407 59.478C82.7302 59.5754 85.1729 59.8449 87.5527 60.4869C89.5796 61.0337 91.4917 61.8337 93.6639 62.9157C94.0724 58.4829 94.0283 54.3717 93.6314 50.5656C93.5451 50.609 93.4565 50.6544 93.3636 50.6984C91.846 51.4173 89.2646 52.3298 84.2386 53.7864C83.2367 54.0765 82.1871 53.5057 81.8943 52.512C81.6017 51.518 82.1772 50.4771 83.1792 50.1867C88.2046 48.7302 90.5215 47.8894 91.7351 47.3145C92.4764 46.9633 92.7147 46.771 93.0544 46.4795C92.5021 43.4088 91.7167 40.5582 90.7594 37.9177C87.8013 40.4228 84.9636 41.6895 81.8697 42.6688C80.8753 42.9836 79.8116 42.4392 79.494 41.453C79.1766 40.4665 79.7253 39.4114 80.7197 39.0964C83.7378 38.1411 86.3697 36.9387 89.251 34.2193C87.9045 31.2591 86.3484 28.6019 84.6945 26.2288C82.555 28.5636 81.7269 29.3019 78.215 32.6528C77.4626 33.3707 76.2657 33.3483 75.5419 32.6021C74.8181 31.8557 74.8417 30.6685 75.5941 29.9506C79.3282 26.3876 79.9523 25.8506 82.3866 23.1681C79.8821 20.0862 77.2688 17.5805 74.8734 15.6102C74.3576 17.1709 73.9992 18.3082 73.5915 19.332C72.9663 20.9016 72.1827 22.3517 70.5432 25.01C69.9984 25.8933 68.8345 26.1714 67.944 25.6311C67.0535 25.0906 66.773 23.9362 67.3178 23.0529C68.9272 20.4433 69.5733 19.2151 70.0756 17.9541C70.5604 16.7367 70.8906 15.5787 71.6991 13.198C69.1236 11.3956 67.1019 10.3506 66.2298 9.98501C65.2487 9.57379 64.233 9.19346 63.1875 8.84239C63.1872 9.60594 63.1848 10.3837 63.1117 11.2409C62.9558 13.0682 62.4964 15.1326 61.2637 18.5293C60.9101 19.5035 59.8268 20.0087 58.8446 19.6582C57.8623 19.3074 57.3518 18.2331 57.7054 17.2587C58.874 14.0389 59.2264 12.312 59.3447 10.9245C59.4056 10.2102 59.4076 9.55235 59.4077 8.7457C59.4078 8.43102 59.4098 8.09778 59.4137 7.73981C56.5077 7.01168 53.4265 6.50216 50.2404 6.22901C50.5626 7.45722 50.814 8.53233 50.9926 9.58851C51.3382 11.6317 51.4149 13.5624 51.3244 16.3778C51.2911 17.4126 50.4182 18.225 49.375 18.1923C48.3315 18.1593 47.5124 17.2927 47.5456 16.2577C47.6319 13.5751 47.5527 11.9152 47.2641 10.2086C47.0573 8.98666 46.7392 7.72044 46.2687 6.01318Z" fill="white"/>
</svg>
