<svg width="101" height="101" viewBox="0 0 101 101" fill="none" xmlns="http://www.w3.org/2000/svg">
<path d="M43.0703 4.03955C64.0904 4.03963 82.1386 24.072 82.1387 50.0396C82.1387 76.0071 64.0904 96.0395 43.0703 96.0396C22.0482 96.0396 4 76.007 4 50.0396C4.00002 24.0721 22.0483 4.03955 43.0703 4.03955ZM43.0703 4.37256C20.6261 4.37256 4.29202 25.8923 4.29199 50.0396C4.29199 74.1859 20.626 95.7065 43.0703 95.7065C65.5128 95.7065 81.8467 74.1857 81.8467 50.0396C81.8467 25.8925 65.5128 4.37264 43.0703 4.37256Z" fill="white" stroke="white" stroke-width="8"/>
<path d="M45.0881 4H59.0881" stroke="white" stroke-width="8" stroke-miterlimit="1.5" stroke-linecap="round" stroke-linejoin="round"/>
<path d="M71.345 18.7063H85.2064" stroke="white" stroke-width="6" stroke-miterlimit="1.5" stroke-linecap="round" stroke-linejoin="round"/>
<path d="M79.2756 29.5876H93.137" stroke="white" stroke-width="6" stroke-miterlimit="1.5" stroke-linecap="round" stroke-linejoin="round"/>
<path d="M83.246 41.4688H95.246" stroke="white" stroke-width="6" stroke-miterlimit="1.5" stroke-linecap="round" stroke-linejoin="round"/>
<path d="M81.236 54.3499H95.0974" stroke="white" stroke-width="6" stroke-miterlimit="1.5" stroke-linecap="round" stroke-linejoin="round"/>
<path d="M80.246 67.2312H94.1074" stroke="white" stroke-width="6" stroke-miterlimit="1.5" stroke-linecap="round" stroke-linejoin="round"/>
<path d="M76.2855 80.1123H87.2855" stroke="white" stroke-width="6" stroke-miterlimit="1.5" stroke-linecap="round" stroke-linejoin="round"/>
<path d="M43 96.0396H58" stroke="white" stroke-width="8" stroke-miterlimit="1.5" stroke-linecap="round" stroke-linejoin="round"/>
<path d="M57.0703 0.0395701C80.8388 0.039646 100.139 22.4438 100.139 50.0396C100.139 77.6353 80.8388 100.039 57.0703 100.04C57.0469 100.04 57.0234 100.039 57 100.039V91.7046C57.0234 91.7047 57.0469 91.7066 57.0703 91.7066C76.6167 91.7065 91.8467 72.7327 91.8467 50.0396C91.8466 27.3456 76.6167 8.37266 57.0703 8.37258C57.0469 8.37258 57.0234 8.3735 57 8.37355V0.0395701C57.0234 0.0395267 57.0469 0.0395701 57.0703 0.0395701Z" fill="white"/>
<path d="M20 33.9404C21.152 35.2664 21.1621 35.2024 35.8721 49.1204" stroke="white" stroke-width="8" stroke-miterlimit="1.5" stroke-linecap="round" stroke-linejoin="round"/>
<path d="M21.5691 50.5757C22.5931 49.0817 27.489 41.9357 34.071 31.7007" stroke="white" stroke-width="8" stroke-miterlimit="1.5" stroke-linecap="round" stroke-linejoin="round"/>
<path d="M46.679 31.1155C53.978 37.4025 54.778 39.3545 61.988 46.5525" stroke="white" stroke-width="8" stroke-miterlimit="1.5" stroke-linecap="round" stroke-linejoin="round"/>
<path d="M48.365 47.7505C54.667 39.0945 57.8871 33.6516 61.1101 29.0396" stroke="white" stroke-width="8" stroke-miterlimit="1.5" stroke-linecap="round" stroke-linejoin="round"/>
<path d="M31.613 74.1166C36 73.5396 49.5 72.0396 58 71.0396" stroke="white" stroke-width="8" stroke-miterlimit="1.5" stroke-linecap="round" stroke-linejoin="round"/>
</svg>
