<svg width="100" height="100" viewBox="0 0 100 100" fill="none" xmlns="http://www.w3.org/2000/svg">
<path d="M86 95H23C20.6131 95 18.3239 94.0518 16.636 92.364C14.9482 90.6761 14 88.3869 14 86M14 86C14 83.6131 14.9482 81.3239 16.636 79.636C18.3239 77.9482 20.6131 77 23 77H86V23C86 14.513 86 10.274 83.363 7.637C80.726 5 76.487 5 68 5H41C28.274 5 21.9065 5 17.9555 8.9555C14 12.9065 14 19.274 14 32V86Z" stroke="white" stroke-width="7" stroke-linecap="round" stroke-linejoin="round"/>
<path d="M83.75 77C83.75 77 79.25 80.4335 79.25 86C79.25 91.5665 83.75 95 83.75 95" stroke="white" stroke-width="7" stroke-linecap="round" stroke-linejoin="round"/>
<path d="M55.7257 63V61.8913L60.6428 57.913V23.087L55.7257 19.1087V18H73V19.1087L68.0183 23.087V57.913L73 61.8913V63H55.7257ZM27 63V61.8913L31.9817 57.913V23.087L27 19.1087V18H44.2743V19.1087L39.3572 23.087V57.913L44.2743 61.8913V63H27ZM36.7693 41.5435V37.8261H63.2954V41.5435H36.7693Z" fill="white"/>
</svg>
