<svg width="100" height="100" viewBox="0 0 100 100" fill="none" xmlns="http://www.w3.org/2000/svg">
<path fill-rule="evenodd" clip-rule="evenodd" d="M49.9996 0C77.5946 0 99.9994 22.4037 99.9994 49.9999C99.9994 77.5962 77.5946 100 49.9996 100C22.4036 100 0 77.5962 0 49.9999C0 22.4037 22.4036 0 49.9996 0ZM49.9996 5.03679C25.173 5.03679 4.99932 25.1743 4.99932 49.9999C4.99932 74.8256 25.173 94.9632 49.9996 94.9632C74.8252 94.9632 94.999 74.8256 94.999 49.9999C94.999 25.1743 74.8252 5.03679 49.9996 5.03679Z" fill="white"/>
<path d="M32.4996 64.48C29.2666 45.8826 29.8806 37.8622 34.3636 26.3021C38.5216 15.5803 46.7615 5.36537 55.3345 3.27783" stroke="white" stroke-width="5" stroke-miterlimit="1.5" stroke-linecap="round" stroke-linejoin="round"/>
<path d="M32.5087 64.5478C36.2977 65.3266 39.9476 67.0977 57.5796 66.3713C89.4266 65.0575 95.4696 54.9523 96.4746 53.8652" stroke="white" stroke-width="5" stroke-miterlimit="1.5" stroke-linecap="round" stroke-linejoin="round"/>
<path d="M42.9546 54.9956C42.4306 41.6109 44.2286 33.4482 48.7646 27.6631" stroke="white" stroke-width="5" stroke-miterlimit="1.5" stroke-linecap="round" stroke-linejoin="round"/>
<path d="M49.2227 27.4707C50.4087 27.7175 56.6679 29.4758 62.3097 35.1599C67.4116 40.3001 69.4996 46.3451 69.9996 48.8638" stroke="white" stroke-width="5" stroke-miterlimit="1.5" stroke-linecap="round" stroke-linejoin="round"/>
<path d="M43.4366 55.1573C61.6206 54.3049 66.2226 50.7263 69.7666 48.9683" stroke="white" stroke-width="5" stroke-miterlimit="1.5" stroke-linecap="round" stroke-linejoin="round"/>
<path d="M45.4006 45.1191C47.2706 47.9502 50.6126 53.5247 51.5046 54.6743" stroke="white" stroke-width="3.33" stroke-miterlimit="1.5" stroke-linecap="round" stroke-linejoin="round"/>
<path d="M45.8837 38.481C46.6777 39.6567 51.5156 46.8261 55.6036 53.3245" stroke="white" stroke-width="3.33" stroke-miterlimit="1.5" stroke-linecap="round" stroke-linejoin="round"/>
<path d="M48.1686 33.6226C52.3506 38.6157 51.8106 38.9543 61.0066 51.7717" stroke="white" stroke-width="3.33" stroke-miterlimit="1.5" stroke-linecap="round" stroke-linejoin="round"/>
<path d="M51.2577 30.061C58.9667 40.6549 59.0567 40.5319 66.8527 51.1046" stroke="white" stroke-width="3.33" stroke-miterlimit="1.5" stroke-linecap="round" stroke-linejoin="round"/>
</svg>
