<svg width="110" height="99" viewBox="0 0 110 99" fill="none" xmlns="http://www.w3.org/2000/svg">
<path d="M64.6263 37.4103C67.3877 37.4103 69.6263 39.6489 69.6263 42.4103C69.6261 45.1715 67.3876 47.4103 64.6263 47.4103C61.8652 47.4101 59.6265 45.1714 59.6263 42.4103C59.6263 39.649 61.8651 37.4105 64.6263 37.4103Z" fill="white"/>
<path fill-rule="evenodd" clip-rule="evenodd" d="M74.1722 0.875119C75.3457 -0.294291 77.2458 -0.29139 78.4154 0.881955C82.6921 5.17307 86.4934 9.05588 88.346 12.6525C89.3197 14.5425 89.9102 16.6298 89.5755 18.8419C89.3666 20.2226 88.8221 21.4779 88.0238 22.6261C88.284 22.9202 88.5262 23.2151 88.7503 23.5118C91.8123 20.7149 97.2473 17.4751 105.605 18.4679C106.488 18.5728 107.232 19.0528 107.705 19.7277C107.749 19.7549 107.792 19.7839 107.834 19.8136C109.191 20.7638 109.522 22.6351 108.572 23.9923C107.251 25.8789 104.461 30.5129 100.853 33.2823C98.966 34.7306 96.5611 35.9215 93.7376 35.84C92.1453 35.7939 90.595 35.3466 89.0941 34.5216C88.9408 35.041 88.7816 35.5966 88.6234 36.212C87.5002 40.5817 90.9287 43.8284 91.7142 44.5343C92.9465 45.6417 93.048 47.5383 91.9408 48.7706C90.8333 50.0029 88.9358 50.1046 87.7035 48.9972C87.0607 48.4196 80.7154 42.8774 82.8128 34.7179C82.8301 34.6506 82.8482 34.584 82.8656 34.5177C82.7061 34.7416 82.5215 34.9532 82.3109 35.1466C80.5011 36.8093 79.9039 39.2211 80.3187 43.5773C80.5243 45.7363 80.9452 48.0653 81.4125 50.7335C81.868 53.3349 82.3556 56.2027 82.6019 59.1476C83.0975 65.0735 82.6503 71.6764 78.8431 78.0099C75.0461 84.3262 68.2503 89.8094 57.1957 94.2482C42.2101 100.265 28.6312 98.5223 18.6175 94.6681C13.629 92.748 9.48891 90.2934 6.44175 87.9728C4.92001 86.8139 3.6289 85.6558 2.62437 84.5753C1.70971 83.5915 0.735715 82.3609 0.249366 81.046C-0.516872 78.9742 0.541982 76.6729 2.61362 75.9064C3.57224 75.5518 4.58016 75.5883 5.46226 75.9347C6.88953 75.9545 9.34992 75.9105 12.1429 75.4747C14.5333 75.1018 16.9808 74.4675 19.1751 73.464C17.3219 71.3294 15.6848 68.8576 14.3392 66.297C12.0467 61.9343 10.3978 56.9506 10.0052 52.296C9.27427 43.6315 10.4127 37.017 12.057 32.0431C13.6809 27.1311 15.8281 23.8256 16.6283 22.3644C17.2271 21.271 18.2623 20.5679 19.3988 20.3536C19.546 20.3197 19.6972 20.294 19.8509 20.2765C22.0457 20.0272 24.028 21.6042 24.2777 23.7989C24.5239 25.9638 24.9171 27.9391 25.43 29.7423C26.453 27.9973 27.8138 26.0327 29.6683 23.8136C33.7073 18.9804 38.3064 17.5142 39.3285 17.1954C41.4373 16.5379 43.6795 17.7146 44.3373 19.8234C44.7604 21.1804 44.423 22.5919 43.5677 23.6017C43.4511 24.5676 43.3686 25.9004 43.4769 27.9464C43.6503 31.2206 44.3164 36.3609 46.1957 44.5919C46.2825 44.972 46.3869 45.3239 46.5042 45.6495C47.7432 40.8844 50.1576 35.9002 53.7806 32.0782C56.7016 28.9971 60.5228 26.5574 65.2376 25.7609C69.6245 25.02 74.4262 25.7626 79.5384 28.2023C80.6413 28.1841 81.7463 28.6192 82.5511 29.4952C83.1987 30.2002 83.5454 31.0747 83.598 31.9611C83.7709 31.3968 83.9279 30.8971 84.057 30.4698C84.396 29.3478 84.5089 28.7991 84.5179 28.4132C84.5242 28.1467 84.5807 27.6128 82.8363 25.8751C82.3836 25.8936 81.876 25.8952 81.3363 25.8546C79.7283 25.7337 77.6074 25.2517 75.7494 23.7228C71.87 20.5302 70.7755 14.3691 73.5638 4.24524C73.058 3.13687 73.2589 1.78549 74.1722 0.875119ZM73.3832 34.3263C70.7037 33.4447 68.4479 33.3316 66.5707 33.6486C63.8887 34.1016 61.5608 35.4984 59.5863 37.5812C55.4899 41.9024 53.4185 48.6675 53.5238 53.1642C53.5753 55.3724 51.8267 57.204 49.6185 57.256C49.582 57.2568 49.5454 57.2561 49.5091 57.256C49.0006 57.3956 48.4562 57.4369 47.9007 57.3595C46.1571 57.1162 39.1327 56.1447 32.1058 51.6329C27.1237 48.434 22.2435 43.516 19.181 36.1046C18.1197 39.9177 17.4169 44.9844 17.9769 51.6232C18.2612 54.9938 19.5129 58.9436 21.4212 62.5753C23.343 66.2322 25.7383 69.2011 28.0257 70.8634C29.8127 72.162 30.208 74.6632 28.9095 76.4503C28.5765 76.9086 28.1642 77.2748 27.7054 77.545C23.4055 81.0537 18.0567 82.606 13.7484 83.3165C15.8889 84.6793 18.4964 86.0494 21.4916 87.2023C29.9798 90.4693 41.4365 91.9552 54.2152 86.8243C64.2535 82.7936 69.372 78.2381 71.9867 73.8888C74.5909 69.5566 75.0528 64.8659 74.6302 59.8136C74.4174 57.2695 73.9891 54.7259 73.5316 52.1134C73.0859 49.568 72.5971 46.8792 72.3548 44.3351C72.0462 41.0939 72.0838 37.5695 73.3832 34.3263ZM35.5433 29.2628C33.1767 32.1437 31.9407 34.33 31.2103 35.9474C30.8278 36.7944 30.5625 37.5314 30.3353 38.213C30.2523 38.4619 30.1536 38.7672 30.0482 39.088C31.9973 41.609 34.224 43.4853 36.4281 44.9005C37.0579 45.3049 37.6893 45.6721 38.3148 46.0079C36.5766 38.335 35.8091 33.0418 35.5433 29.2628ZM101.019 24.3644C96.054 24.839 93.0979 27.4373 91.6712 29.0841C92.5902 29.6538 93.3368 29.8263 93.9115 29.8429C94.8758 29.8706 95.9552 29.4777 97.1996 28.5226C98.6313 27.4236 99.8893 25.9119 101.019 24.3644ZM78.4759 9.5509C77.2147 16.2594 78.7591 18.4282 79.5619 19.089C80.1422 19.5666 80.9159 19.8057 81.7855 19.8712C82.0521 19.8912 82.307 19.8911 82.5414 19.8829C83.3223 19.0499 83.572 18.413 83.6429 17.9445C83.7272 17.3874 83.6302 16.6007 83.0121 15.4005C82.164 13.7541 80.6385 11.8718 78.4759 9.5509Z" fill="white"/>
</svg>
