<svg width="92" height="103" viewBox="0 0 92 103" fill="none" xmlns="http://www.w3.org/2000/svg">
<path d="M23.0926 14.3693C23.3736 11.7043 23.0315 11.7153 23.9315 9.16626" stroke="white" stroke-width="6" stroke-miterlimit="1.5" stroke-linecap="round" stroke-linejoin="round"/>
<path d="M13.0486 18.7629C18.6836 17.0389 23.2895 16.1959 30.0345 19.9709" stroke="white" stroke-width="4" stroke-miterlimit="1.5" stroke-linecap="round" stroke-linejoin="round"/>
<path d="M12.7344 19.3911C17.9944 29.0091 29.6045 28.7001 31.2615 28.6561" stroke="white" stroke-width="4" stroke-miterlimit="1.5" stroke-linecap="round" stroke-linejoin="round"/>
<path d="M23.7205 9.03296C37.8685 11.063 37.3575 20.991 37.7945 25.041" stroke="white" stroke-width="4" stroke-miterlimit="1.5" stroke-linecap="round" stroke-linejoin="round"/>
<path d="M31.2535 26.6102C36.4025 25.3292 41.1685 24.5681 47.2645 28.8041" stroke="white" stroke-width="4" stroke-miterlimit="1.5" stroke-linecap="round" stroke-linejoin="round"/>
<path d="M30.9395 27.238C32.6295 30.024 36.8265 37.7521 48.8375 36.4911" stroke="white" stroke-width="4" stroke-miterlimit="1.5" stroke-linecap="round" stroke-linejoin="round"/>
<path d="M41.9256 17.5071C51.5646 18.8471 52.7224 29.6221 52.8704 31.0051" stroke="white" stroke-width="4" stroke-miterlimit="1.5" stroke-linecap="round" stroke-linejoin="round"/>
<path d="M48.8306 33.5151C51.2246 41.0761 52.4916 43.9341 63.0716 47.9871" stroke="white" stroke-width="4" stroke-miterlimit="1.5" stroke-linecap="round" stroke-linejoin="round"/>
<path d="M48.8306 33.2011C55.3946 32.7261 58.2365 34.2931 61.9405 39.3301" stroke="white" stroke-width="4" stroke-miterlimit="1.5" stroke-linecap="round" stroke-linejoin="round"/>
<path d="M62.3275 28.8071C63.7305 30.0341 72.0455 35.431 65.0215 47.801" stroke="white" stroke-width="4" stroke-miterlimit="1.5" stroke-linecap="round" stroke-linejoin="round"/>
<path d="M61.6995 29.4351C61.3865 32.4631 61.3556 32.4011 60.0726 35.1921" stroke="white" stroke-width="4" stroke-miterlimit="1.5" stroke-linecap="round" stroke-linejoin="round"/>
<path d="M41.9256 18.449C42.9146 21.837 42.6785 21.7649 42.7525 25.3669" stroke="white" stroke-width="4" stroke-miterlimit="1.5" stroke-linecap="round" stroke-linejoin="round"/>
<path d="M9.70653 28.3782C1.40453 7.10617 20.3815 9.88719 20.7795 9.97119" stroke="white" stroke-width="6" stroke-miterlimit="1.5" stroke-linecap="round" stroke-linejoin="round"/>
<path d="M27.2835 7.03403C31.6385 1.35503 39.1126 1.36102 44.5416 9.05002" stroke="white" stroke-width="6" stroke-miterlimit="1.5" stroke-linecap="round" stroke-linejoin="round"/>
<path d="M42.6636 4.83688C47.6216 4.54688 56.0825 1.97687 66.1695 9.27987C75.8055 16.2569 75.6014 17.2999 77.7234 24.3509" stroke="white" stroke-width="6" stroke-miterlimit="1.5" stroke-linecap="round" stroke-linejoin="round"/>
<path d="M75.3065 17.7061C82.1735 19.9651 95.8546 29.116 83.7796 47.837" stroke="white" stroke-width="6" stroke-miterlimit="1.5" stroke-linecap="round" stroke-linejoin="round"/>
<path d="M55.8465 52.546C71.7955 41.01 62.3375 78.6089 55.1595 67.5059" stroke="white" stroke-width="6" stroke-miterlimit="1.5" stroke-linecap="round" stroke-linejoin="round"/>
<path d="M82.2125 50.9771C89.7585 69.9401 76.2166 73.3781 74.3406 73.8551" stroke="white" stroke-width="6" stroke-miterlimit="1.5" stroke-linecap="round" stroke-linejoin="round"/>
<path d="M59.2996 74.5181C59.6976 75.1761 64.9624 85.074 74.3694 74.207" stroke="white" stroke-width="6" stroke-miterlimit="1.5" stroke-linecap="round" stroke-linejoin="round"/>
<path d="M10.7524 30.4011C9.06342 36.9281 8.88352 38.1541 11.5085 43.9901C13.3495 48.0831 1.34834 60.6671 3.19334 63.8981C5.04934 67.1481 9.77134 65.8491 9.89134 69.4551C10.0693 74.8331 9.34135 75.0471 11.9533 79.6871C13.5913 82.5961 7.89153 92.0171 22.1645 91.2091C27.5425 90.9051 47.9334 91.078 51.4924 75.556" stroke="white" stroke-width="6" stroke-miterlimit="1.5" stroke-linecap="round" stroke-linejoin="round"/>
<path d="M27.5975 92.095C29.7905 95.599 29.8125 95.5299 30.3655 99.6289" stroke="white" stroke-width="6" stroke-miterlimit="1.5" stroke-linecap="round" stroke-linejoin="round"/>
<path d="M73.4236 77.0291C72.9686 86.3731 72.7036 88.8181 77.9346 99.5491" stroke="white" stroke-width="6" stroke-miterlimit="1.5" stroke-linecap="round" stroke-linejoin="round"/>
<path d="M10.7525 73.6311C12.0725 73.3771 12.9454 72.8291 20.2454 73.1761" stroke="white" stroke-width="6" stroke-miterlimit="1.5" stroke-linecap="round" stroke-linejoin="round"/>
<path d="M18.3055 44.865C19.0285 45.185 27.2504 48.8239 27.0894 49.3939C26.6634 50.9039 25.0605 50.5829 19.1365 53.7429" stroke="white" stroke-width="4" stroke-miterlimit="1.5" stroke-linecap="round" stroke-linejoin="round"/>
<path d="M19.9166 46.4167C19.9996 48.3367 19.8966 50.5227 20.4166 52.4167" stroke="white" stroke-width="4" stroke-miterlimit="1.5" stroke-linecap="round" stroke-linejoin="round"/>
<path d="M19.1094 39.0791C23.1314 41.7201 23.1636 41.5871 27.5386 43.5671" stroke="white" stroke-width="4" stroke-miterlimit="1.5" stroke-linecap="round" stroke-linejoin="round"/>
</svg>
