<svg width="100" height="100" viewBox="0 0 100 100" fill="none" xmlns="http://www.w3.org/2000/svg">
<path d="M50 0C77.615 0 100 22.385 100 50C100 77.615 77.615 100 50 100C22.385 100 0 77.615 0 50C0 22.385 22.385 0 50 0ZM50 10C39.3913 10 29.2172 14.2143 21.7157 21.7157C14.2143 29.2172 10 39.3913 10 50C10 60.6087 14.2143 70.7828 21.7157 78.2843C29.2172 85.7857 39.3913 90 50 90C60.6087 90 70.7828 85.7857 78.2843 78.2843C85.7857 70.7828 90 60.6087 90 50C90 39.3913 85.7857 29.2172 78.2843 21.7157C70.7828 14.2143 60.6087 10 50 10ZM50 60C56.335 60 62.135 62.365 66.54 66.25C67.5346 67.1279 68.1397 68.3649 68.2222 69.6889C68.3047 71.0129 67.8579 72.3154 66.98 73.31C66.1021 74.3046 64.8651 74.9097 63.5411 74.9922C62.2171 75.0747 60.9146 74.6279 59.92 73.75C57.1803 71.3338 53.653 70.0004 50 70C46.195 70 42.725 71.41 40.08 73.75C39.5875 74.1843 39.0144 74.5174 38.3932 74.7303C37.772 74.9431 37.115 75.0315 36.4596 74.9904C35.8043 74.9493 35.1634 74.7795 34.5737 74.4908C33.9839 74.202 33.4568 73.8 33.0225 73.3075C32.5882 72.815 32.2551 72.2419 32.0422 71.6207C31.8294 70.9995 31.741 70.3425 31.7821 69.6871C31.8232 69.0318 31.993 68.3909 32.2817 67.8012C32.5705 67.2114 32.9725 66.6843 33.465 66.25C38.0317 62.2226 43.9111 60.0002 50 60ZM35.205 38.32L35.53 37.76C35.8211 37.1678 36.2264 36.639 36.7228 36.2043C37.2192 35.7695 37.7967 35.4372 38.4221 35.2267C39.0475 35.0162 39.7083 34.9315 40.3666 34.9776C41.0249 35.0237 41.6675 35.1996 42.2574 35.4952C42.8474 35.7909 43.3729 36.2004 43.8039 36.7001C44.2348 37.1998 44.5626 37.7799 44.7683 38.4069C44.9739 39.0339 45.0535 39.6954 45.0023 40.3532C44.9511 41.0111 44.7702 41.6524 44.47 42.24C42.285 46.6 37.935 50 32.5 50C27.065 50 22.71 46.6 20.53 42.24C19.9569 41.0993 19.8418 39.7826 20.2083 38.5598C20.5748 37.337 21.3952 36.3006 22.5012 35.6632C23.6073 35.0258 24.9152 34.8356 26.157 35.1316C27.3988 35.4275 28.4804 36.1872 29.18 37.255L29.47 37.76C30.28 39.38 31.52 40 32.5 40C33.35 40 34.41 39.525 35.205 38.32ZM77.24 35.53C78.4255 36.1241 79.3264 37.1648 79.7446 38.4232C80.1628 39.6815 80.064 41.0545 79.47 42.24C77.29 46.6 72.935 50 67.5 50C62.065 50 57.715 46.6 55.53 42.24C54.9569 41.0993 54.8418 39.7826 55.2083 38.5598C55.5748 37.337 56.3952 36.3006 57.5012 35.6632C58.6073 35.0258 59.9152 34.8356 61.157 35.1316C62.3988 35.4275 63.4804 36.1872 64.18 37.255L64.47 37.76C65.28 39.38 66.52 40 67.5 40C68.35 40 69.41 39.525 70.205 38.32L70.53 37.76C71.1241 36.5745 72.1648 35.6736 73.4232 35.2554C74.6815 34.8372 76.0545 34.936 77.24 35.53Z" fill="white"/>
</svg>
