<svg width="84" height="99" viewBox="0 0 84 99" fill="none" xmlns="http://www.w3.org/2000/svg">
<path d="M41.9163 0C43.297 0 44.4163 1.11929 44.4163 2.5C44.4163 3.88071 43.297 5 41.9163 5C35.6368 5.00001 31.4644 5.65702 28.6565 6.95996C26.0294 8.17908 24.4618 10.0246 23.5051 12.9697C22.4933 16.0847 22.1851 20.3826 22.3049 26.3613C22.4242 32.3133 22.9512 39.5788 23.4524 48.5898C23.5291 49.9684 22.4735 51.1479 21.095 51.2246C19.7165 51.3013 18.5371 50.2465 18.4602 48.8682C17.9664 39.9898 17.4275 32.5311 17.3059 26.4609C17.1848 20.4178 17.4608 15.3946 18.7502 11.4248C20.0949 7.28524 22.5467 4.28211 26.551 2.42383C30.3747 0.649417 35.446 1.05973e-05 41.9163 0Z" fill="white"/>
<path d="M20.5505 10.1803C21.9017 9.89726 23.2262 10.7636 23.5095 12.1149C23.7927 13.4662 22.9272 14.7916 21.5759 15.0748C20.7895 15.2397 17.2145 16.0077 14.446 18.1715C13.1051 19.2196 12.0465 20.5246 11.5271 22.1735C11.0127 23.8066 10.9445 26.0385 12.0368 29.1022C14.2909 35.4238 15.7172 38.8672 16.6003 42.3317C17.5125 45.9105 17.8711 49.5522 18.2126 56.4762C18.2806 57.8551 17.2175 59.0282 15.8386 59.0963C14.4597 59.1643 13.2867 58.1021 13.2185 56.7233C12.878 49.8196 12.5321 46.6174 11.7546 43.567C10.948 40.4024 9.69863 37.4308 7.32784 30.7819C5.94323 26.8986 5.85587 23.5342 6.75753 20.6715C7.65419 17.8247 9.44628 15.7332 11.3669 14.232C15.1216 11.2974 19.7145 10.3555 20.5505 10.1803Z" fill="white"/>
<path d="M13.0515 41.8353C14.4292 41.7446 15.6199 42.7877 15.7107 44.1654C15.8013 45.543 14.7582 46.7328 13.3806 46.8236C11.1481 46.9707 9.44132 47.0882 8.10617 47.2279C6.74621 47.3703 5.93773 47.522 5.44015 47.684C5.26294 47.7417 5.16198 47.7905 5.1091 47.8197C5.08411 47.8949 5.03776 48.0674 4.99875 48.4066C5.00171 48.3809 4.98428 48.543 5.12472 48.9642C5.25842 49.3652 5.49165 49.8702 5.83371 50.4711C6.51902 51.6749 7.51714 53.0418 8.61594 54.393C10.8036 57.0832 13.171 59.4466 13.6277 59.9017C14.6055 60.8765 14.6083 62.46 13.6335 63.4379C12.6587 64.4154 11.0761 64.4174 10.0984 63.4428C9.62088 62.9668 7.0973 60.4518 4.73605 57.5482C3.56 56.102 2.36877 54.4919 1.48801 52.9447C1.04718 52.1703 0.652055 51.3566 0.38156 50.5453C0.118373 49.7559 -0.0801032 48.8117 0.0319509 47.8363C0.135961 46.9315 0.357785 45.8407 1.05734 44.8695C1.7953 43.845 2.82281 43.2773 3.8923 42.9291C4.91592 42.5958 6.16156 42.4043 7.58566 42.2553C9.03499 42.1036 10.8432 41.9808 13.0515 41.8353Z" fill="white"/>
<path d="M41.6833 50.6225C43.0627 50.5694 44.2237 51.6444 44.2771 53.0239C44.3303 54.4035 43.2554 55.5654 41.8757 55.6186C39.478 55.7111 37.0989 55.6569 34.9802 55.6684C32.8029 55.6802 30.7636 55.7586 28.7253 56.0844C24.7468 56.7205 20.5632 58.3331 15.5876 62.6606C12.6258 65.2367 10.806 67.026 10.0007 68.5492C9.64259 69.2267 9.56248 69.7195 9.60323 70.1303C9.64538 70.5545 9.84342 71.1557 10.489 71.9936C11.3316 73.0873 11.1276 74.6568 10.0339 75.4994C8.94019 76.3421 7.37074 76.139 6.52804 75.0453C5.47819 73.6828 4.78603 72.2184 4.62765 70.6254C4.46803 69.0189 4.87738 67.5418 5.58077 66.2114C6.89898 63.7184 9.4934 61.3348 12.3064 58.8881C17.9636 53.9678 23.0036 51.9354 27.9362 51.1469C30.3536 50.7605 32.6931 50.6806 34.9528 50.6684C37.271 50.6558 39.3883 50.711 41.6833 50.6225Z" fill="white"/>
<path d="M6.32077 72.3086C6.98947 71.1006 8.51123 70.6633 9.7192 71.332C10.8038 71.9324 11.6722 72.3074 12.7583 72.5732C13.887 72.8495 15.3418 73.0306 17.6206 73.1338C22.2324 73.3424 29.6118 73.2169 43.3784 73.2109C44.7589 73.2104 45.8786 74.3284 45.8794 75.7089C45.88 77.0897 44.761 78.2093 43.3803 78.2099C29.7792 78.2159 22.1587 78.3434 17.395 78.1279C14.9862 78.0189 13.1588 77.8188 11.5688 77.4297C9.93624 77.03 8.64868 76.4551 7.29733 75.707C6.08935 75.0383 5.65207 73.5165 6.32077 72.3086Z" fill="white"/>
<path d="M3.52584 76.5977C3.73303 75.2327 5.00746 74.2939 6.37252 74.5011C7.73753 74.7082 8.67629 75.9827 8.4692 77.3477C8.4232 77.6508 8.22652 78.9482 8.24752 80.4386C8.2703 82.0532 8.54795 83.319 9.00631 83.9552C10.3025 85.7512 11.0091 87.4072 11.3169 88.9513C11.625 90.4979 11.5024 91.7858 11.3442 92.7589C11.3058 92.9948 11.2652 93.2146 11.2299 93.4014C11.2139 93.4863 11.2 93.5623 11.187 93.6319C12.1187 93.8916 13.5405 93.9086 15.1801 93.6954C15.8871 93.6034 16.5552 93.4798 17.1274 93.3585C17.2003 90.9304 17.2823 88.9066 17.4028 87.2374C17.5511 85.1838 17.7665 83.491 18.1655 82.1759C18.5721 80.8357 19.2833 79.5141 20.6811 78.7452C21.9762 78.0331 23.3901 78.0748 24.4653 78.1876L24.9243 78.2452C25.9691 78.3977 26.8239 78.6709 27.6186 78.9464C28.5277 79.2614 29.3374 79.5695 30.5112 79.8722C32.8216 80.4679 36.637 81.0559 44.2719 80.9571C45.6524 80.9392 46.7861 82.0435 46.8042 83.4239C46.822 84.8045 45.717 85.9383 44.3364 85.9561C36.4417 86.0583 32.1491 85.4581 29.2631 84.7139C27.8389 84.3467 26.778 83.9472 25.9809 83.671C25.2825 83.4289 24.7696 83.2743 24.1948 83.1915L23.9438 83.1602C23.5011 83.1138 23.2579 83.1216 23.1411 83.1329C23.0959 83.2179 23.0285 83.3707 22.9506 83.627C22.7228 84.3781 22.5332 85.6029 22.3891 87.5977C22.2476 89.5582 22.1596 92.0963 22.0717 95.3966C22.0425 96.4908 21.304 97.4383 20.2504 97.7354C19.8375 97.8519 18.0043 98.37 15.8256 98.6534C13.8537 98.9099 11.0269 99.0613 8.76021 98.0645L8.54342 97.9649C7.92651 97.6685 7.30105 97.2382 6.82759 96.5841C6.3358 95.9044 6.15046 95.1802 6.10787 94.546C6.06891 93.9657 6.14797 93.4231 6.21138 93.0489C6.24466 92.8526 6.28438 92.6479 6.31685 92.4757C6.35127 92.2932 6.38206 92.1257 6.40963 91.9561C6.51527 91.3063 6.56062 90.6719 6.41256 89.9288C6.26397 89.1831 5.89002 88.181 4.95259 86.8819L4.95162 86.8809C3.53654 84.919 3.27275 82.2986 3.24752 80.5089C3.22055 78.5941 3.46979 76.967 3.52584 76.5977Z" fill="white"/>
<path d="M41.8044 0C40.4237 0 39.3044 1.11929 39.3044 2.5C39.3044 3.88071 40.4237 5 41.8044 5C48.0839 5.00001 52.2563 5.65702 55.0642 6.95996C57.6913 8.17908 59.2589 10.0246 60.2156 12.9697C61.2274 16.0847 61.5356 20.3826 61.4158 26.3613C61.2965 32.3133 60.7695 39.5788 60.2683 48.5898C60.1916 49.9684 61.2472 51.1479 62.6257 51.2246C64.0042 51.3013 65.1836 50.2465 65.2605 48.8682C65.7543 39.9898 66.2932 32.5311 66.4148 26.4609C66.5359 20.4178 66.2599 15.3946 64.9705 11.4248C63.6258 7.28524 61.174 4.28211 57.1697 2.42383C53.346 0.649417 48.2747 1.05973e-05 41.8044 0Z" fill="white"/>
<path d="M63.1702 10.1803C61.819 9.89726 60.4945 10.7636 60.2112 12.1149C59.928 13.4662 60.7935 14.7916 62.1448 15.0748C62.9312 15.2397 66.5062 16.0077 69.2747 18.1715C70.6156 19.2196 71.6743 20.5246 72.1936 22.1735C72.708 23.8066 72.7762 26.0385 71.6839 29.1022C69.4298 35.4238 68.0035 38.8672 67.1204 42.3317C66.2082 45.9105 65.8496 49.5522 65.5081 56.4762C65.4401 57.8551 66.5032 59.0282 67.8821 59.0963C69.261 59.1643 70.434 58.1021 70.5022 56.7233C70.8427 49.8196 71.1886 46.6174 71.9661 43.567C72.7727 40.4024 74.0221 37.4308 76.3929 30.7819C77.7775 26.8986 77.8648 23.5342 76.9632 20.6715C76.0665 17.8247 74.2744 15.7332 72.3538 14.232C68.5991 11.2974 64.0062 10.3555 63.1702 10.1803Z" fill="white"/>
<path d="M70.6693 41.8353C69.2916 41.7446 68.1008 42.7877 68.0101 44.1654C67.9195 45.543 68.9626 46.7328 70.3402 46.8236C72.5727 46.9707 74.2794 47.0882 75.6146 47.2279C76.9746 47.3703 77.783 47.522 78.2806 47.684C78.4578 47.7417 78.5588 47.7905 78.6117 47.8197C78.6367 47.8949 78.683 48.0674 78.722 48.4066C78.7191 48.3809 78.7365 48.543 78.596 48.9642C78.4623 49.3652 78.2291 49.8702 77.8871 50.4711C77.2017 51.6749 76.2036 53.0418 75.1048 54.393C72.9171 57.0832 70.5497 59.4466 70.0931 59.9017C69.1152 60.8765 69.1125 62.46 70.0873 63.4379C71.062 64.4154 72.6447 64.4174 73.6224 63.4428C74.0999 62.9668 76.6235 60.4518 78.9847 57.5482C80.1608 56.102 81.352 54.4919 82.2328 52.9447C82.6736 52.1703 83.0687 51.3566 83.3392 50.5453C83.6024 49.7559 83.8009 48.8117 83.6888 47.8363C83.5848 46.9315 83.363 45.8407 82.6634 44.8695C81.9255 43.845 80.898 43.2773 79.8285 42.9291C78.8048 42.5958 77.5592 42.4043 76.1351 42.2553C74.6858 42.1036 72.8775 41.9808 70.6693 41.8353Z" fill="white"/>
<path d="M42.0374 50.6225C40.658 50.5694 39.497 51.6444 39.4436 53.0239C39.3904 54.4035 40.4653 55.5654 41.845 55.6186C44.2427 55.7111 46.6218 55.6569 48.7405 55.6684C50.9178 55.6802 52.9571 55.7586 54.9954 56.0844C58.9739 56.7205 63.1575 58.3331 68.1331 62.6606C71.0949 65.2367 72.9147 67.026 73.72 68.5492C74.0781 69.2267 74.1582 69.7195 74.1175 70.1303C74.0753 70.5545 73.8773 71.1557 73.2317 71.9936C72.3891 73.0873 72.5931 74.6568 73.6868 75.4994C74.7805 76.3421 76.35 76.139 77.1927 75.0453C78.2425 73.6828 78.9347 72.2184 79.0931 70.6254C79.2527 69.0189 78.8433 67.5418 78.1399 66.2114C76.8217 63.7184 74.2273 61.3348 71.4143 58.8881C65.7571 53.9678 60.7171 51.9354 55.7845 51.1469C53.3671 50.7605 51.0276 50.6806 48.7679 50.6684C46.4497 50.6558 44.3324 50.711 42.0374 50.6225Z" fill="white"/>
<path d="M77.3999 72.3086C76.7312 71.1006 75.2095 70.6633 74.0015 71.332C72.917 71.9324 72.0485 72.3074 70.9624 72.5732C69.8337 72.8495 68.3789 73.0306 66.1001 73.1338C61.4883 73.3424 54.1089 73.2169 40.3423 73.2109C38.9618 73.2104 37.8421 74.3284 37.8413 75.7089C37.8407 77.0897 38.9597 78.2093 40.3404 78.2099C53.9415 78.2159 61.562 78.3434 66.3257 78.1279C68.7345 78.0189 70.5619 77.8188 72.1519 77.4297C73.7845 77.03 75.072 76.4551 76.4234 75.707C77.6314 75.0383 78.0686 73.5165 77.3999 72.3086Z" fill="white"/>
<path d="M80.1949 76.5977C79.9877 75.2327 78.7132 74.2939 77.3482 74.5011C75.9832 74.7082 75.0444 75.9827 75.2515 77.3477C75.2975 77.6508 75.4942 78.9482 75.4732 80.4386C75.4504 82.0532 75.1728 83.319 74.7144 83.9552C73.4182 85.7512 72.7116 87.4072 72.4039 88.9513C72.0957 90.4979 72.2183 91.7858 72.3765 92.7589C72.4149 92.9948 72.4555 93.2146 72.4908 93.4014C72.5068 93.4863 72.5207 93.5623 72.5337 93.6319C71.602 93.8916 70.1802 93.9086 68.5406 93.6954C67.8336 93.6034 67.1655 93.4798 66.5933 93.3585C66.5204 90.9304 66.4384 88.9066 66.3179 87.2374C66.1696 85.1838 65.9542 83.491 65.5552 82.1759C65.1486 80.8357 64.4374 79.5141 63.0396 78.7452C61.7445 78.0331 60.3306 78.0748 59.2554 78.1876L58.7964 78.2452C57.7516 78.3977 56.8968 78.6709 56.1021 78.9464C55.193 79.2614 54.3833 79.5695 53.2095 79.8722C50.8991 80.4679 47.0837 81.0559 39.4488 80.9571C38.0683 80.9392 36.9346 82.0435 36.9165 83.4239C36.8987 84.8045 38.0037 85.9383 39.3843 85.9561C47.279 86.0583 51.5716 85.4581 54.4576 84.7139C55.8818 84.3467 56.9427 83.9472 57.7398 83.671C58.4382 83.4289 58.9511 83.2743 59.5259 83.1915L59.7769 83.1602C60.2196 83.1138 60.4628 83.1216 60.5796 83.1329C60.6248 83.2179 60.6923 83.3707 60.7701 83.627C60.9979 84.3781 61.1875 85.6029 61.3316 87.5977C61.4731 89.5582 61.5612 92.0963 61.649 95.3966C61.6783 96.4908 62.4167 97.4383 63.4703 97.7354C63.8832 97.8519 65.7164 98.37 67.8951 98.6534C69.867 98.9099 72.6938 99.0613 74.9605 98.0645L75.1773 97.9649C75.7942 97.6685 76.4197 97.2382 76.8931 96.5841C77.3849 95.9044 77.5702 95.1802 77.6128 94.546C77.6518 93.9657 77.5727 93.4231 77.5093 93.0489C77.476 92.8526 77.4363 92.6479 77.4039 92.4757C77.3694 92.2932 77.3386 92.1257 77.3111 91.9561C77.2054 91.3063 77.1601 90.6719 77.3081 89.9288C77.4567 89.1831 77.8307 88.181 78.7681 86.8819L78.7691 86.8809C80.1842 84.919 80.448 82.2986 80.4732 80.5089C80.5002 78.5941 80.2509 76.967 80.1949 76.5977Z" fill="white"/>
<path d="M32.4164 16.5C32.4164 17.6046 31.521 18.5 30.4164 18.5C29.3119 18.5 28.4164 17.6046 28.4164 16.5C28.4164 15.3954 29.3119 14.5 30.4164 14.5C31.521 14.5 32.4164 15.3954 32.4164 16.5Z" fill="white"/>
<path d="M50.4164 16.5C50.4164 17.6046 49.521 18.5 48.4164 18.5C47.3119 18.5 46.4164 17.6046 46.4164 16.5C46.4164 15.3954 47.3119 14.5 48.4164 14.5C49.521 14.5 50.4164 15.3954 50.4164 16.5Z" fill="white"/>
<path d="M32.4164 34.5C32.4164 35.6046 31.521 36.5 30.4164 36.5C29.3119 36.5 28.4164 35.6046 28.4164 34.5C28.4164 33.3954 29.3119 32.5 30.4164 32.5C31.521 32.5 32.4164 33.3954 32.4164 34.5Z" fill="white"/>
<path d="M50.4164 34.5C50.4164 35.6046 49.521 36.5 48.4164 36.5C47.3119 36.5 46.4164 35.6046 46.4164 34.5C46.4164 33.3954 47.3119 32.5 48.4164 32.5C49.521 32.5 50.4164 33.3954 50.4164 34.5Z" fill="white"/>
<path d="M38.4164 16.5C38.4164 17.6046 37.521 18.5 36.4164 18.5C35.3119 18.5 34.4164 17.6046 34.4164 16.5C34.4164 15.3954 35.3119 14.5 36.4164 14.5C37.521 14.5 38.4164 15.3954 38.4164 16.5Z" fill="white"/>
<path d="M56.4164 16.5C56.4164 17.6046 55.521 18.5 54.4164 18.5C53.3119 18.5 52.4164 17.6046 52.4164 16.5C52.4164 15.3954 53.3119 14.5 54.4164 14.5C55.521 14.5 56.4164 15.3954 56.4164 16.5Z" fill="white"/>
<path d="M38.4164 34.5C38.4164 35.6046 37.521 36.5 36.4164 36.5C35.3119 36.5 34.4164 35.6046 34.4164 34.5C34.4164 33.3954 35.3119 32.5 36.4164 32.5C37.521 32.5 38.4164 33.3954 38.4164 34.5Z" fill="white"/>
<path d="M56.4164 34.5C56.4164 35.6046 55.521 36.5 54.4164 36.5C53.3119 36.5 52.4164 35.6046 52.4164 34.5C52.4164 33.3954 53.3119 32.5 54.4164 32.5C55.521 32.5 56.4164 33.3954 56.4164 34.5Z" fill="white"/>
<path d="M38.4164 22.5C38.4164 23.6046 37.521 24.5 36.4164 24.5C35.3119 24.5 34.4164 23.6046 34.4164 22.5C34.4164 21.3954 35.3119 20.5 36.4164 20.5C37.521 20.5 38.4164 21.3954 38.4164 22.5Z" fill="white"/>
<path d="M56.4164 22.5C56.4164 23.6046 55.521 24.5 54.4164 24.5C53.3119 24.5 52.4164 23.6046 52.4164 22.5C52.4164 21.3954 53.3119 20.5 54.4164 20.5C55.521 20.5 56.4164 21.3954 56.4164 22.5Z" fill="white"/>
<path d="M38.4164 40.5C38.4164 41.6046 37.521 42.5 36.4164 42.5C35.3119 42.5 34.4164 41.6046 34.4164 40.5C34.4164 39.3954 35.3119 38.5 36.4164 38.5C37.521 38.5 38.4164 39.3954 38.4164 40.5Z" fill="white"/>
<path d="M56.4164 40.5C56.4164 41.6046 55.521 42.5 54.4164 42.5C53.3119 42.5 52.4164 41.6046 52.4164 40.5C52.4164 39.3954 53.3119 38.5 54.4164 38.5C55.521 38.5 56.4164 39.3954 56.4164 40.5Z" fill="white"/>
<path d="M32.4164 22.5C32.4164 23.6046 31.521 24.5 30.4164 24.5C29.3119 24.5 28.4164 23.6046 28.4164 22.5C28.4164 21.3954 29.3119 20.5 30.4164 20.5C31.521 20.5 32.4164 21.3954 32.4164 22.5Z" fill="white"/>
<path d="M50.4164 22.5C50.4164 23.6046 49.521 24.5 48.4164 24.5C47.3119 24.5 46.4164 23.6046 46.4164 22.5C46.4164 21.3954 47.3119 20.5 48.4164 20.5C49.521 20.5 50.4164 21.3954 50.4164 22.5Z" fill="white"/>
<path d="M32.4164 40.5C32.4164 41.6046 31.521 42.5 30.4164 42.5C29.3119 42.5 28.4164 41.6046 28.4164 40.5C28.4164 39.3954 29.3119 38.5 30.4164 38.5C31.521 38.5 32.4164 39.3954 32.4164 40.5Z" fill="white"/>
<path d="M50.4164 40.5C50.4164 41.6046 49.521 42.5 48.4164 42.5C47.3119 42.5 46.4164 41.6046 46.4164 40.5C46.4164 39.3954 47.3119 38.5 48.4164 38.5C49.521 38.5 50.4164 39.3954 50.4164 40.5Z" fill="white"/>
</svg>
