<svg width="92" height="90" viewBox="0 0 92 90" fill="none" xmlns="http://www.w3.org/2000/svg">
<path d="M21.6504 4.99995L5 14.6132V33.8398L21.6504 43.4531L38.3008 33.8398V14.6132L21.6504 4.99995ZM43.3008 33.8398L43.29 34.1728C43.1797 35.8294 42.2511 37.3325 40.8008 38.1699L24.1504 47.7831L23.8564 47.9404C22.466 48.6242 20.8348 48.6242 19.4443 47.9404L19.1504 47.7831L2.5 38.1699C1.04964 37.3325 0.121058 35.8294 0.0107422 34.1728L0 33.8398V14.6132C1.08523e-05 12.9385 0.837282 11.3827 2.2168 10.4589L2.5 10.2832L19.1504 0.669869C20.6974 -0.22329 22.6034 -0.22329 24.1504 0.669869L40.8008 10.2832C42.3478 11.1763 43.3008 12.8269 43.3008 14.6132V33.8398Z" fill="white"/>
<path d="M69.6504 4.99995L53 14.6132V33.8398L69.6504 43.4531L86.3008 33.8398V14.6132L69.6504 4.99995ZM91.3008 33.8398L91.29 34.1728C91.1797 35.8294 90.2511 37.3325 88.8008 38.1699L72.1504 47.7831L71.8564 47.9404C70.466 48.6242 68.8348 48.6242 67.4443 47.9404L67.1504 47.7831L50.5 38.1699C49.0496 37.3325 48.1211 35.8294 48.0107 34.1728L48 33.8398V14.6132C48 12.9385 48.8373 11.3827 50.2168 10.4589L50.5 10.2832L67.1504 0.669869C68.6974 -0.22329 70.6034 -0.22329 72.1504 0.669869L88.8008 10.2832C90.3478 11.1763 91.3008 12.8269 91.3008 14.6132V33.8398Z" fill="white"/>
<path d="M43.1504 41.6699C44.6974 40.7767 46.6034 40.7767 48.1504 41.6699L64.8008 51.2832C66.3478 52.1763 67.3008 53.8269 67.3008 55.6132V74.8398C67.3008 76.6261 66.3478 78.2767 64.8008 79.1699L48.1504 88.7832C46.6034 89.6763 44.6974 89.6763 43.1504 88.7832L26.5 79.1699C24.953 78.2767 24 76.6261 24 74.8398V55.6132C24 53.8269 24.953 52.1763 26.5 51.2832L43.1504 41.6699ZM35.7676 59.7763V68.0263L40.709 72.9765V81.2265H50.5918V72.9765L55.5332 68.0263V59.7763H35.7676ZM52.2383 63.0761V66.665L47.2979 71.6152V77.9267H44.0029V71.6152L39.0625 66.665V63.0761H52.2383ZM31.6504 54.6611L35.1914 58.1269L37.4971 55.8164L33.9561 52.2695L31.6504 54.6611ZM53.8037 55.8164L56.1914 58.1269L59.6504 54.6611L57.3447 52.3515L53.8037 55.8164ZM44.0029 48.2265V53.1767H47.2979V48.2265H44.0029Z" fill="white"/>
</svg>
