<svg width="100" height="100" viewBox="0 0 100 100" fill="none" xmlns="http://www.w3.org/2000/svg">
<g clip-path="url(#clip0_268_8)">
<path d="M86.7955 51.8654H96M77.5307 21.66L84.0602 15.1235M82.5496 77.4686L89.079 84M49.9975 4V11.4509M16.0703 15.1185L22.5546 21.66M11.0514 84L17.5358 77.4686M13.1995 51.8654H4" stroke="white" stroke-width="7" stroke-linecap="round" stroke-linejoin="round"/>
<path d="M58.0437 87.4434C52.8526 88.4216 47.5232 88.4216 42.332 87.4434M55.4251 95.7277C51.9431 96.0908 48.4326 96.0908 44.9506 95.7277" stroke="white" stroke-width="7" stroke-linecap="round" stroke-linejoin="round"/>
<path d="M58.0438 80.3551V79.6876C58.0438 76.2703 60.3412 73.3501 63.3089 71.6362C68.2948 68.7614 72.1892 64.3295 74.3889 59.0274C76.5885 53.7252 76.9705 47.8487 75.4756 42.3085C73.9808 36.7683 70.6926 31.8735 66.1205 28.3828C61.5484 24.892 55.9477 23 50.1862 23C44.4246 23 38.8239 24.892 34.2518 28.3828C29.6798 31.8735 26.3916 36.7683 24.8967 42.3085C23.4019 47.8487 23.7839 53.7252 25.9835 59.0274C28.1831 64.3295 32.0776 68.7614 37.0634 71.6362C40.0312 73.3501 42.3321 76.2703 42.3321 79.6876V80.3551" stroke="white" stroke-width="7" stroke-linecap="round" stroke-linejoin="round"/>
<path d="M44.5 37C40 38 36.5 43 36 47" stroke="white" stroke-width="5" stroke-linecap="round"/>
</g>
<defs>
<clipPath id="clip0_268_8">
<rect width="100" height="100" fill="white"/>
</clipPath>
</defs>
</svg>
