<svg width="100" height="100" viewBox="0 0 100 100" fill="none" xmlns="http://www.w3.org/2000/svg">
<g clip-path="url(#clip0_250_14)">
<path d="M47.285 22.667C48.8873 21.4489 51.1145 21.4489 52.7169 22.667L71.7384 37.1049C74.1611 38.9434 72.8616 42.7803 69.8178 42.7955H30.1802C27.1403 42.7803 25.8369 38.9434 28.2635 37.1049L47.285 22.667ZM49.999 36.1342C50.7615 36.1342 51.4928 35.8334 52.032 35.298C52.5712 34.7627 52.8741 34.0365 52.8741 33.2794C52.8741 32.5222 52.5712 31.7961 52.032 31.2607C51.4928 30.7253 50.7615 30.4245 49.999 30.4245C49.2365 30.4245 48.5052 30.7253 47.966 31.2607C47.4269 31.7961 47.124 32.5222 47.124 33.2794C47.124 34.0365 47.4269 34.7627 47.966 35.298C48.5052 35.8334 49.2365 36.1342 49.999 36.1342Z" fill="white"/>
<rect x="32.5903" y="47.4688" width="5.59028" height="24.5972" rx="1" fill="white"/>
<rect x="42.6528" y="47.4688" width="5.59028" height="35.7778" rx="1" fill="white"/>
<rect x="52.7153" y="47.4688" width="5.59028" height="35.7778" rx="1" fill="white"/>
<rect x="62.7778" y="47.4688" width="5.59028" height="24.5972" rx="1" fill="white"/>
<path d="M7.89757 30.5136C8.30154 38.0293 15.0301 43.8845 15.0301 43.8845C15.0301 43.8845 21.1067 37.5549 20.7027 30.0393C20.2979 22.5191 13.5693 16.6639 13.5693 16.6639C13.5693 16.6639 7.49858 23.0017 7.89757 30.5136ZM5.70217 56.4014C9.80926 62.6218 18.3628 63.8397 18.3628 63.8397C18.3628 63.8397 20.2591 54.9713 16.152 48.7508C12.0449 42.5304 3.4906 41.308 3.4906 41.308C3.4906 41.308 1.59507 50.1809 5.70217 56.4014ZM13.322 79.4773C19.6771 82.9449 27.6628 79.7163 27.6628 79.7163C27.6628 79.7163 25.3403 70.8616 18.9852 67.3941C12.63 63.9265 4.64429 67.155 4.64429 67.155C4.64429 67.155 6.96682 76.0097 13.322 79.4773ZM31.8566 96.0681C38.7211 98.0828 45.8715 93.158 45.8715 93.158C45.8715 93.158 41.8881 84.9658 35.0228 82.9466C28.1583 80.9319 21.013 85.8605 21.013 85.8605C21.013 85.8605 24.9921 94.0534 31.8566 96.0681ZM24.0419 10.8344C19.8616 16.8065 21.6435 25.7842 21.6435 25.7842C21.6435 25.7842 30.2139 25.0862 34.3942 19.1141C38.5745 13.1419 36.7917 4.15979 36.7917 4.15979C36.7917 4.15979 28.2222 4.86224 24.0419 10.8344Z" stroke="white" stroke-width="5" stroke-linejoin="round"/>
<path d="M92.5238 30.5136C92.1198 38.0293 85.3913 43.8845 85.3913 43.8845C85.3913 43.8845 79.3147 37.5549 79.7187 30.0393C80.1235 22.5191 86.852 16.6639 86.852 16.6639C86.852 16.6639 92.9228 23.0017 92.5238 30.5136ZM94.7192 56.4014C90.6121 62.6218 82.0586 63.8397 82.0586 63.8397C82.0586 63.8397 80.1623 54.9713 84.2694 48.7508C88.3765 42.5304 96.9308 41.308 96.9308 41.308C96.9308 41.308 98.8263 50.1809 94.7192 56.4014ZM87.0994 79.4773C80.7443 82.9449 72.7585 79.7163 72.7585 79.7163C72.7585 79.7163 75.0811 70.8616 81.4362 67.3941C87.7914 63.9265 95.7771 67.155 95.7771 67.155C95.7771 67.155 93.4546 76.0097 87.0994 79.4773ZM68.5648 96.0681C61.7003 98.0828 54.5499 93.158 54.5499 93.158C54.5499 93.158 58.5333 84.9658 65.3986 82.9466C72.2631 80.9319 79.4084 85.8605 79.4084 85.8605C79.4084 85.8605 75.4293 94.0534 68.5648 96.0681ZM76.3795 10.8344C80.5598 16.8065 78.7779 25.7842 78.7779 25.7842C78.7779 25.7842 70.2075 25.0862 66.0272 19.1141C61.8469 13.1419 63.6297 4.15979 63.6297 4.15979C63.6297 4.15979 72.1992 4.86224 76.3795 10.8344Z" stroke="white" stroke-width="5" stroke-linejoin="round"/>
</g>
<defs>
<clipPath id="clip0_250_14">
<rect width="100" height="100" fill="white"/>
</clipPath>
</defs>
</svg>
