<svg width="100" height="100" viewBox="0 0 100 100" fill="none" xmlns="http://www.w3.org/2000/svg">
<g clip-path="url(#clip0_250_14)">
<path d="M47.1431 31.8171C48.5762 30.7276 50.5683 30.7276 52.0015 31.8171L69.0145 44.7305C71.1814 46.3749 70.0191 49.8066 67.2967 49.8202H31.8444C29.1255 49.8066 27.9597 46.3749 30.1301 44.7305L47.1431 31.8171ZM49.5706 43.8623C50.2526 43.8623 50.9066 43.5933 51.3889 43.1144C51.8711 42.6356 52.142 41.9861 52.142 41.3089C52.142 40.6317 51.8711 39.9823 51.3889 39.5034C50.9066 39.0245 50.2526 38.7555 49.5706 38.7555C48.8886 38.7555 48.2345 39.0245 47.7522 39.5034C47.27 39.9823 46.9991 40.6317 46.9991 41.3089C46.9991 41.9861 47.27 42.6356 47.7522 43.1144C48.2345 43.5933 48.8886 43.8623 49.5706 43.8623Z" fill="white"/>
<rect x="34" y="54" width="5" height="22" rx="1" fill="white"/>
<rect x="43" y="54" width="5" height="32" rx="1" fill="white"/>
<rect x="52" y="54" width="5" height="32" rx="1" fill="white"/>
<rect x="61" y="54" width="5" height="22" rx="1" fill="white"/>
<path d="M12.8812 24.6704C11.9441 32.3877 17.7382 39.5505 17.7382 39.5505C17.7382 39.5505 25.0545 34.2019 25.9916 26.4846C26.9287 18.7625 21.1346 11.5998 21.1346 11.5998C21.1346 11.5998 13.8227 16.9577 12.8812 24.6704ZM6.00483 50.6095C9.06685 57.6736 17.549 60.4466 17.549 60.4466C17.549 60.4466 21.0686 51.7657 18.0066 44.7017C14.9445 37.6376 6.46238 34.8599 6.46238 34.8599C6.46238 34.8599 2.94281 43.5455 6.00483 50.6095ZM9.61679 75.4489C15.4593 80.116 24.1614 78.2642 24.1614 78.2642C24.1614 78.2642 23.3871 68.8407 17.5446 64.1736C11.7021 59.5066 3 61.3584 3 61.3584C3 61.3584 3.7743 70.7818 9.61679 75.4489ZM25.4944 95.6494C32.1156 98.9299 40.2722 95.2029 40.2722 95.2029C40.2722 95.2029 37.6897 86.1554 31.0686 82.8701C24.4474 79.5896 16.2952 83.3213 16.2952 83.3213C16.2952 83.3213 18.8732 92.3688 25.4944 95.6494ZM32.8327 7.54839C27.5094 12.8735 27.7118 22.3251 27.7118 22.3251C27.7118 22.3251 36.5547 23.1523 41.878 17.8272C47.2014 12.5022 46.999 3.04581 46.999 3.04581C46.999 3.04581 38.1561 2.22332 32.8327 7.54839Z" stroke="white" stroke-width="5" stroke-linejoin="round"/>
<path d="M87.1188 24.6704C88.0559 32.3877 82.2618 39.5505 82.2618 39.5505C82.2618 39.5505 74.9455 34.2019 74.0084 26.4846C73.0713 18.7625 78.8654 11.5998 78.8654 11.5998C78.8654 11.5998 86.1773 16.9577 87.1188 24.6704ZM93.9952 50.6095C90.9331 57.6736 82.451 60.4466 82.451 60.4466C82.451 60.4466 78.9314 51.7657 81.9934 44.7017C85.0555 37.6376 93.5376 34.8599 93.5376 34.8599C93.5376 34.8599 97.0572 43.5455 93.9952 50.6095ZM90.3832 75.4489C84.5407 80.116 75.8386 78.2642 75.8386 78.2642C75.8386 78.2642 76.6129 68.8407 82.4554 64.1736C88.2979 59.5066 97 61.3584 97 61.3584C97 61.3584 96.2257 70.7818 90.3832 75.4489ZM74.5056 95.6494C67.8844 98.9299 59.7278 95.2029 59.7278 95.2029C59.7278 95.2029 62.3103 86.1554 68.9314 82.8701C75.5526 79.5896 83.7048 83.3213 83.7048 83.3213C83.7048 83.3213 81.1268 92.3688 74.5056 95.6494ZM67.1673 7.54839C72.4906 12.8735 72.2882 22.3251 72.2882 22.3251C72.2882 22.3251 63.4453 23.1523 58.122 17.8272C52.7986 12.5022 53.001 3.04581 53.001 3.04581C53.001 3.04581 61.8439 2.22332 67.1673 7.54839Z" stroke="white" stroke-width="5" stroke-linejoin="round"/>
</g>
<defs>
<clipPath id="clip0_250_14">
<rect width="100" height="100" fill="white"/>
</clipPath>
</defs>
</svg>
