<svg width="98" height="101" viewBox="0 0 98 101" fill="none" xmlns="http://www.w3.org/2000/svg">
<path d="M3 60.6074C3 63.1208 3.24236 63.0043 3.31769 92.0269" stroke="white" stroke-width="6" stroke-miterlimit="1.5" stroke-linecap="round" stroke-linejoin="round"/>
<path d="M3.32397 60.931C7.64254 60.6661 7.50221 60.599 11.7506 60.8052" stroke="white" stroke-width="6" stroke-miterlimit="1.5" stroke-linecap="round" stroke-linejoin="round"/>
<path d="M12.0693 61.2546C13.2251 69.0103 13.3501 90.7247 13.3645 93.2897" stroke="white" stroke-width="6" stroke-miterlimit="1.5" stroke-linecap="round" stroke-linejoin="round"/>
<path d="M3.32397 93.9373C6.3578 93.9353 9.39148 93.9332 12.4243 93.9312" stroke="white" stroke-width="6" stroke-miterlimit="1.5" stroke-linecap="round" stroke-linejoin="round"/>
<path d="M14.3364 64.8144C32.5673 60.5515 32.3755 64.7144 42.4067 70.1557C53.7568 76.3134 64.5929 66.7969 66.6794 74.9092C67.54 78.2536 61.8912 84.4185 43.8843 83.1525" stroke="white" stroke-width="6" stroke-miterlimit="1.5" stroke-linecap="round" stroke-linejoin="round"/>
<path d="M66.1602 75.4928C80.2108 70.6598 82.71 60.7257 90.1749 63.135C103.718 67.5041 78.6413 89.2958 58.9534 95.3732C39.0117 101.529 28.545 89.3412 16.3086 88.7371" stroke="white" stroke-width="6" stroke-miterlimit="1.5" stroke-linecap="round" stroke-linejoin="round"/>
<path d="M31.8274 61.9021C26.6224 50.0609 38.7629 42.9145 54.4769 25.6423" stroke="white" stroke-width="6" stroke-miterlimit="1.5" stroke-linecap="round" stroke-linejoin="round"/>
<path d="M83.6501 62.8721C87.7932 41.3113 60.8233 41.6401 54.3068 23.5195" stroke="white" stroke-width="6" stroke-miterlimit="1.5" stroke-linecap="round" stroke-linejoin="round"/>
<path d="M54.1755 22.4238C52.2231 13.1042 51.9827 13.23 51.1231 3.64551" stroke="white" stroke-width="6" stroke-miterlimit="1.5" stroke-linecap="round" stroke-linejoin="round"/>
<path d="M51.5844 3.00948C58.0886 3.00948 57.9339 2.93112 64.5443 3.22493" stroke="white" stroke-width="6" stroke-miterlimit="1.5" stroke-linecap="round" stroke-linejoin="round"/>
<path d="M65.8362 4.62695C61.3474 18.5197 61.0388 18.328 56.2064 28.1012" stroke="white" stroke-width="6" stroke-miterlimit="1.5" stroke-linecap="round" stroke-linejoin="round"/>
<path d="M65.1882 10.7754C69.2849 12.0393 69.3634 11.6135 72.9782 13.6754" stroke="white" stroke-width="6" stroke-miterlimit="1.5" stroke-linecap="round" stroke-linejoin="round"/>
<path d="M72.6376 15.6289C68.5801 19.7536 66.6103 23.4361 56.9506 28.2361" stroke="white" stroke-width="6" stroke-miterlimit="1.5" stroke-linecap="round" stroke-linejoin="round"/>
<path d="M50.9364 10.7754C45.1267 12.5599 45.6562 13.3475 42.5254 16.6073" stroke="white" stroke-width="6" stroke-miterlimit="1.5" stroke-linecap="round" stroke-linejoin="round"/>
<path d="M41.8679 17.5701C50.182 22.3268 49.4515 23.298 57.9678 27.4196" stroke="white" stroke-width="6" stroke-miterlimit="1.5" stroke-linecap="round" stroke-linejoin="round"/>
<path d="M59.5031 42.4782C58.4836 42.4112 45.6537 41.5659 48.9651 49.6752C51.2559 55.2865 62.4697 50.138 62.4016 57.6865C62.3748 60.6339 55.7551 66.4442 48.6081 61.7957" stroke="white" stroke-width="5" stroke-miterlimit="1.5" stroke-linecap="round" stroke-linejoin="round"/>
<path d="M55.4205 38.4224C56.245 50.944 56.0529 62.7368 56.2304 65.9358" stroke="white" stroke-width="5" stroke-miterlimit="1.5" stroke-linecap="round" stroke-linejoin="round"/>
</svg>
