<svg width="102" height="98" viewBox="0 0 102 98" fill="none" xmlns="http://www.w3.org/2000/svg">
<path d="M3.00073 3.2627V78.8067" stroke="white" stroke-width="6" stroke-miterlimit="1.5" stroke-linecap="round" stroke-linejoin="round"/>
<path d="M3.00073 3.2627C9.07173 4.7807 10.8477 6.40871 14.1807 7.98871C24.0517 12.6687 24.0746 12.4967 34.3076 16.3637" stroke="white" stroke-width="6" stroke-miterlimit="1.5" stroke-linecap="round" stroke-linejoin="round"/>
<path d="M3.00073 80C15.9127 86.317 24.1698 91.23 34.4038 94.711" stroke="white" stroke-width="6" stroke-miterlimit="1.5" stroke-linecap="round" stroke-linejoin="round"/>
<path d="M34.7407 70.1567C34.7407 88.8147 35.1877 89.8228 35.4817 94.8678" stroke="white" stroke-width="6" stroke-miterlimit="1.5" stroke-linecap="round" stroke-linejoin="round"/>
<path d="M34.9407 16.521C34.6947 25.378 34.8918 30.383 34.9388 31.588" stroke="white" stroke-width="6" stroke-miterlimit="1.5" stroke-linecap="round" stroke-linejoin="round"/>
<path d="M35.3428 17.124C48.5818 10.037 63.4388 4.01398 65.9368 3.00098" stroke="white" stroke-width="6" stroke-miterlimit="1.5" stroke-linecap="round" stroke-linejoin="round"/>
<path d="M66.6807 3.2627C66.9567 3.3607 67.0566 3.1367 97.9006 18.7337" stroke="white" stroke-width="6" stroke-miterlimit="1.5" stroke-linecap="round" stroke-linejoin="round"/>
<path d="M98.4197 19.334V94.265" stroke="white" stroke-width="6" stroke-miterlimit="1.5" stroke-linecap="round" stroke-linejoin="round"/>
<path d="M66.4797 82.4111C82.4297 88.0831 82.2468 88.3901 98.1028 94.2621" stroke="white" stroke-width="6" stroke-miterlimit="1.5" stroke-linecap="round" stroke-linejoin="round"/>
<path d="M66.2788 62.7251V82.6121" stroke="white" stroke-width="6" stroke-miterlimit="1.5" stroke-linecap="round" stroke-linejoin="round"/>
<path d="M65.2747 4.66895V26.3649" stroke="white" stroke-width="6" stroke-miterlimit="1.5" stroke-linecap="round" stroke-linejoin="round"/>
<path d="M35.5437 94.8662C51.1327 88.5742 51.1796 88.8772 66.4336 81.7422" stroke="white" stroke-width="6" stroke-miterlimit="1.5" stroke-linecap="round" stroke-linejoin="round"/>
<path d="M10.8838 27.4089C7.48284 33.9149 17.0197 39.5159 21.6487 32.6529C26.7617 25.0729 12.4676 16.9679 10.5376 29.4679" stroke="white" stroke-width="6" stroke-miterlimit="1.5" stroke-linecap="round" stroke-linejoin="round"/>
<path d="M21.2966 39.752C21.5466 40.114 21.7168 40.527 21.9668 40.89C22.0678 41.036 22.0658 41.021 23.3018 42.66" stroke="white" stroke-width="6" stroke-miterlimit="1.5" stroke-linecap="round" stroke-linejoin="round"/>
<path d="M26.9536 49.0078C28.2046 50.7628 28.1366 50.7578 29.6526 52.2238" stroke="white" stroke-width="6" stroke-miterlimit="1.5" stroke-linecap="round" stroke-linejoin="round"/>
<path d="M35.0537 55.6938C37.1747 56.3648 37.1567 56.4938 39.3447 56.0668" stroke="white" stroke-width="6" stroke-miterlimit="1.5" stroke-linecap="round" stroke-linejoin="round"/>
<path d="M44.5676 52.2219C46.4436 50.9819 46.4327 51.0429 48.2188 49.7109" stroke="white" stroke-width="6" stroke-miterlimit="1.5" stroke-linecap="round" stroke-linejoin="round"/>
<path d="M52.7957 45.6661C52.9957 45.5301 53.1367 45.3201 53.3367 45.1851C53.5157 45.0631 53.5057 45.0771 55.6147 43.7241" stroke="white" stroke-width="6" stroke-miterlimit="1.5" stroke-linecap="round" stroke-linejoin="round"/>
<path d="M62.5667 40.5232C64.0927 40.3292 64.0498 40.2652 65.5718 40.4062" stroke="white" stroke-width="6" stroke-miterlimit="1.5" stroke-linecap="round" stroke-linejoin="round"/>
<path d="M70.9236 44.6367C72.4606 45.2627 72.4097 45.2917 73.6597 46.3927" stroke="white" stroke-width="6" stroke-miterlimit="1.5" stroke-linecap="round" stroke-linejoin="round"/>
<path d="M77.6086 51.708C78.8956 52.733 78.9098 52.65 80.0408 53.902" stroke="white" stroke-width="6" stroke-miterlimit="1.5" stroke-linecap="round" stroke-linejoin="round"/>
<path d="M84.2937 59.5508C84.9487 60.3128 85.6038 61.0757 86.2588 61.8387" stroke="white" stroke-width="6" stroke-miterlimit="1.5" stroke-linecap="round" stroke-linejoin="round"/>
<path d="M82.7506 45.7938C81.7446 44.4398 73.9186 32.9878 74.0136 27.7948C74.1766 18.9388 84.5537 18.6568 87.8827 20.9968C95.3947 26.2768 86.6085 42.0439 83.5175 45.8709" stroke="white" stroke-width="6" stroke-miterlimit="1.5" stroke-linecap="round" stroke-linejoin="round"/>
<path d="M81.3367 30.495C81.5417 26.17 83.8527 28.5361 84.0027 29.2301C84.4627 31.3521 82.5968 33.1691 81.3518 30.3551" stroke="white" stroke-width="6" stroke-miterlimit="1.5" stroke-linecap="round" stroke-linejoin="round"/>
<path d="M41.3538 79.8638C41.9388 77.0388 48.0776 62.9858 48.2566 62.6928C49.5576 60.5608 53.3226 71.4068 54.8896 74.6958" stroke="white" stroke-width="6" stroke-miterlimit="1.5" stroke-linecap="round" stroke-linejoin="round"/>
<path d="M52.9236 66.2358C54.8486 62.7788 55.2047 62.9428 55.5547 63.1378C55.6977 63.2168 56.0178 63.0278 60.2808 71.2298" stroke="white" stroke-width="6" stroke-miterlimit="1.5" stroke-linecap="round" stroke-linejoin="round"/>
</svg>
