<svg width="100" height="100" viewBox="0 0 100 100" fill="none" xmlns="http://www.w3.org/2000/svg">
<circle cx="35" cy="53" r="30" stroke="white" stroke-width="8"/>
<path d="M65.998 31.0146C84.3141 31.5427 99 46.5561 99 65C99 83.7777 83.7777 99 65 99C56.2689 99 48.308 95.7071 42.2871 90.2979C45.5282 89.6683 48.6225 88.6301 51.5127 87.2334C55.4449 89.6239 60.0619 91 65 91C79.3594 91 91 79.3594 91 65C91 52.5513 82.2509 42.1473 70.5664 39.5986C69.4091 36.5286 67.8683 33.6469 65.998 31.0146ZM48.2266 35.4199C50.4406 37.0883 52.3297 39.1646 53.7812 41.5381C45.0381 45.7264 39 54.6581 39 65C39 68.2595 39.602 71.378 40.6973 74.2529C38.88 74.7389 36.9705 75 35 75C34.1378 75 33.2875 74.9481 32.4512 74.8516C31.5086 71.7331 31 68.426 31 65C31 52.3221 37.9394 41.2658 48.2266 35.4199Z" fill="white"/>
<path d="M31.3221 21.7018C31.3668 21.7354 31.4233 21.7557 31.4829 21.7597C31.5426 21.7637 31.6021 21.7512 31.6526 21.7241C31.703 21.697 31.7415 21.6567 31.7623 21.6095C31.7831 21.5623 31.785 21.5106 31.7677 21.4624L28.2369 11.2717C28.2051 11.1789 28.1402 11.0965 28.051 11.0357C27.9618 10.975 27.8526 10.9387 27.7381 10.9319C27.1665 10.8965 26.5958 10.8572 26.026 10.8139L21.3043 10.4517C21.2543 10.4477 21.204 10.455 21.1587 10.4731C21.1134 10.4912 21.0747 10.5193 21.0468 10.5544C21.019 10.5895 21.0029 10.6303 21.0004 10.6724C20.9978 10.7146 21.0089 10.7566 21.0325 10.7939C23.5867 14.8168 27.2646 18.651 31.3221 21.7018ZM34.7857 23.8561C34.8137 23.9387 34.8978 24 35 24C35.0496 23.9994 35.0976 23.9849 35.1364 23.9588C35.1752 23.9328 35.2026 23.8967 35.2144 23.8561L39.5354 11.3826C39.5483 11.3463 39.5506 11.3081 39.5422 11.2709C39.5338 11.2338 39.515 11.1989 39.4872 11.1692C39.4595 11.1395 39.4237 11.1158 39.3828 11.1002C39.3419 11.0845 39.2972 11.0774 39.2524 11.0794C36.4188 11.1814 33.5813 11.1814 30.7477 11.0794C30.703 11.0775 30.6585 11.0846 30.6177 11.1002C30.577 11.1157 30.5413 11.1393 30.5136 11.1689C30.4859 11.1984 30.467 11.2331 30.4585 11.2701C30.45 11.3071 30.4521 11.3452 30.4647 11.3814L34.7857 23.8561ZM38.2324 21.4624C38.1539 21.6865 38.4706 21.8576 38.6779 21.7018C42.7355 18.6498 46.4134 14.8168 48.9676 10.7939C48.9911 10.7567 49.0021 10.7148 48.9997 10.6728C48.9972 10.6307 48.9812 10.59 48.9535 10.5549C48.9258 10.5199 48.8874 10.4918 48.8422 10.4736C48.7971 10.4554 48.747 10.4479 48.6972 10.4517L43.9755 10.8139C43.4038 10.8572 42.8327 10.8965 42.2619 10.9319C42.1475 10.9387 42.0383 10.975 41.9491 11.0357C41.8599 11.0965 41.795 11.1789 41.7632 11.2717L38.2324 21.4624ZM48.7322 8.67267C48.7811 8.66906 48.828 8.65472 48.8682 8.63107C48.9084 8.60743 48.9405 8.57531 48.9614 8.53793C48.9822 8.50055 48.9911 8.45922 48.987 8.41806C48.9829 8.37691 48.9661 8.33738 48.9382 8.30341L44.4014 2.76448C44.2081 2.52859 43.9496 2.33577 43.6482 2.20261C43.3468 2.06944 43.0115 1.99991 42.6711 2H39.1823C39.1363 2 39.091 2.00954 39.0504 2.02778C39.0098 2.04602 38.9752 2.07239 38.9496 2.10458C38.9239 2.13676 38.9081 2.17376 38.9035 2.21231C38.8989 2.25086 38.9056 2.28977 38.9231 2.32561L42.0854 8.84138C42.1303 8.93354 42.2088 9.01137 42.3094 9.06372C42.4101 9.11606 42.5279 9.14024 42.6459 9.13278C43.0251 9.1084 43.4048 9.08087 43.7849 9.05019L48.7322 8.67267ZM36.6323 2.29022C36.5897 2.20411 36.5176 2.13058 36.4254 2.07893C36.3331 2.02727 36.2247 1.99981 36.1139 2H33.8862C33.7754 1.99981 33.667 2.02727 33.5747 2.07893C33.4824 2.13058 33.4104 2.20411 33.3678 2.29022L30.064 8.96525C30.0468 9.00018 30.04 9.03806 30.0439 9.0757C30.0478 9.11334 30.0623 9.14964 30.0864 9.18155C30.1104 9.21346 30.1432 9.24004 30.1819 9.25907C30.2207 9.27809 30.2643 9.28899 30.3091 9.29086C33.4336 9.41828 36.5665 9.41828 39.6923 9.29086C39.737 9.28881 39.7805 9.27778 39.8191 9.25868C39.8577 9.23958 39.8903 9.21298 39.9141 9.18109C39.938 9.14921 39.9525 9.11298 39.9563 9.07542C39.9601 9.03787 39.9532 9.00009 39.9361 8.96525L36.6323 2.29022ZM31.077 2.32561C31.0944 2.28977 31.1012 2.25086 31.0966 2.21231C31.092 2.17376 31.0761 2.13676 31.0505 2.10458C31.0249 2.07239 30.9903 2.04602 30.9497 2.02778C30.9091 2.00954 30.8638 2 30.8177 2H27.329C26.9886 1.99991 26.6533 2.06944 26.3519 2.20261C26.0505 2.33577 25.792 2.52859 25.5986 2.76448L21.0619 8.30341C21.034 8.33738 21.0172 8.37691 21.0131 8.41806C21.009 8.45922 21.0179 8.50055 21.0387 8.53793C21.0596 8.57531 21.0917 8.60743 21.1319 8.63107C21.1721 8.65472 21.219 8.66906 21.2678 8.67267L26.2151 9.05019C26.5944 9.08087 26.9741 9.1084 27.3542 9.13278C27.4722 9.14024 27.59 9.11606 27.6907 9.06372C27.7913 9.01137 27.8697 8.93354 27.9147 8.84138L31.077 2.32561Z" fill="white"/>
</svg>
