<svg width="20" height="20" viewBox="0 0 20 20" fill="none" xmlns="http://www.w3.org/2000/svg">
<path d="M17.5789 14.5439C17.9439 14.544 18.2948 14.6655 18.5589 14.8831C18.823 15.1008 18.9801 15.3979 18.9977 15.7129C19.0152 16.0279 18.8918 16.3367 18.6531 16.5753C18.4144 16.8138 18.0786 16.9638 17.7154 16.9943L17.5789 17H2.42105C2.05611 16.9998 1.70523 16.8784 1.44111 16.6607C1.17699 16.4431 1.01988 16.146 1.00235 15.8309C0.984808 15.5159 1.10818 15.2072 1.3469 14.9686C1.58562 14.7301 1.92139 14.58 2.28463 14.5496L2.42105 14.5439H17.5789ZM17.5789 8.77193C17.9558 8.77193 18.3173 8.90132 18.5838 9.13162C18.8503 9.36193 19 9.6743 19 10C19 10.3257 18.8503 10.6381 18.5838 10.8684C18.3173 11.0987 17.9558 11.2281 17.5789 11.2281H2.42105C2.04417 11.2281 1.68272 11.0987 1.41622 10.8684C1.14972 10.6381 1 10.3257 1 10C1 9.6743 1.14972 9.36193 1.41622 9.13162C1.68272 8.90132 2.04417 8.77193 2.42105 8.77193H17.5789ZM17.5789 3C17.9558 3 18.3173 3.12939 18.5838 3.35969C18.8503 3.59 19 3.90237 19 4.22807C19 4.55377 18.8503 4.86614 18.5838 5.09645C18.3173 5.32675 17.9558 5.45614 17.5789 5.45614H2.42105C2.04417 5.45614 1.68272 5.32675 1.41622 5.09645C1.14972 4.86614 1 4.55377 1 4.22807C1 3.90237 1.14972 3.59 1.41622 3.35969C1.68272 3.12939 2.04417 3 2.42105 3H17.5789Z" fill="white"/>
</svg>
