<svg width="100" height="97" viewBox="0 0 100 97" fill="none" xmlns="http://www.w3.org/2000/svg">
<path d="M77.0185 10.7333C77.5512 10.5987 78.0912 10.9247 78.2249 11.4615C80.1754 19.2912 76.676 26.3055 72.6486 31.4051C68.6077 36.5217 63.8874 39.9045 63.0297 40.5381C62.5868 40.8649 61.9645 40.7678 61.6397 40.3218C61.3151 39.8754 61.4115 39.2484 61.8544 38.9211C62.7039 38.2936 67.2317 35.0458 71.0926 30.1572C74.9672 25.251 78.0232 18.8826 76.2959 11.9489C76.1623 11.4122 76.4859 10.8681 77.0185 10.7333Z" fill="white"/>
<path fill-rule="evenodd" clip-rule="evenodd" d="M75.9404 0.0039175C76.5163 -0.0257413 77.1071 0.11248 77.6373 0.436538C84.6125 4.70031 87.8194 10.1437 88.0896 16.0872C88.348 21.7727 85.8824 27.3283 82.8629 31.9826C79.8073 36.6925 75.9426 40.849 72.8545 43.8278C71.3014 45.3259 69.9239 46.5457 68.9129 47.4091C68.6746 47.6127 68.4503 47.8006 68.2486 47.969L73.9754 53.7506L77.5673 50.0244C78.1537 49.416 78.968 49.0855 79.8091 49.1142C80.6502 49.143 81.4408 49.5281 81.9849 50.1751L85.8225 54.7382C86.8184 55.9226 86.7556 57.6772 85.6778 58.7864L80.5532 64.0591L91.9583 74.7317C92.0028 74.7675 92.0465 74.8046 92.0894 74.8433C92.6425 75.3426 95.8486 78.3791 97.9756 82.0696C99.0293 83.898 100.016 86.2183 99.9998 88.6588C99.9824 91.3445 98.7483 93.8218 96.0835 95.566C93.7198 97.1129 91.2427 97.3156 88.9638 96.6153C86.8381 95.9619 85.0284 94.5744 83.5943 93.1974C82.1346 91.7956 80.8518 90.1946 79.8266 88.8584C78.7021 87.3929 78.0361 86.46 77.5401 85.9309C77.4181 85.8007 77.3112 85.6614 77.2167 85.5169L68.6691 76.288L62.8791 82.2468C62.3192 82.823 61.5523 83.1487 60.752 83.1502C59.9519 83.1515 59.1847 82.8285 58.6228 82.2546L54.5696 78.1124C53.4304 76.9481 53.4236 75.0797 54.554 73.9066L58.7802 69.5197L51.2098 61.9802C47.7026 65.3 45.7935 66.7094 41.8376 69.3837L46.362 74.0789C47.4922 75.2518 47.4852 77.1203 46.3464 78.2847L42.2931 82.4269C41.7313 83.0008 40.964 83.3237 40.164 83.3225C39.3636 83.3211 38.5969 82.9953 38.0368 82.4191L32.7373 76.9653L21.4691 89.1325C21.3091 89.3053 21.1315 89.4518 20.9446 89.5778C16.2281 94.2878 11.7768 95.9274 7.74254 94.9024C5.21533 94.2602 3.35401 92.6505 2.13515 90.9677C0.940138 89.3176 0.191013 87.3667 0.0516848 85.6441C-0.0655207 84.1922 -0.0148227 82.7498 0.53637 81.4315C1.13234 80.0064 2.13392 79.1394 3.0715 78.5294C3.85539 78.0195 4.99701 77.4583 5.82906 77.0045C6.60803 76.5796 7.48345 76.065 8.47394 75.367C8.49775 75.3412 8.52192 75.3157 8.54679 75.2906L19.9461 63.8027L15.2382 58.9587C14.1602 57.8494 14.0974 56.0949 15.0934 54.9105L18.9311 50.3474C19.4752 49.7006 20.2658 49.3151 21.1068 49.2864C21.9479 49.2579 22.7624 49.5883 23.3486 50.1967L29.7098 56.7985C30.0657 56.5468 30.7095 56.0319 31.8292 54.9672C33.167 53.6951 35.0833 51.7402 37.8921 48.7148L11.3374 22.2653C10.8182 21.7481 10.505 21.0574 10.4574 20.3234L9.59775 7.06874C9.54009 6.17824 9.87755 5.30794 10.5195 4.69325C11.1619 4.07847 12.0427 3.78271 12.9226 3.88673L25.1028 5.3275L25.3505 5.36763C25.9233 5.4852 26.4512 5.77024 26.8667 6.1898L53.3282 32.9056C62.8343 21.3993 67.0334 16.3016 73.1197 1.83423C73.6116 0.664888 74.7523 -0.0250575 75.9404 0.0039175ZM90.3353 81.6585C89.8028 82.6799 89.2346 83.5401 88.5228 84.2768C87.6944 85.134 86.7212 85.7759 85.5156 86.3547C85.5201 86.3793 85.5272 86.4034 85.5311 86.4281C86.2283 87.287 86.9556 88.1187 87.7117 88.8447C88.8565 89.9439 89.865 90.6059 90.7044 90.864C91.3904 91.0748 92.0271 91.0502 92.8325 90.5233C93.8473 89.8591 94.028 89.2438 94.0321 88.6196C94.0377 87.75 93.6521 86.5416 92.815 85.0892C92.089 83.8295 91.1712 82.6337 90.3353 81.6585ZM13.5801 78.7212C13.3828 79.0776 13.112 79.4002 12.7671 79.6609C11.1785 80.8615 9.80373 81.6745 8.67015 82.2928C7.40811 82.9811 6.84367 83.2333 6.30791 83.5818C6.14487 83.6879 6.06439 83.7566 6.02818 83.7913C6.01744 83.8288 5.99819 83.9112 5.98447 84.0566C5.96271 84.2873 5.95805 84.636 6.00001 85.1557L6.02623 85.3534C6.11438 85.8587 6.3981 86.6538 6.95481 87.4226C7.56748 88.2685 8.34101 88.8531 9.20146 89.0718C10.4672 89.3934 13.3647 89.1575 17.8695 84.1309C16.5851 82.9526 15.5363 81.9176 14.2717 80.2687C13.7679 79.6117 13.8878 78.6681 14.5398 78.1604C15.1918 77.6527 16.1281 77.7736 16.632 78.4305C17.7383 79.8731 18.6029 80.734 19.7829 81.8181C20.0383 81.4872 20.3 81.1436 20.5639 80.7835C20.6891 80.6127 20.8293 80.4594 20.9806 80.3235C20.8043 80.1517 20.6298 79.9804 20.4541 79.8096C19.6379 79.016 18.8127 78.2132 17.8432 77.2364C17.2607 76.6494 17.2608 75.6976 17.8432 75.1105C18.4258 74.5235 19.3703 74.5235 19.9529 75.1105C20.9013 76.0661 21.7092 76.8514 22.5259 77.6456C22.772 77.8848 23.0185 78.1255 23.27 78.3708L24.5686 76.9692C24.0007 76.3798 23.6206 75.9788 23.2991 75.6361C22.7957 75.0994 22.4475 74.7241 21.7178 73.9888C21.1352 73.4018 21.1353 72.4501 21.7178 71.8629C22.3004 71.2758 23.2449 71.2758 23.8275 71.8629C24.5894 72.6307 24.9632 73.0327 25.468 73.5709C25.7615 73.8838 26.1063 74.2467 26.6074 74.7679L28.5568 72.6645L24.1208 68.0995L13.5801 78.7212ZM86.2839 77.6279C85.6745 78.5894 85.032 79.4043 84.2247 80.0778C83.498 80.684 82.6739 81.1487 81.6954 81.5391L83.8168 83.8295C85.0439 83.2834 85.796 82.7887 86.3849 82.1793C87.0058 81.5367 87.5116 80.7022 88.1313 79.3565L86.2839 77.6279ZM81.9548 73.5768C81.3857 74.7005 80.755 75.531 79.8791 76.1872C79.2498 76.6585 78.5457 76.999 77.7878 77.3196L79.4653 79.1304C80.8546 78.7149 81.6843 78.2939 82.3219 77.762C82.9353 77.2504 83.4355 76.5858 84.0528 75.5402L81.9548 73.5768ZM72.8487 71.9872L75.6043 74.9627C75.9128 74.8412 76.1923 74.7331 76.4513 74.626C77.2376 74.3009 77.7247 74.0545 78.0986 73.7745C78.6218 73.3827 79.0596 72.8238 79.6547 71.4244L76.3765 68.3569L72.8487 71.9872ZM42.1377 52.9431C39.3466 55.9465 37.3686 57.968 35.9242 59.3414C35.1378 60.0892 34.4753 60.6766 33.8971 61.1433L37.6114 64.9978C41.9389 62.087 43.6336 60.8907 46.9632 57.7489L42.1377 52.9431ZM25.0067 17.989L58.3606 52.5595L56.9337 53.9571L23.811 19.6255L18.2512 20.6973L62.6956 64.9635L69.3782 58.5212L69.8182 58.0661L25.5302 13.3515L25.0067 17.989ZM77.1982 7.45047C71.3834 20.5136 66.6944 26.1258 57.5622 37.1799L64.0127 43.6917C66.1015 41.9765 73.1498 35.9636 77.8675 28.6919C80.6132 24.4596 82.3029 20.1961 82.1286 16.3622C81.9951 13.4258 80.7468 10.3546 77.1982 7.45047ZM16.3377 18.7916L16.5339 18.9873L23.0339 17.7335L23.7323 11.5369L23.3768 11.1777L15.785 10.2801L16.3377 18.7916Z" fill="white"/>
</svg>
