<svg width="100" height="100" viewBox="0 0 100 100" fill="none" xmlns="http://www.w3.org/2000/svg">
<path d="M50 77.5V36.2M50 36.2V10.2M50 36.2L56.4024 34.9156C60.6815 34.0603 65.116 34.4686 69.1684 36.0908C73.5584 37.8511 78.3897 38.1795 82.9764 37.0294L83.2356 36.9644C83.5886 36.8754 83.916 36.7048 84.1915 36.4663C84.467 36.2277 84.6831 35.9278 84.8224 35.5904C84.9617 35.2531 85.0204 34.8878 84.9937 34.5237C84.9671 34.1595 84.8559 33.8067 84.669 33.4934L80.6253 26.7308C79.7389 25.2488 79.2956 24.5104 79.1919 23.707C79.1479 23.3704 79.1479 23.0296 79.1919 22.693C79.2956 21.8896 79.7389 21.1486 80.6253 19.6692L83.938 14.1312C84.1316 13.8093 84.2255 13.4369 84.2078 13.0614C84.1901 12.6859 84.0616 12.3241 83.8386 12.0219C83.6157 11.7197 83.3083 11.4907 82.9554 11.364C82.6025 11.2373 82.2201 11.2186 81.8566 11.3102C77.9975 12.2782 73.9324 12.0016 70.2389 10.5198L69.1684 10.0908C65.1168 8.46906 60.6832 8.06084 56.405 8.9156L50 10.2M50 10.2V5" stroke="white" stroke-width="8" stroke-linecap="round"/>
<path d="M59.8945 59C68.7688 59.6905 76.7963 61.296 83.1768 63.5859C87.4998 65.1376 91.2811 67.0796 94.0576 69.4355C96.8172 71.7772 99.0067 74.9166 99.0068 78.7725C99.0068 82.6284 96.8172 85.7677 94.0576 88.1094C91.281 90.4654 87.5 92.4073 83.1768 93.959C74.4959 97.0746 62.7663 98.9248 50.0029 98.9248C37.2398 98.9248 25.5108 97.0746 16.8301 93.959C12.5069 92.4073 8.72477 90.4654 5.94824 88.1094C3.18887 85.7677 1.00005 82.6282 1 78.7725C1.00011 74.9167 3.18883 71.7772 5.94824 69.4355C8.72481 67.0794 12.5068 65.1376 16.8301 63.5859C23.2106 61.2959 31.238 59.6905 40.1123 59V67.0244C32.0776 67.6944 24.99 69.1573 19.5322 71.1162C15.7119 72.4874 12.9029 74.0265 11.125 75.5352C9.33034 77.058 9.0001 78.1681 9 78.7725C9.00005 79.3767 9.33043 80.4869 11.125 82.0098C12.9029 83.5183 15.712 85.0575 19.5322 86.4287C27.1392 89.1589 37.912 90.9248 50.0029 90.9248C62.0938 90.9248 72.8666 89.1589 80.4736 86.4287C84.2943 85.0574 87.1039 83.5185 88.8818 82.0098C90.6767 80.4867 91.0068 79.3768 91.0068 78.7725C91.0067 78.1681 90.6764 77.058 88.8818 75.5352C87.1038 74.0265 84.2941 72.4874 80.4736 71.1162C75.0159 69.1574 67.9289 67.6944 59.8945 67.0244V59Z" fill="white"/>
<path d="M60 61.0088C63.4947 61.4891 66.6746 62.2157 69.3662 63.1475C71.9002 64.0246 74.1654 65.1376 75.8564 66.5215C77.5254 67.8874 79 69.8393 79 72.3467C79 74.8541 77.5254 76.806 75.8564 78.1719C74.1654 79.5557 71.9002 80.6687 69.3662 81.5459C64.2692 83.3102 57.4221 84.3467 50 84.3467C42.5779 84.3467 35.7308 83.3102 30.6338 81.5459C28.0998 80.6687 25.8346 79.5557 24.1436 78.1719C22.4746 76.806 21 74.8541 21 72.3467C21 69.8393 22.4746 67.8874 24.1436 66.5215C25.8346 65.1376 28.0998 64.0246 30.6338 63.1475C33.3254 62.2157 36.5053 61.4891 40 61.0088V67.0713C37.1836 67.4997 34.6761 68.0976 32.5967 68.8174C30.4259 69.5688 28.8836 70.3956 27.9434 71.165C27.4823 71.5423 27.2339 71.8506 27.1104 72.0596C26.9972 72.251 27 72.3363 27 72.3467C27 72.3571 26.9972 72.4424 27.1104 72.6338C27.2339 72.8427 27.4823 73.151 27.9434 73.5283C28.8836 74.2978 30.4259 75.1246 32.5967 75.876C36.9098 77.369 43.0628 78.3467 50 78.3467C56.9372 78.3467 63.0902 77.369 67.4033 75.876C69.5741 75.1246 71.1164 74.2978 72.0566 73.5283C72.5177 73.151 72.7661 72.8427 72.8896 72.6338C73.0028 72.4424 73 72.3571 73 72.3467C73 72.3363 73.0028 72.251 72.8896 72.0596C72.7661 71.8506 72.5177 71.5423 72.0566 71.165C71.1164 70.3956 69.5741 69.5688 67.4033 68.8174C65.3239 68.0976 62.8164 67.4997 60 67.0713V61.0088Z" fill="white"/>
</svg>
