<svg width="100" height="100" viewBox="0 0 100 100" fill="none" xmlns="http://www.w3.org/2000/svg">
<path d="M72.5 58.999H63.5V42.8623L44.1836 62.1777C45.0273 63.9403 45.5 65.9145 45.5 67.999V81.499C45.4999 88.9547 39.4557 94.999 32 94.999H18.5C11.0444 94.9989 5.00009 88.9546 5 81.499V67.999C5 60.5433 11.0443 54.4992 18.5 54.499H32C34.084 54.499 36.058 54.9711 37.8203 55.8145L57.1367 36.499H41V27.499H72.5V58.999ZM77 5C81.7738 5.00005 86.351 6.89786 89.7266 10.2734C93.1021 13.6491 95 18.2262 95 23V76.999C95 81.7727 93.102 86.35 89.7266 89.7256C86.351 93.1012 81.7738 94.999 77 94.999H63.5C61.0147 94.999 59 92.9843 59 90.499C59.0002 88.0139 61.0148 85.999 63.5 85.999H77C79.3869 85.999 81.6755 85.0501 83.3633 83.3623C85.0509 81.6745 86 79.3858 86 76.999V23C86 20.6131 85.051 18.3245 83.3633 16.6367C81.6755 14.9489 79.3869 14.0001 77 14H23C20.6132 14.0001 18.3245 14.949 16.6367 16.6367C14.949 18.3245 14 20.6132 14 23V36.5C13.9999 38.9852 11.9852 41 9.5 41C7.01497 40.9998 5.00013 38.985 5 36.5V23C5 18.2262 6.89792 13.649 10.2734 10.2734C13.649 6.89786 18.2262 5.00006 23 5H77ZM18.5 63.499C16.0149 63.4992 14 65.5138 14 67.999V81.499C14.0001 83.9841 16.0149 85.9989 18.5 85.999H32C34.4852 85.999 36.4999 83.9842 36.5 81.499V67.999C36.5 65.5138 34.4853 63.499 32 63.499H18.5Z" fill="white"/>
</svg>
