<svg width="87" height="94" viewBox="0 0 87 94" fill="none" xmlns="http://www.w3.org/2000/svg">
<rect x="3.5" y="11.02" width="79.48" height="79.48" rx="6.5" stroke="white" stroke-width="7"/>
<path d="M3.76001 27.2598H82.72" stroke="white" stroke-width="6" stroke-linecap="round"/>
<rect x="17.86" width="7.52" height="11.28" rx="3.76" fill="white"/>
<rect x="59.22" width="7.52" height="11.28" rx="3.76" fill="white"/>
<path d="M66.74 87.4198V81.5709C66.74 78.4685 65.502 75.4931 63.2985 73.2993C61.0949 71.1056 58.1063 69.8731 54.99 69.8731H52.0525C51.2734 69.8731 50.5263 69.565 49.9754 69.0166C49.4245 68.4681 49.115 67.7243 49.115 66.9487V52.3265C49.115 50.7752 48.496 49.2875 47.3942 48.1907C46.2925 47.0938 44.7981 46.4776 43.24 46.4776C41.6818 46.4776 40.1875 47.0938 39.0857 48.1907C37.984 49.2875 37.365 50.7752 37.365 52.3265V78.6465L30.315 69.2882C29.7678 68.5618 29.0581 67.9722 28.2424 67.5662C27.4266 67.1601 26.5271 66.9487 25.615 66.9487H24.3401C21.7992 66.9487 19.74 68.9987 19.74 71.5284C19.74 72.3589 19.9662 73.1748 20.3951 73.8855L28.5525 87.4198M43.24 37.7042V34.7798M60.865 55.2509H63.8025M22.6775 55.2509H25.615M29.5601 41.6318L27.4832 39.5642M56.9199 41.6318L58.9967 39.5642" stroke="white" stroke-width="6" stroke-linecap="round" stroke-linejoin="round"/>
</svg>
