<svg width="100" height="100" viewBox="0 0 100 100" fill="none" xmlns="http://www.w3.org/2000/svg">
<g clip-path="url(#clip0_79_311)">
<path d="M21.9005 66.708C24.5991 68.9774 24.633 68.8895 27.5649 70.3426" stroke="white" stroke-width="5" stroke-miterlimit="1.5" stroke-linecap="round" stroke-linejoin="round"/>
<path d="M30.9069 62.5088C32.1396 64.5292 32.1416 64.4834 33.494 66.417" stroke="white" stroke-width="5" stroke-miterlimit="1.5" stroke-linecap="round" stroke-linejoin="round"/>
<path d="M34.1047 94.8345C32.8863 90.3977 32.6051 90.3753 32.5897 85.0946C32.5887 84.4099 32.4556 82.462 32.9661 79.8865" stroke="white" stroke-width="5" stroke-miterlimit="1.5" stroke-linecap="round" stroke-linejoin="round"/>
<path d="M38.9025 78.2935C39.5735 79.3547 43.548 85.6445 49.6818 89.7068C56.1645 94.0007 60.6799 94.7813 61.7162 94.9609" stroke="white" stroke-width="5" stroke-miterlimit="1.5" stroke-linecap="round" stroke-linejoin="round"/>
<path d="M41.681 73.1721C44.663 74.9323 51.8904 80.3047 61.3889 77.7221C70.694 75.1925 75.77 66.4129 75.8335 66.3262" stroke="white" stroke-width="5" stroke-miterlimit="1.5" stroke-linecap="round" stroke-linejoin="round"/>
<path d="M31.3457 96.6394H69.7497" stroke="white" stroke-width="5" stroke-miterlimit="1.5" stroke-linecap="round" stroke-linejoin="round"/>
<path fill-rule="evenodd" clip-rule="evenodd" d="M34.6046 68.8145C36.7382 68.8145 38.4688 70.5419 38.4688 72.6701C38.4688 74.7972 36.7382 76.5246 34.6046 76.5246C32.4722 76.5246 30.7403 74.7972 30.7403 72.6701C30.7403 70.5419 32.4722 68.8145 34.6046 68.8145ZM34.6046 73.9168C35.2947 73.9168 35.8555 73.3584 35.8555 72.6701C35.8555 71.9818 35.2947 71.4223 34.6046 71.4223C33.9146 71.4223 33.3547 71.9818 33.3547 72.6701C33.3547 73.3584 33.9146 73.9168 34.6046 73.9168Z" fill="white"/>
<path d="M30.2276 31.4854C23.3736 25.8946 27.3275 23.1884 29.0829 21.7119C29.1064 20.8221 27.5352 15.0262 32.4905 13.5027" stroke="white" stroke-width="5" stroke-miterlimit="1.5" stroke-linecap="round" stroke-linejoin="round"/>
<path d="M33.1052 12.012C31.0746 6.36607 35.3406 4.50277 39.6504 7.51706C41.7168 4.26706 44.0799 -0.12683 49.9038 4.67419" stroke="white" stroke-width="5" stroke-miterlimit="1.5" stroke-linecap="round" stroke-linejoin="round"/>
<path d="M50.983 6.2731C51.9334 3.39351 55.1118 0.378265 58.2033 5.08541C64.9018 4.04969 66.0669 5.20674 66.2347 9.37817" stroke="white" stroke-width="5" stroke-miterlimit="1.5" stroke-linecap="round" stroke-linejoin="round"/>
<path d="M65.1627 11.3977C66.4414 11.2191 72.606 9.65889 68.8056 15.6385C72.1292 18.5324 71.5789 19.1589 70.0721 22.5844C74.8453 28.0364 72.9722 29.3201 69.6424 30.9926" stroke="white" stroke-width="5" stroke-miterlimit="1.5" stroke-linecap="round" stroke-linejoin="round"/>
<path d="M66.4634 25.5415C66.2854 48.1772 57.7812 53.7456 49.1431 53.7456" stroke="white" stroke-width="5" stroke-miterlimit="1.5" stroke-linecap="round" stroke-linejoin="round"/>
<path d="M32.7749 25.5415C32.9529 48.1772 41.457 53.7456 50.0952 53.7456" stroke="white" stroke-width="5" stroke-miterlimit="1.5" stroke-linecap="round" stroke-linejoin="round"/>
<path d="M34.3441 21.662C38.0678 25.414 39.7567 20.3905 42.7909 21.8027C45.3044 22.9732 46.0594 25.969 48.9002 22.1068C49.0782 21.866 49.2215 21.5119 51.3022 22.7221C54.2945 20.8558 54.6064 20.0559 57.5823 21.9977C58.8088 22.7977 59.8565 20.7538 61.8401 21.5793C63.8062 22.3987 63.7469 22.9201 65.8154 22.5099" stroke="white" stroke-width="5" stroke-miterlimit="1.5" stroke-linecap="round" stroke-linejoin="round"/>
<path d="M41.0641 51.0813C43.0497 54.3252 42.5199 54.4446 42.9362 58.2721" stroke="white" stroke-width="5" stroke-miterlimit="1.5" stroke-linecap="round" stroke-linejoin="round"/>
<path d="M43.4927 58.5762C34.2019 59.6823 19.3716 65.561 8.84509 76.2804" stroke="white" stroke-width="5" stroke-miterlimit="1.5" stroke-linecap="round" stroke-linejoin="round"/>
<path d="M8.55762 76.769C20.633 82.9109 29.2364 95.6047 29.9995 96.6741" stroke="white" stroke-width="5" stroke-miterlimit="1.5" stroke-linecap="round" stroke-linejoin="round"/>
<path d="M59.0665 51.0813C57.0809 54.3252 57.6107 54.4446 57.1944 58.2721" stroke="white" stroke-width="5" stroke-miterlimit="1.5" stroke-linecap="round" stroke-linejoin="round"/>
<path d="M56.638 58.5762C65.9287 59.6823 80.759 65.561 91.2856 76.2804" stroke="white" stroke-width="5" stroke-miterlimit="1.5" stroke-linecap="round" stroke-linejoin="round"/>
<path d="M91.5731 76.769C79.4977 82.9109 70.8943 95.6047 70.1311 96.6741" stroke="white" stroke-width="5" stroke-miterlimit="1.5" stroke-linecap="round" stroke-linejoin="round"/>
</g>
<defs>
<clipPath id="clip0_79_311">
<rect width="89" height="100" fill="white" transform="translate(6)"/>
</clipPath>
</defs>
</svg>
