<svg width="100" height="100" viewBox="0 0 100 100" fill="none" xmlns="http://www.w3.org/2000/svg">
<path d="M47.0853 22.0752C47.436 21.2798 48.5646 21.2799 48.9154 22.0752L52.5804 30.3867C52.7564 30.7854 53.1707 31.0246 53.6039 30.9775L62.6332 29.9951C63.4974 29.9011 64.0617 30.8787 63.5482 31.5801L58.183 38.9092C57.9255 39.2609 57.9255 39.7391 58.183 40.0908L63.5482 47.4199C64.0617 48.1213 63.4974 49.0989 62.6332 49.0049L53.6039 48.0225C53.1707 47.9754 52.7564 48.2146 52.5804 48.6133L48.9154 56.9248C48.5646 57.7201 47.436 57.7202 47.0853 56.9248L43.4213 48.6133C43.2454 48.2146 42.8311 47.9753 42.3978 48.0225L33.3675 49.0049C32.5036 49.0986 31.9393 48.1213 32.4525 47.4199L37.8187 40.0908C38.0761 39.7392 38.0761 39.2608 37.8187 38.9092L32.4525 31.5801C31.9393 30.8787 32.5036 29.9014 33.3675 29.9951L42.3978 30.9775C42.8311 31.0247 43.2454 30.7854 43.4213 30.3867L47.0853 22.0752Z" fill="white"/>
<path fill-rule="evenodd" clip-rule="evenodd" d="M48.0004 13C62.6359 13 74.5004 24.8645 74.5004 39.5C74.5004 54.1355 62.6359 66 48.0004 66C33.365 65.9998 21.5004 54.1354 21.5004 39.5C21.5004 24.8646 33.365 13.0002 48.0004 13ZM48.0004 19C36.6787 19.0002 27.5004 28.1783 27.5004 39.5C27.5004 50.8217 36.6787 59.9998 48.0004 60C59.3222 60 68.5004 50.8218 68.5004 39.5C68.5004 28.1782 59.3222 19 48.0004 19Z" fill="white"/>
<path fill-rule="evenodd" clip-rule="evenodd" d="M48.9095 0C49.0868 0.000573484 49.2642 0.0169515 49.4388 0.0488281C52.7959 0.662064 55.0919 1.81555 56.7484 3.1543C58.2646 4.37973 59.3183 5.91984 59.556 6.2002C59.6406 6.29984 59.7261 6.41091 60.2377 6.40625C60.8943 6.40012 61.7784 6.18793 63.0433 5.78613C64.1286 5.44137 65.6724 4.88961 67.0277 4.62305C68.3564 4.36176 70.4067 4.16719 72.2084 5.40137C75.0642 7.35757 75.8389 10.6345 75.9838 15.6963C76.0456 17.8548 76.559 18.9203 77.0052 19.4941C77.4678 20.0887 78.1275 20.5056 79.141 20.9062C79.6687 21.1149 80.1862 21.2811 80.8343 21.5C81.4277 21.7004 82.157 21.954 82.847 22.293C84.343 23.0279 85.9995 24.3551 86.3968 26.8564L86.4574 27.3184C86.6933 29.5979 85.9325 31.3903 85.0795 32.7773C84.6547 33.468 84.162 34.1283 83.7875 34.6416C83.3819 35.1975 83.0659 35.6456 82.8099 36.0957C82.35 36.9047 82.1201 37.6518 82.2543 38.6816C82.404 39.8306 83.0482 41.6196 85.0062 44.3457C86.3101 46.1611 86.7311 48.1556 86.1947 50.0938C85.7078 51.8528 84.5421 53.1538 83.5443 54.0264C82.516 54.9255 81.3845 55.6116 80.5638 56.0742C80.1615 56.301 79.7637 56.5123 79.5463 56.6309C79.523 56.6435 79.5019 56.6555 79.4828 56.666C79.4035 56.7457 79.3285 56.8281 79.2533 56.9092C79.2825 56.9283 79.3135 56.9454 79.3422 56.9658C82.8439 59.4671 85.833 62.2673 90.3509 67.5664L91.2757 68.6602C95.031 73.1402 96.9453 78.7342 97.9437 83.2969C98.9496 87.8942 99.0741 91.6738 99.1068 92.6689C99.1192 93.0471 99.0436 93.4071 98.9037 93.7334C98.8605 94.2668 98.649 94.7912 98.2601 95.2168C97.3287 96.2354 95.7469 96.3071 94.7279 95.376C91.6359 92.5501 90.0595 91.3278 88.599 90.5928C87.2548 89.9164 85.9192 89.5998 83.222 89.0059C81.6471 90.2914 80.6795 91.8124 79.9847 93.3047C79.5876 94.1576 79.2881 94.9818 78.9974 95.7871C78.7376 96.5071 78.4178 97.4184 78.0228 98.125C77.5905 98.8981 76.8088 99.35 75.9857 99.3984C75.8967 99.4244 75.8058 99.4476 75.7123 99.4639C74.3521 99.6999 73.0579 98.7878 72.8216 97.4277C72.4314 95.1785 70.2814 82.8551 61.7328 72.0098C59.7142 72.4986 57.5402 73.6942 55.9574 75.5752C54.9648 76.7545 53.896 77.8018 52.6527 78.416C51.2084 79.1294 49.7712 79.1456 48.433 78.6973C47.3206 78.3245 46.2988 77.6277 45.5228 77.0928C44.7548 76.5633 44.0012 76.0231 43.0863 75.4561L42.684 75.2119C40.3922 73.8458 38.6383 73.19 37.2455 72.9111C28.3305 83.8238 26.6861 95.1248 26.2865 97.4277C26.0502 98.7878 24.7561 99.6989 23.3959 99.4629C23.3031 99.4468 23.2128 99.4241 23.1244 99.3984C22.3006 99.3506 21.5179 98.8987 21.0853 98.125C20.6903 97.4184 20.3705 96.5071 20.1107 95.7871C19.8201 94.9818 19.5205 94.1576 19.1234 93.3047C18.4286 91.8122 17.4604 90.2915 15.8851 89.0059C13.1886 89.5997 11.8532 89.9164 10.5092 90.5928C9.04869 91.3278 7.47223 92.5501 4.38024 95.376C3.36121 96.3071 1.77947 96.2355 0.848018 95.2168C0.459105 94.7912 0.246693 94.2669 0.203487 93.7334C0.0637101 93.4072 -0.0111001 93.047 0.00133809 92.6689C0.0340854 91.6738 0.158505 87.8942 1.16442 83.2969C2.1628 78.7342 4.07715 73.1402 7.83239 68.6602L8.7572 67.5664C12.1156 63.6273 14.6297 61.0694 17.1371 58.9883C15.9049 58.1382 14.3752 57.1864 12.4291 55.999C11.3226 55.3238 10.4086 54.4434 9.80505 53.3203C9.2012 52.1963 9.01541 51.0286 9.05017 49.9482C9.11424 47.9575 9.9592 45.9441 10.6254 44.415C11.3821 42.6781 12.0599 41.2554 12.4642 39.8066C12.8332 38.4843 12.8589 37.4967 12.5912 36.6797C12.5643 36.6391 12.5166 36.5681 12.4388 36.4629C12.2285 36.1781 11.978 35.8677 11.6146 35.4043C10.9603 34.5699 10.0394 33.3661 9.3861 32.0137C8.73746 30.6707 8.15476 28.7774 8.74353 26.7227C9.35252 24.5975 10.9919 23.0454 13.184 21.9521C14.8457 21.1235 15.9666 20.5869 16.8627 20.0811C17.7247 19.5943 18.131 19.2671 18.3842 18.9834C18.8719 18.4365 19.2861 17.5352 19.9174 13.9053C20.3522 11.404 21.1051 9.39883 22.2504 7.90137C23.4535 6.3285 24.9711 5.47528 26.5492 5.15039C28.0277 4.84612 29.4055 5.03741 30.3744 5.23438C30.8632 5.33377 31.3253 5.45199 31.6468 5.53223C32.0203 5.62541 32.1718 5.65733 32.2416 5.66699C34.2354 5.93499 35.4477 5.76677 36.2718 5.50195C37.1122 5.23184 37.7889 4.79159 38.723 4.08496C39.6035 3.41889 40.8513 2.39375 42.4437 1.58984C44.1168 0.745315 46.1173 0.151811 48.7318 0.00488281L48.9095 0ZM76.891 61.3643C76.2446 63.9402 76.5743 66.2507 76.5531 66.8428L76.555 66.8438C76.4737 68.7099 75.9062 70.4844 74.4974 71.7207C73.12 72.9294 71.4689 73.1528 70.2494 73.1182C69.6526 73.1012 69.0683 73.0191 68.5267 72.9111C72.5325 79.0577 74.8527 85.2332 76.1742 89.7861C77.1983 87.9735 78.6778 86.0627 80.9457 84.459C81.3675 84.1607 81.85 84.0118 82.3304 84.001C82.7196 83.8873 83.142 83.8679 83.5658 83.9609C86.5447 84.6152 88.7018 85.0473 90.847 86.127C91.7839 86.5984 92.6991 87.1805 93.6888 87.9219C93.5395 86.8395 93.337 85.637 93.059 84.3662C92.1429 80.1795 90.4637 75.4749 87.4437 71.8721C82.7744 66.3035 79.9706 63.6226 76.891 61.3643ZM20.9134 62.3604C18.3021 64.4434 15.6695 67.0956 11.6644 71.8721C8.64448 75.4749 6.96527 80.1795 6.04919 84.3662C5.77114 85.637 5.56762 86.8394 5.41833 87.9219C6.40826 87.1803 7.32407 86.5985 8.2611 86.127C10.4064 85.0473 12.5634 84.6152 15.5424 83.9609C15.9659 83.868 16.3878 83.8875 16.7767 84.001C17.2574 84.0116 17.7403 84.1604 18.1625 84.459C20.404 86.0441 21.8741 87.9299 22.8968 89.7236C24.1537 85.4099 26.3951 79.6359 30.4359 73.6865C29.2164 73.9048 27.7947 73.9961 26.1771 73.5684C25.0528 73.2709 24.2011 72.3503 23.9925 71.2061C23.1278 66.462 22.2291 64.0967 20.9134 62.3604ZM48.7084 6.01953C47.0807 6.15078 45.9885 6.52141 45.1468 6.94629C44.1643 7.44237 43.4499 8.03211 42.3422 8.87012C41.2881 9.66748 39.9487 10.6219 38.1068 11.2139C36.2483 11.811 34.1079 11.9724 31.4437 11.6143C30.9897 11.5531 30.5145 11.4343 30.1947 11.3545C29.8184 11.2606 29.508 11.1811 29.1791 11.1143C28.5119 10.9786 28.0672 10.9637 27.7582 11.0273C27.5489 11.0705 27.3124 11.1593 27.016 11.5469C26.6613 12.0107 26.1667 12.9871 25.8285 14.9326C25.2349 18.3462 24.6522 20.9693 22.8607 22.9775C21.9742 23.9712 20.9195 24.6804 19.8119 25.3057C18.7379 25.912 17.3779 26.5652 15.8617 27.3213C15.2208 27.641 14.8763 27.9203 14.7006 28.1035C14.5406 28.2703 14.5151 28.361 14.5111 28.375C14.502 28.407 14.4409 28.6836 14.7884 29.4033C15.1318 30.1142 15.6834 30.87 16.3353 31.7012C16.6249 32.0704 16.9867 32.5203 17.266 32.8984C17.4752 33.1818 17.8268 33.6674 18.0765 34.2295L18.1771 34.4756C19.097 36.9592 18.81 39.3901 18.2435 41.4199C17.6943 43.3881 16.7621 45.3514 16.1263 46.8105C15.4001 48.4776 15.0688 49.4719 15.0472 50.1416C15.0393 50.3902 15.0838 50.4668 15.0912 50.4805C15.0992 50.4954 15.1791 50.6475 15.555 50.877C19.8042 53.4695 23.0764 55.485 25.3793 58.3301C27.4004 60.8271 28.5403 63.7691 29.4222 67.7734C29.4913 67.7607 29.5628 67.7476 29.6361 67.7324C30.0857 67.6391 30.5241 67.5217 31.1361 67.3672C31.7125 67.2217 32.3914 67.0577 33.14 66.9346C36.4084 66.3969 40.2499 66.7752 45.7562 70.0576C47.0763 70.8447 48.1532 71.6181 48.9281 72.1523C49.5799 72.6017 49.9407 72.8219 50.1586 72.9307C50.3689 72.7759 50.758 72.4338 51.3656 71.7119L51.7279 71.2969C55.5447 67.0715 61.7455 64.7862 66.7552 66.1445C67.0839 66.2335 67.4633 66.3629 67.7533 66.4609C68.0809 66.5716 68.4002 66.6795 68.7338 66.7803C69.4285 66.9902 69.9969 67.109 70.4193 67.1211C70.4477 67.1219 70.4745 67.1183 70.4984 67.1182C70.5233 66.9997 70.5503 66.827 70.5609 66.583V66.5703C70.5242 67.3315 69.2827 58.0985 75.5189 52.1455C75.8194 51.8587 76.1438 51.6666 76.2289 51.6152C76.3771 51.5257 76.5387 51.4372 76.6742 51.3633C76.9803 51.1963 77.2603 51.0485 77.6166 50.8477C78.3134 50.4548 79.0267 50.0059 79.5941 49.5098C80.1922 48.9868 80.3742 48.6312 80.4125 48.4932C80.4228 48.4559 80.4246 48.4342 80.4154 48.3896C80.4038 48.3334 80.354 48.1531 80.1332 47.8457C77.8689 44.6932 76.632 41.9663 76.305 39.457C75.9626 36.8289 76.6602 34.7737 77.5941 33.1309C78.0351 32.3552 78.5333 31.664 78.9408 31.1055C79.3793 30.5044 79.6991 30.0738 79.9691 29.6348C80.439 28.8707 80.5568 28.3982 80.475 27.834C80.4264 27.8001 80.3412 27.7463 80.2015 27.6777C79.9003 27.5298 79.5057 27.3842 78.9144 27.1846C78.3777 27.0034 77.6469 26.7678 76.9349 26.4863C75.4688 25.9067 73.676 24.9859 72.2699 23.1787C70.8476 21.3504 70.075 18.9481 69.9867 15.8682C69.8629 11.5425 69.2265 10.6743 68.9281 10.4297C68.8324 10.4247 68.6063 10.4279 68.1849 10.5107C67.2734 10.6901 66.3005 11.0472 64.8597 11.5049C63.5984 11.9056 61.9448 12.3898 60.2943 12.4053C58.4993 12.422 56.5059 11.8795 54.9808 10.082C54.1273 9.07596 53.9133 8.57808 52.9769 7.82129C52.2185 7.20838 50.964 6.47851 48.7084 6.01953Z" fill="white"/>
</svg>
