<svg width="100" height="100" viewBox="0 0 100 100" fill="none" xmlns="http://www.w3.org/2000/svg">
<path d="M36.2655 5.87692C36.3991 4.27442 37.1288 2.78074 38.3099 1.69215C39.4911 0.603552 41.0375 -0.000429332 42.6422 2.28976e-07H56.3578C59.6843 2.28976e-07 62.4581 2.55385 62.7345 5.87692L63.2104 11.6051C67.8675 13.2718 72.1306 15.7692 75.8205 18.9077L81.015 16.4564C82.467 15.7702 84.1234 15.6561 85.6554 16.1368C87.1874 16.6175 88.4831 17.6578 89.2852 19.0513L96.143 30.9487C96.9454 32.3414 97.1961 33.9855 96.8453 35.5547C96.4946 37.124 95.568 38.5038 94.2494 39.4205L89.536 42.7026C90.4065 47.5284 90.4065 52.4716 89.536 57.2974L94.2494 60.5795C95.568 61.4962 96.4946 62.876 96.8453 64.4453C97.1961 66.0145 96.9454 67.6586 96.143 69.0513L89.2852 80.9487C88.4831 82.3422 87.1874 83.3825 85.6554 83.8632C84.1234 84.3439 82.467 84.2298 81.015 83.5436L75.8205 81.0923C72.0865 84.2621 67.8155 86.7354 63.2104 88.3949L62.7345 94.1231C62.6009 95.7256 61.8712 97.2193 60.6901 98.3079C59.5089 99.3964 57.9626 100 56.3578 100H42.6422C41.0375 100 39.4911 99.3964 38.3099 98.3079C37.1288 97.2193 36.3991 95.7256 36.2655 94.1231L35.7896 88.3949C31.1845 86.7354 26.9135 84.2621 23.1795 81.0923L17.985 83.5436C16.533 84.2298 14.8766 84.3439 13.3446 83.8632C11.8126 83.3825 10.5169 82.3422 9.71476 80.9487L2.857 69.0513C2.05461 67.6586 1.80392 66.0145 2.15467 64.4453C2.50542 62.876 3.43198 61.4962 4.75056 60.5795L9.46399 57.2974C8.59346 52.4716 8.59346 47.5284 9.46399 42.7026L4.75568 39.4205C3.4371 38.5038 2.51054 37.124 2.15979 35.5547C1.80904 33.9855 2.05972 32.3414 2.86212 30.9487L9.71988 19.0513C10.5219 17.6591 11.8167 16.6197 13.3475 16.139C14.8784 15.6584 16.5336 15.7717 17.985 16.4564L23.1795 18.9077C26.9135 15.7379 31.1845 13.2646 35.7896 11.6051L36.2655 5.87692ZM43.8193 7.69231L43.0107 17.4513L40.4519 18.1795C35.2183 19.6755 30.4359 22.4468 26.5316 26.2462L24.6227 28.0923L15.7742 23.9179L10.0935 33.7744L18.1283 39.359L17.4835 41.9385C16.1668 47.2319 16.1668 52.7682 17.4835 58.0615L18.1283 60.641L10.0935 66.2256L15.7742 76.0821L24.6278 71.9026L26.5316 73.7538C30.4359 77.5532 35.2183 80.3245 40.4519 81.8205L43.0107 82.5487L43.8193 92.3077H55.1807L55.9944 82.5487L58.5481 81.8205C63.7817 80.3245 68.5641 77.5532 72.4684 73.7538L74.3773 71.9077L83.2258 76.0821L88.9065 66.2256L80.8768 60.641L81.5216 58.0615C82.8476 52.7676 82.8476 47.2273 81.5216 41.9333L80.8768 39.359L88.9065 33.7744L83.2258 23.9179L74.3722 28.0974L72.4684 26.2462C68.5641 22.4468 63.7817 19.6755 58.5481 18.1795L55.9893 17.4513L55.1807 7.69231H43.8193ZM59.4745 44.2308C58.7184 42.9182 57.7117 41.7678 56.5119 40.8451C55.3121 39.9224 53.9427 39.2455 52.4819 38.8531C51.021 38.4607 49.4974 38.3605 47.9979 38.5582C46.4984 38.7558 45.0524 39.2475 43.7426 40.0051C42.4327 40.7628 41.2846 41.7715 40.3638 42.9737C39.4429 44.176 38.7675 45.5482 38.3759 47.012C37.9843 48.4759 37.8843 50.0026 38.0815 51.5052C38.2788 53.0078 38.7695 54.4567 39.5255 55.7692C41.0525 58.42 43.5678 60.3544 46.5181 61.1469C49.4684 61.9394 52.6121 61.525 55.2574 59.9949C57.9028 58.4648 59.8333 55.9443 60.6241 52.988C61.415 50.0316 61.0014 46.8816 59.4745 44.2308ZM39.9043 33.3436C44.3128 30.7934 49.5517 30.1026 54.4686 31.423C59.3854 32.7435 63.5774 35.9671 66.1224 40.3846C68.6673 44.8022 69.3568 50.0518 68.039 54.9788C66.7213 59.9057 63.5043 64.1063 59.0957 66.6564C54.6872 69.2066 49.4483 69.8974 44.5314 68.577C39.6146 67.2565 35.4226 64.0329 32.8776 59.6154C30.3327 55.1978 29.6432 49.9482 30.961 45.0212C32.2787 40.0943 35.4957 35.8937 39.9043 33.3436Z" fill="white"/>
</svg>
