<svg width="87" height="97" viewBox="0 0 87 97" fill="none" xmlns="http://www.w3.org/2000/svg">
<path d="M49.3008 41.453C50.9576 41.453 52.3008 42.7962 52.3008 44.453C52.3007 46.1098 50.9576 47.453 49.3008 47.453H37.3008C35.644 47.453 34.3008 46.1098 34.3008 44.453C34.3008 42.7962 35.6439 41.453 37.3008 41.453H49.3008Z" fill="white"/>
<path fill-rule="evenodd" clip-rule="evenodd" d="M38.3008 1.33974C41.3948 -0.446579 45.2068 -0.446579 48.3008 1.33974L81.6025 20.5663C84.6963 22.3527 86.6025 25.654 86.6025 29.2265V67.6796L86.5967 68.0136C86.4819 71.4568 84.5996 74.6092 81.6025 76.3397L48.3008 95.5663L48.0088 95.7284C45.0673 97.2985 41.5342 97.2985 38.5928 95.7284L38.3008 95.5663L4.99902 76.3397C2.00193 74.6092 0.119615 71.4568 0.00488281 68.0136L0 67.6796V29.2265C2.24267e-05 25.7655 1.78826 22.5592 4.71289 20.7382L4.99902 20.5663L38.3008 1.33974ZM63.6748 34.2645C62.894 34.0667 61.8745 34.0198 60.2168 34.1542C57.1141 34.4057 51.7293 35.3621 44.2451 35.4989C43.995 35.5034 43.7508 35.4801 43.5146 35.4345C43.2788 35.48 43.0349 35.5034 42.7852 35.4989C35.301 35.3621 29.9161 34.4057 26.8135 34.1542C25.1558 34.0198 24.1363 34.0667 23.3555 34.2645C22.6641 34.4397 21.971 34.7821 21.0986 35.6034C19.0757 37.5083 18.7591 39.4091 18.9902 40.9559C19.2587 42.7518 20.2621 44.0488 20.7305 44.3895L21.0176 44.58C22.4553 45.4469 23.9436 45.0576 24.832 44.2323C25.0946 43.9884 25.2077 43.7927 25.2578 43.6806C25.1949 43.6252 25.0922 43.548 24.9287 43.453C23.2573 42.4822 22.6895 40.3403 23.6602 38.6688C24.631 36.9974 26.7729 36.4294 28.4443 37.4003C30.7854 38.7602 32.2791 40.9337 32.2988 43.5429C32.3168 45.9393 31.0807 47.9826 29.5967 49.3612C29.2025 49.7274 28.7663 50.0656 28.2979 50.3729C28.2985 50.3995 28.3008 50.4263 28.3008 50.453V80.5546L34.3008 84.0184V55.453C34.3008 53.7962 35.6439 52.453 37.3008 52.453C38.9576 52.453 40.3008 53.7962 40.3008 55.453V87.4823L42.3008 88.6376C42.9196 88.9948 43.682 88.9948 44.3008 88.6376L46.3008 87.4823V55.453C46.3008 53.7962 47.6439 52.453 49.3008 52.453C50.9576 52.453 52.3008 53.7962 52.3008 55.453V84.0184L58.3008 80.5546V50.0751C57.9944 49.8505 57.704 49.6124 57.4336 49.3612C55.9495 47.9826 54.7135 45.9393 54.7314 43.5429C54.7512 40.9337 56.2448 38.7602 58.5859 37.4003C60.2574 36.4294 62.3992 36.9974 63.3701 38.6688C64.3408 40.3403 63.773 42.4822 62.1016 43.453C61.9381 43.548 61.8354 43.6252 61.7725 43.6806C61.8226 43.7927 61.9357 43.9884 62.1982 44.2323C63.0867 45.0576 64.575 45.4469 66.0127 44.58L66.2998 44.3895C66.7682 44.0488 67.7716 42.7518 68.04 40.9559C68.2711 39.4091 67.9545 37.5083 65.9316 35.6034C65.0593 34.7821 64.3662 34.4397 63.6748 34.2645ZM44.3008 8.26845C43.682 7.91118 42.9196 7.91118 42.3008 8.26845L8.99902 27.494C8.38037 27.8513 8.00002 28.512 8 29.2265V67.6796C8.00006 68.394 8.38037 69.0547 8.99902 69.412L22.3008 77.0907V52.0673C20.4243 52.0005 18.465 51.3971 16.6133 50.0507C14.4658 48.4887 12.5813 45.4353 12.0664 41.9911C11.5144 38.2972 12.5197 34.0662 16.2998 30.5067C17.9198 28.9814 19.6431 27.9843 21.6357 27.4794C23.5389 26.9971 25.4717 27.023 27.3789 27.1776C31.4066 27.5041 35.6052 28.3663 42.9131 28.4999C43.1186 28.5037 43.3195 28.5258 43.5146 28.5634C43.7101 28.5256 43.9113 28.5037 44.1172 28.4999C51.425 28.3663 55.6236 27.5041 59.6514 27.1776C61.5586 27.023 63.4914 26.9971 65.3945 27.4794C67.3872 27.9843 69.1104 28.9814 70.7305 30.5067C74.5106 34.0662 75.5159 38.2972 74.9639 41.9911C74.449 45.4353 72.5645 48.4887 70.417 50.0507C68.4237 51.5001 66.3059 52.0887 64.3008 52.0731V77.0907L77.6025 69.412C78.2212 69.0547 78.6025 68.394 78.6025 67.6796V29.2265C78.6025 28.512 78.2212 27.8513 77.6025 27.494L44.3008 8.26845Z" fill="white"/>
</svg>
