<svg width="101" height="101" viewBox="0 0 101 101" fill="none" xmlns="http://www.w3.org/2000/svg">
<path d="M43.3481 75.3421C36.2801 73.7721 29.4232 74.8641 24.1022 54.4541C18.4312 32.7041 29.5981 37.0571 30.8771 37.7271C35.2611 40.0201 35.1701 40.2251 40.0841 40.6711C45.4501 41.1591 45.4522 55.8991 28.3412 49.6441" stroke="white" stroke-width="5" stroke-miterlimit="1.5" stroke-linecap="round" stroke-linejoin="round"/>
<path d="M33.0532 37.4262C33.6492 27.6492 37.2282 29.6591 45.5552 24.5431C47.5052 23.3441 50.2633 26.3081 50.6313 26.6281C54.6303 30.1061 55.1852 28.4642 60.4722 27.9312C62.8332 30.8492 62.4073 34.3251 66.4583 34.7731C73.3123 35.5311 70.0483 39.4082 74.4583 44.4772C76.1303 46.3992 80.7013 51.6532 68.1963 75.6932C64.2103 83.3562 54.2902 77.8702 52.0842 77.2082" stroke="white" stroke-width="5" stroke-miterlimit="1.5" stroke-linecap="round" stroke-linejoin="round"/>
<path d="M37.5732 75.342C28.9772 85.268 30.7854 86.443 23.2144 97.156" stroke="white" stroke-width="5" stroke-miterlimit="1.5" stroke-linecap="round" stroke-linejoin="round"/>
<path d="M59.6702 79.8621C61.7502 82.2921 62.0111 82.7612 59.4731 97.4412" stroke="white" stroke-width="4.17" stroke-miterlimit="1.5" stroke-linecap="round" stroke-linejoin="round"/>
<path d="M42.5952 40.6898C44.7322 34.8028 48.0432 34.0589 49.7332 32.9109" stroke="white" stroke-width="4.17" stroke-miterlimit="1.5" stroke-linecap="round" stroke-linejoin="round"/>
<path d="M39.8332 52.2408C39.5512 56.9558 46.2191 56.7299 46.5531 56.4219C51.0341 52.3019 53.5452 39.3798 61.5392 38.1638" stroke="white" stroke-width="4.17" stroke-miterlimit="1.5" stroke-linecap="round" stroke-linejoin="round"/>
<path d="M47.8682 56.7611C59.1282 64.8861 58.0803 50.1751 67.9973 46.0281" stroke="white" stroke-width="4.17" stroke-miterlimit="1.5" stroke-linecap="round" stroke-linejoin="round"/>
<path d="M55.6523 60.025C56.2843 60.478 62.2112 64.731 65.2402 61.59C68.7262 57.976 68.0022 57.399 71.8752 54.095" stroke="white" stroke-width="3.33" stroke-miterlimit="1.5" stroke-linecap="round" stroke-linejoin="round"/>
<path d="M23.5112 85.889C13.5612 79.775 12.1302 80.205 10.5142 71.574" stroke="white" stroke-width="3.33" stroke-miterlimit="1.5" stroke-linecap="round" stroke-linejoin="round"/>
<path d="M10.2021 70.822C11.7751 72.171 11.7862 72.4499 19.2432 73.0289" stroke="white" stroke-width="3.33" stroke-miterlimit="1.5" stroke-linecap="round" stroke-linejoin="round"/>
<path d="M18.9912 72.8308C14.0562 67.7588 13.1742 68.6758 9.19116 62.7928C3.33816 54.1478 2.19519 54.3659 1.66919 43.9539" stroke="white" stroke-width="3.33" stroke-miterlimit="1.5" stroke-linecap="round" stroke-linejoin="round"/>
<path d="M1.66528 43.4519C4.86628 49.0699 7.51626 49.2679 9.96826 50.2819" stroke="white" stroke-width="3.33" stroke-miterlimit="1.5" stroke-linecap="round" stroke-linejoin="round"/>
<path d="M10.2022 50.4829C5.88521 38.5199 5.17028 37.7138 12.5743 22.4338" stroke="white" stroke-width="3.33" stroke-miterlimit="1.5" stroke-linecap="round" stroke-linejoin="round"/>
<path d="M12.4622 22.3601C13.8542 29.9911 14.2474 31.5471 18.6204 34.6071" stroke="white" stroke-width="3.33" stroke-miterlimit="1.5" stroke-linecap="round" stroke-linejoin="round"/>
<path d="M18.2383 34.4119C17.7673 23.4099 28.4252 25.5399 28.0752 6.03687" stroke="white" stroke-width="3.33" stroke-miterlimit="1.5" stroke-linecap="round" stroke-linejoin="round"/>
<path d="M28.2822 6.03784C36.9512 6.51084 41.1303 13.9189 41.3503 14.5989" stroke="white" stroke-width="3.33" stroke-miterlimit="1.5" stroke-linecap="round" stroke-linejoin="round"/>
<path d="M42.0933 15.329C46.2453 9.30798 56.2932 1.81404 67.7092 1.66504" stroke="white" stroke-width="3.33" stroke-miterlimit="1.5" stroke-linecap="round" stroke-linejoin="round"/>
<path d="M67.9564 3.02515C67.3324 15.2621 70.7114 14.3191 78.3914 23.9611C84.1994 31.2531 86.4434 42.2781 86.7894 43.9801" stroke="white" stroke-width="3.33" stroke-miterlimit="1.5" stroke-linecap="round" stroke-linejoin="round"/>
<path d="M86.7893 44.9589C87.4883 44.0499 93.4583 36.2829 91.1663 31.3079" stroke="white" stroke-width="3.33" stroke-miterlimit="1.5" stroke-linecap="round" stroke-linejoin="round"/>
<path d="M91.0583 31.1479C92.4373 32.2739 100.046 36.574 98.0142 49.491C96.8312 57.011 88.3982 60.4689 85.4822 62.1799" stroke="white" stroke-width="3.33" stroke-miterlimit="1.5" stroke-linecap="round" stroke-linejoin="round"/>
<path d="M85.7852 63.2889C93.6922 61.1849 94.2232 61.584 98.1772 59.377" stroke="white" stroke-width="3.33" stroke-miterlimit="1.5" stroke-linecap="round" stroke-linejoin="round"/>
<path d="M98.3403 60.0251C98.2703 61.3261 99.0112 70.8121 80.6162 81.0311" stroke="white" stroke-width="3.33" stroke-miterlimit="1.5" stroke-linecap="round" stroke-linejoin="round"/>
<path d="M80.2603 81.118C86.6113 80.339 86.4613 80.155 92.6633 78.592" stroke="white" stroke-width="3.33" stroke-miterlimit="1.5" stroke-linecap="round" stroke-linejoin="round"/>
<path d="M62.1812 98.444C75.3702 88.297 85.6204 94.281 92.1934 79.697" stroke="white" stroke-width="3.33333" stroke-miterlimit="1.5" stroke-linecap="round" stroke-linejoin="round"/>
<path d="M50.1282 15.078C54.4092 11.32 55.2282 9.20005 61.9312 8.35205" stroke="white" stroke-width="2.08" stroke-miterlimit="1.5" stroke-linecap="round" stroke-linejoin="round"/>
<path d="M78.2512 9.05103C82.3042 16.446 82.5333 16.2079 87.5273 24.9819" stroke="white" stroke-width="2.08" stroke-miterlimit="1.5" stroke-linecap="round" stroke-linejoin="round"/>
<path d="M78.0002 9.80396C78.1752 13.007 77.5332 20.516 87.1042 25.479" stroke="white" stroke-width="2.08" stroke-miterlimit="1.5" stroke-linecap="round" stroke-linejoin="round"/>
<path d="M37.5732 98.1929C40.5612 91.7479 40.4263 91.7668 42.8643 85.0378" stroke="white" stroke-width="2.08" stroke-miterlimit="1.5" stroke-linecap="round" stroke-linejoin="round"/>
<path d="M43.3481 97.4388C43.9161 96.0628 46.3902 90.0648 49.8962 80.0168" stroke="white" stroke-width="2.08" stroke-miterlimit="1.5" stroke-linecap="round" stroke-linejoin="round"/>
<path d="M34.8805 40.9978C33.7015 45.6418 33.6875 46.2238 33.9985 46.4978C36.0825 48.3318 39.9985 46.4978 41.4985 45.4978" stroke="white" stroke-width="2.08" stroke-miterlimit="1.5" stroke-linecap="round" stroke-linejoin="round"/>
</svg>
