<svg width="100" height="100" viewBox="0 0 100 100" fill="none" xmlns="http://www.w3.org/2000/svg">
<path d="M26.4078 48.8054C29.0191 47.6841 32.2023 46.914 34.9029 48.0486C37.4251 49.1082 39.6655 51.0082 39.5387 54.0408C39.5055 54.8316 39.3028 55.5572 39.026 56.2009C41.9182 56.3484 44.3729 56.9486 46.4195 57.9685C49.9385 59.7223 51.9304 62.5569 52.8433 65.6199C53.7293 68.5926 53.5938 71.7235 53.0738 74.3494C52.5571 76.9584 51.6 79.375 50.5367 80.9763C46.1294 87.6132 39.4144 90.8579 33.9478 92.4255C31.1938 93.2153 28.6776 93.603 26.7838 93.7791C26.3986 93.8149 26.0359 93.8399 25.6998 93.8601C25.5343 94.0547 25.3435 94.2331 25.1236 94.3855C24.9764 94.4875 24.8229 94.5739 24.6656 94.6462C24.1544 96.1023 23.3996 97.3589 22.3238 98.3084C20.4346 99.9755 18.1203 100.221 16.0621 99.7742C14.0869 99.3456 12.1735 98.2665 10.4898 96.9832C8.77516 95.6761 7.12695 94.0267 5.67733 92.2351C2.85401 88.7456 0.418762 84.258 0.0484278 80.1912C-0.142062 78.0989 0.194454 75.8059 1.68612 73.9216C3.04011 72.2115 5.02579 71.2429 7.35312 70.8591C8.43378 64.5671 13.1389 58.4827 17.9742 54.2869C20.6729 51.9451 23.6217 50.0019 26.4078 48.8054ZM58.1988 75.9363C59.7716 75.4155 61.4689 76.2679 61.9898 77.8406C62.4239 79.1511 62.4135 79.2096 67.106 94.0466C67.6056 95.6262 66.7305 97.3125 65.151 97.8123C63.5713 98.3119 61.885 97.4359 61.3853 95.8562C56.6656 80.933 56.7124 80.989 56.2945 79.7273C55.7737 78.1545 56.6261 76.4573 58.1988 75.9363ZM9.08749 76.6687C8.99169 76.6883 8.89379 76.7043 8.79452 76.7146C7.17767 76.8831 6.60239 77.3783 6.39022 77.6462C6.15929 77.9381 5.92108 78.5165 6.02401 79.6472C6.24082 82.0273 7.86693 85.4011 10.3424 88.4607C11.5419 89.9432 12.8535 91.2405 14.1275 92.2117C15.4325 93.2063 16.539 93.7384 17.3336 93.9109C18.0447 94.0651 18.2514 93.9009 18.3541 93.8103C18.5619 93.6269 19.0437 93.0054 19.3404 91.3298C14.7762 84.8632 13.5163 83.6292 9.08749 76.6687ZM64.4527 65.2957C65.7634 64.2823 67.6473 64.5231 68.6607 65.8337C72.0245 70.1841 73.7487 73.1531 75.7623 76.366C77.7505 79.5383 80.1346 83.1406 84.941 89.0086C85.9906 90.2902 85.8024 92.1803 84.5211 93.2302C83.2394 94.2801 81.3493 94.0919 80.2994 92.8103C75.311 86.7201 72.7812 82.9078 70.6783 79.5525C68.6008 76.2377 67.0554 73.5655 63.9146 69.5037C62.9011 68.193 63.142 66.3092 64.4527 65.2957ZM32.5787 53.5798C32.2362 53.4362 31.0411 53.346 28.775 54.3191C26.6832 55.2174 24.2528 56.7834 21.9068 58.8191C17.3998 62.7302 13.9242 67.7224 13.2418 72.0105C18.3998 80.2299 19.1387 80.6254 24.2701 87.907C24.298 87.907 24.3275 87.9092 24.358 87.9089C24.7965 87.9055 25.4351 87.8791 26.2281 87.8054C27.816 87.6578 29.957 87.328 32.2935 86.658C37.009 85.3057 42.214 82.6618 45.5377 77.657C46.0734 76.8501 46.7868 75.2099 47.1881 73.1834C47.5861 71.1735 47.6161 69.0879 47.0933 67.3337C46.5975 65.6701 45.6054 64.2666 43.7437 63.3386C41.7838 62.3619 38.5638 61.7691 33.4058 62.4724C33.3031 62.4864 33.2006 62.4944 33.0992 62.4978C32.6634 62.8193 32.2359 63.127 31.8277 63.4138C30.1971 64.5596 29.0551 65.2962 28.3785 65.8396C27.0868 66.8764 25.199 66.6701 24.1617 65.3787C23.1244 64.0871 23.3305 62.1995 24.6217 61.1619C25.4924 60.4626 27.0667 59.4264 28.3785 58.5046C29.8295 57.4851 31.2416 56.4222 32.2828 55.3953C32.8001 54.885 33.1514 54.4549 33.3619 54.117C33.3858 54.0786 33.4033 54.0408 33.4215 54.0086C33.298 53.9266 33.1173 53.8228 32.857 53.7019L32.5787 53.5798ZM72.9137 59.031C73.7775 57.6172 75.6248 57.1712 77.0387 58.0349C77.4866 58.3086 77.8121 58.541 78.2183 58.8259C78.6277 59.113 79.2084 59.5189 80.2476 60.2087C82.3404 61.5978 86.2956 64.142 94.4058 69.1599C95.8144 70.0317 96.2499 71.88 95.3785 73.2888C94.5067 74.6977 92.6576 75.1332 91.2486 74.2615C83.1198 69.2321 79.102 66.6493 76.9303 65.2078C75.8378 64.4827 75.2129 64.0468 74.774 63.739C74.3322 63.4292 74.166 63.3125 73.9098 63.156C72.496 62.2922 72.05 60.4448 72.9137 59.031ZM79.3375 1.68824C81.1231 0.00391269 83.3563 -0.258021 85.3316 0.199959C87.1922 0.631499 88.9578 1.70509 90.4771 2.94312C92.0318 4.20994 93.5172 5.8029 94.8199 7.52418C97.361 10.8818 99.5364 15.1784 99.8668 19.0545C100.035 21.0333 99.7439 23.2238 98.3922 25.0496C97.0362 26.8806 94.9654 27.8717 92.5426 28.1824C91.4354 34.4454 86.7506 40.4959 81.9361 44.6736C79.2374 47.0154 76.2887 48.9586 73.5025 50.155C70.8912 51.2763 67.708 52.0464 65.0074 50.9119C63.7384 50.3787 62.5241 49.6452 61.6851 48.5574C60.7473 47.3411 60.4503 45.9001 60.7525 44.4939C60.792 44.3102 60.8407 44.1315 60.8971 43.9578C58.1451 43.4565 55.8448 42.5936 53.9654 41.3884C50.7723 39.3407 49.043 36.4749 48.3433 33.4441C47.6629 30.4962 47.9682 27.4791 48.6217 24.9197C49.2769 22.3536 50.3363 20.0357 51.3922 18.3943C55.7859 11.5646 62.4947 8.20845 67.9801 6.58472C70.7395 5.76796 73.261 5.36649 75.1598 5.18433L75.1607 5.18336C75.3256 4.97448 75.5195 4.78267 75.7447 4.61793C76.3257 4.19309 77.0086 4.00776 77.6754 4.04371C78.0969 3.14245 78.6419 2.34453 79.3375 1.68824ZM76.7682 11.0779C76.4629 11.0946 76.1161 11.1202 75.733 11.157C74.15 11.3088 72.0145 11.6486 69.6832 12.3386C64.9866 13.7289 59.7755 16.4527 56.4381 21.6404C55.7407 22.7246 54.9354 24.4451 54.4351 26.4041C53.9332 28.37 53.7914 30.3672 54.19 32.0945C54.5697 33.7388 55.4472 35.2106 57.2047 36.3377C58.901 37.4253 61.6141 38.3127 65.8766 38.449C67.2406 37.4963 68.7146 36.607 69.9879 35.8513C71.796 34.7782 73.0019 34.078 73.5601 33.6296C74.8519 32.5925 76.7405 32.7989 77.7779 34.0906C78.815 35.3823 78.6085 37.271 77.317 38.3084C76.3279 39.1027 74.5651 40.1115 73.0504 41.0105C71.7001 41.8119 70.3395 42.6409 69.1715 43.4675C68.9056 43.7645 68.5818 44.0061 68.2174 44.1785C67.7131 44.5789 67.322 44.9382 67.0367 45.2478C67.0444 45.2515 67.0523 45.2558 67.0601 45.2595L67.3316 45.3806C67.6743 45.5242 68.8696 45.6143 71.1353 44.6414C73.2272 43.743 75.6574 42.1771 78.0035 40.1414C82.8324 35.9511 86.4778 30.5196 86.7721 26.0427C86.7964 25.6715 86.8897 25.3216 87.0348 25.0017C82.5151 18.2433 81.6116 17.5846 76.7682 11.0779ZM12.6588 31.7996C13.4942 30.3689 15.3315 29.8861 16.7623 30.7214C22.9133 34.3125 22.8316 34.2555 28.9898 37.782C30.4273 38.6054 30.9253 40.4391 30.1021 41.8767C29.2788 43.3141 27.446 43.8119 26.0084 42.989C19.8449 39.4595 19.9094 39.5067 13.7369 35.9031C12.3061 35.0677 11.8234 33.2304 12.6588 31.7996ZM19.4937 11.7752C20.7849 10.7371 22.6733 10.9423 23.7115 12.2332C31.3693 21.7583 31.5744 21.6421 39.0728 31.4959C40.0758 32.8143 39.8199 34.6967 38.5016 35.7C37.1831 36.703 35.3007 36.4471 34.2975 35.1287C26.8583 25.3528 26.8216 25.6773 19.0357 15.9929C17.9979 14.7017 18.2027 12.8133 19.4937 11.7752ZM38.8004 5.20386C40.3723 4.68078 42.0711 5.53134 42.5943 7.10328C42.9041 8.03372 43.2466 8.96442 43.609 9.94703C43.8765 10.6725 44.1553 11.4276 44.4234 12.197L44.6881 12.9714V12.9734C44.9386 13.7277 44.9243 13.7025 47.7057 22.283C48.2161 23.8588 47.3526 25.5503 45.7769 26.0613C44.2009 26.5722 42.5086 25.7086 41.9976 24.1326C39.2037 15.5131 39.2354 15.5916 38.9937 14.864L38.9947 14.863C38.6852 13.9335 38.3421 13.0039 37.9801 12.0222C37.6233 11.0548 37.2461 10.0345 36.901 8.99781C36.3779 7.42585 37.2284 5.72714 38.8004 5.20386ZM83.526 6.0066C83.5178 6.00828 83.5046 6.00546 83.4547 6.0525C83.2979 6.20051 82.805 6.85575 82.5465 8.78004C86.4779 13.9884 87.8288 15.3719 92.3355 22.1365C93.1536 21.9469 93.4519 21.6399 93.5709 21.4793C93.7601 21.2233 93.9832 20.6676 93.8892 19.5642C93.6941 17.2737 92.2356 14.051 90.0357 11.1443C88.968 9.73358 87.8058 8.50687 86.6861 7.59449C85.5317 6.65392 84.5948 6.18813 83.9771 6.04469C83.6946 5.97917 83.5575 5.9999 83.526 6.0066Z" fill="white"/>
</svg>
