<svg width="100" height="100" viewBox="0 0 100 100" fill="none" xmlns="http://www.w3.org/2000/svg">
<path d="M89.9449 66.4524H10.0504V89.9506H89.9449V66.4524ZM96.7462 61.6212L96.8449 61.9126L96.953 62.3825L97 62.8525V93.4753C96.9997 94.3284 96.6898 95.1525 96.128 95.7946C95.5662 96.4368 94.7905 96.8533 93.9448 96.9671L93.4748 97H6.52518C5.67332 97 4.85028 96.6915 4.20829 96.1317C3.56629 95.5718 3.14875 94.7985 3.0329 93.9546L3 93.4753V62.9277L3.0094 62.6833L3.0564 62.2791C3.11071 62.0339 3.18458 61.7935 3.27731 61.5601L16.25 33.273C16.4947 32.7383 16.8693 32.2732 17.3397 31.9203C17.8101 31.5673 18.3613 31.3376 18.9432 31.2522L19.4508 31.2193L31.3894 31.2146L27.6762 37.6531L27.3613 38.264H21.7069L12.0151 59.403H87.9332L78.4059 38.9784L82.4575 31.943C82.774 32.1811 83.0434 32.4694 83.2659 32.8077L83.515 33.2542L96.7462 61.6212ZM56.4182 3.27057L56.8506 3.48205L81.2354 17.595C82.7771 18.488 83.3881 20.3725 82.7348 21.9798L82.5233 22.4122L69.3297 45.3041H74.6786C75.5781 45.2949 76.4471 45.63 77.1076 46.2406C77.7681 46.8512 78.1701 47.6912 78.2314 48.5885C78.2927 49.4859 78.0085 50.3727 77.4372 51.0674C76.8658 51.7621 76.0504 52.2121 75.158 52.3253L74.6786 52.3582L65.2687 52.3535V52.3676H46.0965L46.0824 52.3535H25.3261C24.4385 52.3452 23.5868 52.0024 22.9409 51.3936C22.2951 50.7848 21.9027 49.9548 21.8422 49.0693C21.7816 48.1839 22.0574 47.3082 22.6144 46.6172C23.1713 45.9262 23.9685 45.4707 24.8467 45.3417L25.3261 45.3088L33.8946 45.3041L33.0392 44.8106C32.3024 44.3836 31.745 43.7043 31.4703 42.8982C31.1955 42.0922 31.2219 41.2139 31.5445 40.4258L31.7513 39.9935L52.0423 4.76505C52.9353 3.21887 54.8154 2.60322 56.4182 3.26117M56.3712 11.3445L39.6101 40.4634L47.9671 45.3041H61.2077L74.6739 21.9328L56.3712 11.3445Z" fill="white"/>
</svg>
