<svg width="100" height="100" viewBox="0 0 100 100" fill="none" xmlns="http://www.w3.org/2000/svg">
<g clip-path="url(#clip0_79_311)">
<path d="M33.5809 47.3092C34.5774 48.3117 36.1924 48.3113 37.1883 47.3082C38.1844 46.3049 38.1838 44.678 37.1873 43.6751L33.1076 39.5694C32.1111 38.5665 30.4952 38.567 29.4992 39.5704C28.5036 40.5737 28.5039 42.1998 29.5002 43.2025L33.5809 47.3092Z" fill="white"/>
<path d="M53.7327 66.288C54.7291 67.2904 56.3441 67.2901 57.3401 66.287C58.3361 65.2837 58.3355 63.6567 57.3391 62.6538L53.2593 58.5481C52.2628 57.5452 50.647 57.5458 49.6509 58.5491C48.6553 59.5524 48.6557 61.1785 49.6519 62.1813L53.7327 66.288Z" fill="white"/>
<path d="M65.1674 55.7321C66.1636 56.7351 67.7795 56.7351 68.7758 55.7321C69.7717 54.729 69.7717 53.1029 68.7758 52.0999L65.6497 48.9524C64.6535 47.9496 63.0385 47.9496 62.0423 48.9524C61.046 49.9555 61.046 51.5824 62.0423 52.5855L65.1674 55.7321Z" fill="white"/>
<path d="M22.0158 34.7214C23.0121 35.7244 24.627 35.7244 25.6232 34.7214C26.6194 33.7183 26.6194 32.0923 25.6232 31.0892L19.9052 25.332C18.909 24.329 17.2941 24.329 16.2978 25.332C15.3016 26.335 15.3016 27.961 16.2978 28.9641L22.0158 34.7214Z" fill="white"/>
<path d="M42.7091 35.7938C43.7054 36.7969 45.3212 36.7969 46.3175 35.7938C47.3135 34.7908 47.3135 33.1647 46.3175 32.1617L20.0214 5.68419C19.0252 4.68125 17.4103 4.68124 16.414 5.68419C15.4178 6.68724 15.4179 8.31321 16.414 9.31633L42.7091 35.7938Z" fill="white"/>
<path d="M11.7406 45.0814C12.7369 46.0845 14.3517 46.0845 15.348 45.0814L25.5254 34.8342C26.5217 33.8311 26.5217 32.2051 25.5254 31.202C24.5292 30.1989 22.9143 30.1989 21.918 31.202L11.7406 41.4493C10.7443 42.4524 10.7443 44.0783 11.7406 45.0814Z" fill="white"/>
<path d="M18.7585 53.5446C19.7547 54.5476 21.3696 54.5476 22.3659 53.5446L31.7092 44.1381C32.7055 43.135 32.7055 41.5081 31.7092 40.505C30.713 39.5019 29.0971 39.5019 28.1008 40.505L18.7585 49.9124C17.7622 50.9155 17.7622 52.5415 18.7585 53.5446Z" fill="white"/>
<path d="M9.62696 35.1813C10.6232 36.1844 12.2381 36.1844 13.2343 35.1813L19.4287 28.9444C20.4249 27.9413 20.425 26.3154 19.4287 25.3123C18.4324 24.3092 16.8176 24.3092 15.8213 25.3123L9.62696 31.5491C8.6307 32.5522 8.6307 34.1782 9.62696 35.1813Z" fill="white"/>
<path d="M3.90915 25.646C4.90545 26.6489 6.52037 26.649 7.51655 25.646L12.2081 20.9212C13.2043 19.918 13.2044 18.292 12.2081 17.289C11.2119 16.2861 9.59694 16.2861 8.60076 17.289L3.90915 22.0138C2.91305 23.017 2.91297 24.643 3.90915 25.646Z" fill="white"/>
<path d="M7.98585 35.8043C9.08707 36.2987 11.3337 36.9634 13.0681 35.3989L13.2345 35.2404L13.4099 35.0448C14.2269 34.0359 14.1684 32.5476 13.2345 31.6073C12.4146 30.7818 11.1764 30.6376 10.2081 31.1708C10.1661 31.1541 10.1178 31.1365 10.0646 31.1126C9.47206 30.8466 8.6679 30.2627 7.93503 29.4591C7.19561 28.6483 6.72975 27.8345 6.56781 27.2347C6.49188 26.9534 6.50521 26.8045 6.51399 26.7581C6.51739 26.7402 6.51633 26.7266 6.56382 26.6788C7.55979 25.6758 7.55986 24.0497 6.56382 23.0467C5.56766 22.0436 3.95276 22.0437 2.95643 23.0467C1.29579 24.7184 1.17806 26.8559 1.64402 28.5822C2.09004 30.2344 3.09995 31.7535 4.17617 32.9337C5.25903 34.1211 6.61083 35.1869 7.98585 35.8043Z" fill="white"/>
<path d="M17.0771 54.2203C18.2028 54.6622 20.4351 55.2269 22.1255 53.6996L22.2879 53.545L22.4633 53.3504C23.2805 52.3416 23.2217 50.8534 22.2879 49.9129C21.4456 49.0648 20.1628 48.9367 19.1838 49.5226C19.1163 49.5022 19.0324 49.4732 18.9306 49.4333C18.2855 49.18 17.4271 48.6224 16.6466 47.86C15.8534 47.0852 15.3604 46.3145 15.1847 45.766C15.1186 45.5596 15.1188 45.4475 15.121 45.4109C15.1256 45.4054 15.1316 45.3982 15.1399 45.3898C16.1362 44.3868 16.137 42.7598 15.1409 41.7566C14.1447 40.7535 12.5288 40.7536 11.5325 41.7566C9.84442 43.4562 9.77542 45.616 10.3287 47.3433C10.8502 48.971 11.9527 50.4325 13.094 51.5474C14.2483 52.6748 15.6653 53.6661 17.0771 54.2203Z" fill="white"/>
<path d="M17.0771 54.2203C18.2028 54.6622 20.4351 55.2269 22.1255 53.6996L22.2879 53.545L22.4633 53.3504C23.2805 52.3416 23.2217 50.8534 22.2879 49.9129C21.4456 49.0648 20.1628 48.9367 19.1838 49.5226C19.1163 49.5022 19.0324 49.4732 18.9306 49.4333C18.2855 49.18 17.4271 48.6224 16.6466 47.86C15.8534 47.0852 15.3604 46.3145 15.1847 45.766C15.1186 45.5596 15.1188 45.4475 15.121 45.4109C15.1256 45.4054 15.1316 45.3982 15.1399 45.3898C16.1362 44.3868 16.137 42.7598 15.1409 41.7566C14.1447 40.7535 12.5288 40.7536 11.5325 41.7566C9.84442 43.4562 9.77542 45.616 10.3287 47.3433C10.8502 48.971 11.9527 50.4325 13.094 51.5474C14.2483 52.6748 15.6653 53.6661 17.0771 54.2203Z" fill="white"/>
<path d="M7.72031 19.4821C8.71657 20.4851 10.3324 20.4851 11.3287 19.4821C12.3247 18.479 12.3247 16.853 11.3287 15.8499C10.3664 14.881 10.2089 14.0134 10.3132 13.2884C10.4338 12.4514 10.9623 11.4873 11.8887 10.6525C12.8109 9.82168 13.9374 9.29563 14.9451 9.1726C15.8993 9.05616 16.6622 9.29419 17.251 9.88699C18.2473 10.8899 19.8622 10.89 20.8584 9.88699C21.8545 8.88394 21.8544 7.25792 20.8584 6.25485C18.9769 4.36049 16.5631 3.79994 14.3302 4.07255C12.1508 4.33872 10.079 5.38999 8.48663 6.82475C6.89854 8.25568 5.59592 10.2454 5.26389 12.5509C4.91578 14.9682 5.68404 17.4316 7.72031 19.4821Z" fill="white"/>
<path d="M53.3203 92.4756C57.8482 93.9273 63.4495 93.3209 69.8256 90.0605C71.0817 89.4181 71.5826 87.8717 70.9447 86.607C70.3067 85.3422 68.7709 84.8379 67.5147 85.4802C61.9584 88.3213 57.7676 88.5096 54.8689 87.5802C51.9852 86.6557 49.9959 84.5067 49.0004 81.8511C46.9559 76.3968 49.2237 69.507 56.2391 67.7048C57.6043 67.3541 58.4289 65.9549 58.0807 64.5804C57.7323 63.2061 56.3435 62.3768 54.9785 62.7272C44.4566 65.4299 41.3221 75.9178 44.2261 83.6652C45.7049 87.6103 48.7775 91.0191 53.3203 92.4756Z" fill="white"/>
<path d="M78.6027 98.3577C83.4277 99.5165 88.4972 98.3118 92.4494 95.6296C96.4133 92.9392 99.4429 88.6284 99.9312 83.3836C100.424 78.0916 98.2906 72.3229 92.85 66.8102C91.8568 65.8041 90.2409 65.7993 89.2416 66.7992C88.2424 67.7991 88.2377 69.4251 89.2306 70.4313C93.8761 75.1384 95.1699 79.4777 94.851 82.904C94.5275 86.3776 92.5061 89.3968 89.5983 91.3703C86.6787 93.3519 83.0553 94.1451 79.7866 93.36C76.6149 92.5981 73.4836 90.2816 71.5255 85.4255C70.9955 84.1111 69.5075 83.4781 68.2021 84.0117C66.8967 84.5454 66.268 86.0436 66.798 87.3579C69.3174 93.6061 73.681 97.1755 78.6027 98.3577Z" fill="white"/>
<path d="M88.445 70.8162C89.5184 71.7352 91.1287 71.6039 92.0415 70.5232C99.4563 61.7436 97.2852 50.1935 90.7988 44.3337C87.4945 41.3486 82.9969 39.775 78.1082 40.8741C73.2712 41.9617 68.4772 45.5655 64.2297 52.0344C63.453 53.2177 63.7761 54.811 64.9512 55.5933C66.1265 56.3756 67.7098 56.0502 68.4868 54.8669C72.277 49.0947 76.0831 46.5933 79.2203 45.8879C82.3054 45.1943 85.1571 46.1397 87.3907 48.1574C91.9805 52.3037 93.6411 60.6994 88.1541 67.1961C87.2418 68.2767 87.372 69.8973 88.445 70.8162Z" fill="white"/>
<path d="M44.7391 40.6644C45.7353 39.6613 47.3502 39.6614 48.3465 40.6644C49.3428 41.6675 49.3428 43.2934 48.3465 44.2965L5.36075 87.5782C4.3645 88.5813 2.74962 88.5813 1.75336 87.5782C0.757093 86.5751 0.757108 84.9492 1.75336 83.9461L44.7391 40.6644Z" fill="white"/>
<path d="M53.3861 47.4872C54.3823 46.4841 55.9982 46.4841 56.9945 47.4872C57.9904 48.4902 57.9904 50.1163 56.9945 51.1193L12.8388 95.5779C11.8426 96.5807 10.2276 96.5807 9.23139 95.5779C8.23513 94.5748 8.23513 92.9479 9.23139 91.9448L53.3861 47.4872Z" fill="white"/>
<path d="M88.8561 1.57308C89.121 1.80328 89.3448 2.09029 89.5022 2.43036C89.851 3.18473 89.8014 4.02099 89.4457 4.70556C88.9374 6.24143 88.2482 7.91014 81.9336 26.5971C81.656 27.4186 80.9874 28.0406 80.1606 28.2568L79.9928 28.294C71.0915 29.9881 66.1876 31.8557 65.0992 32.2689C64.1794 32.618 63.1864 32.3961 62.5004 31.7798C61.8059 31.1742 61.4593 30.2114 61.6845 29.2486C61.9513 28.1082 63.1594 22.9716 63.6807 13.8663L63.6958 13.694C63.8022 12.8406 64.3286 12.0929 65.102 11.7098C82.6755 3.0053 84.244 2.09418 85.69 1.38904C86.3189 0.943682 87.139 0.786839 87.9285 1.03844C88.2836 1.15175 88.5952 1.33816 88.8561 1.57308ZM82.6495 8.68537C79.9508 10.0483 75.681 12.1894 68.6782 15.6608C68.3765 20.0907 67.9226 23.5506 67.5146 26.0342C69.9081 25.3067 73.2573 24.4076 77.5814 23.5355C80.0981 16.0955 81.6549 11.5555 82.6495 8.68537Z" fill="white"/>
<path d="M1.52683 84.4552C2.5231 83.4521 4.13799 83.4521 5.13422 84.4552C6.13038 85.4582 6.13038 87.0842 5.13422 88.0873C5.11685 88.1048 5.10731 88.1175 5.10233 88.1244C5.0994 88.145 5.08852 88.2586 5.16312 88.4897C5.33187 89.0122 5.81449 89.7482 6.60608 90.4372C7.38926 91.1188 8.24379 91.5524 8.91301 91.6903C9.54433 91.8205 9.7235 91.6579 9.79095 91.59C10.7872 90.5871 12.4021 90.587 13.3983 91.59C14.3945 92.5931 14.3944 94.2191 13.3983 95.2222C11.7676 96.8641 9.64727 97.0855 7.88959 96.7232C6.16981 96.3687 4.54493 95.4339 3.26974 94.3241C2.00305 93.2218 0.848504 91.7423 0.311078 90.078C-0.256307 88.3207 -0.155198 86.1487 1.52683 84.4552Z" fill="white"/>
<path d="M61.9795 37.6955L58.5973 41.5418L53.8051 37.2698C52.9612 36.5176 51.6608 36.6088 50.9136 37.4582C50.213 38.2549 50.2285 39.4574 50.9289 40.2244L51.0775 40.3716L55.8698 44.6436L56.0338 44.775C56.8748 45.3816 58.0615 45.251 58.762 44.4545C59.5089 43.6048 59.4412 42.294 58.5973 41.5418L61.9795 37.6955C64.9726 40.3636 65.1617 44.9258 62.5821 47.8598C60.0021 50.7938 55.4808 51.1581 52.4877 48.4899L47.6954 44.218C44.7022 41.5498 44.5135 36.9869 47.0935 34.0529C49.6735 31.1191 54.1941 30.7554 57.1872 33.4235L61.9795 37.6955Z" fill="white"/>
<path d="M56.4902 30.9186C55.9265 31.7079 55.9918 32.7931 56.6466 33.5077L56.7952 33.6549L61.5875 37.9269L61.7515 38.0583C62.5353 38.6257 63.6132 38.5598 64.3229 37.9009L64.4684 37.7505L64.9216 37.2352C65.6687 36.3855 65.5903 35.0868 64.7464 34.3345L68.1285 30.4882C71.0822 33.1212 71.3567 37.6666 68.7417 40.6405L68.2885 41.1559C65.6734 44.1295 61.159 44.4061 58.2054 41.7732L53.4131 37.5012C50.4595 34.8683 50.1852 30.3229 52.7999 27.3489L53.2531 26.8336C55.8682 23.8596 60.3825 23.5832 63.3362 26.2162L68.1285 30.4882L64.7464 34.3345L59.9541 30.0625C59.1102 29.3102 57.8204 29.3892 57.0732 30.2389L56.62 30.7543L56.4902 30.9186Z" fill="white"/>
<circle cx="62" cy="76" r="6" fill="white"/>
<circle cx="79" cy="60" r="6" fill="white"/>
<circle cx="81" cy="79" r="6" fill="white"/>
</g>
<defs>
<clipPath id="clip0_79_311">
<rect width="100" height="100" fill="white"/>
</clipPath>
</defs>
</svg>
