<svg width="100" height="94" viewBox="0 0 100 94" fill="none" xmlns="http://www.w3.org/2000/svg">
<path d="M50.2683 0.000214198C51.075 -0.0113233 51.8445 0.462689 52.1668 1.25392C53.0198 3.34874 54.5649 5.95242 55.0146 9.24596C55.2539 10.9985 55.2069 12.9488 54.7521 15.2494C55.9612 14.4389 57.1281 13.7735 58.3177 13.3231C61.0571 12.2863 63.7779 12.4025 67.2853 13.6014C69.6416 14.407 71.3944 15.1601 72.8299 15.805C74.3005 16.4658 75.2969 16.9449 76.321 17.3059C78.1656 17.9561 80.12 18.2263 84.6973 17.6087C85.8005 17.4602 86.8167 18.2333 86.9661 19.335C87.0327 19.8274 86.9127 20.3017 86.6638 20.6897C86.4175 21.355 85.8268 21.8708 85.0751 21.9849C84.6202 22.0538 84.184 22.1187 83.7659 22.1811C86.9734 31.3452 89.6902 38.2886 92.164 44.5403C94.7873 51.17 97.149 57.0615 99.5051 63.9761C99.6161 64.3025 99.6376 64.6375 99.5844 64.9553C99.8441 65.2943 100 65.7171 100 66.1769C99.9999 66.7036 99.7958 67.1812 99.4644 67.5401C98.5683 69.4463 95.3933 75.9762 86.0149 77.3197C78.8005 78.3532 73.8461 77.1452 70.2012 74.9104C66.6535 72.7352 64.5269 69.6595 62.9376 67.6533C62.2847 66.8293 62.3814 65.6526 63.1303 64.943C63.1466 64.8048 63.1771 64.666 63.2238 64.5289C65.5799 57.6143 67.9415 51.7229 70.5648 45.0931C73.0321 38.858 75.7391 31.9346 78.9355 22.8066C77.5534 22.9319 76.3622 22.9641 75.1724 22.8773C72.5688 22.6872 70.0169 21.9353 65.5275 20.6652C62.3953 19.7788 59.4197 20.7129 56.9699 22.15C54.9675 23.3247 53.4749 24.7491 52.776 25.4649C53.1497 29.7955 54.0351 32.4056 54.8002 34.8757C55.3159 36.5407 55.8126 38.2466 56.0215 40.3302C56.231 42.4198 56.1444 44.8072 55.6012 47.9043L55.5275 48.2722C55.3215 49.1733 54.7719 50.6637 52.6363 53.937C53.1566 56.3543 53.7477 58.2254 54.2902 59.9291C54.854 61.7 55.4029 63.4033 55.6645 65.2685C56.1871 68.9959 55.5318 73.0852 52.742 80.2186C53.732 81.5521 56.742 85.0133 63.6809 87.2013C64.4064 87.4302 67.2371 88.0993 70.2201 88.7229C71.6884 89.0299 73.1524 89.3171 74.3582 89.5248C75.6408 89.7456 76.4362 89.8405 76.6941 89.837C77.8073 89.8221 78.7225 90.711 78.7381 91.8228C78.7501 92.709 78.1858 93.4672 77.393 93.7472C77.104 93.9071 76.772 93.9999 76.4182 94H50.3825C50.2522 94 50.1244 93.9868 50.0009 93.9632C49.8779 93.9867 49.7502 94 49.6203 94H23.5846C23.2304 93.9999 22.8981 93.9074 22.6089 93.7472C21.8163 93.467 21.2527 92.7089 21.2648 91.8228C21.2803 90.7109 22.1954 89.8219 23.3088 89.837C23.5669 89.8404 24.3623 89.7456 25.6447 89.5248C26.8505 89.3171 28.3145 89.0299 29.7828 88.7229C32.766 88.0993 35.5968 87.4302 36.3219 87.2013C43.2594 85.0137 46.2703 81.5535 47.2608 80.2196C44.4707 73.0854 43.8157 68.9961 44.3383 65.2685C44.5999 63.4033 45.1489 61.6999 45.7127 59.9291C46.2551 58.2255 46.8454 56.3541 47.3656 53.937C45.23 50.6638 44.6813 49.1733 44.4753 48.2722L44.4016 47.9043C43.8585 44.8072 43.7719 42.4199 43.9813 40.3302C44.1902 38.2466 44.6869 36.5407 45.2026 34.8757C45.9677 32.4057 46.8522 29.7953 47.2258 25.4649C46.527 24.7491 45.0352 23.3247 43.033 22.15C40.5832 20.7128 37.6076 19.779 34.4753 20.6652C29.9859 21.9353 27.434 22.6872 24.8305 22.8773C23.6394 22.9643 22.4465 22.9322 21.0626 22.8066C24.2591 31.9348 26.9679 38.8579 29.4352 45.0931C32.0585 51.7229 34.4201 57.6143 36.7762 64.5289C36.8229 64.6659 36.8524 64.8049 36.8688 64.943C37.6181 65.6526 37.7154 66.8291 37.0624 67.6533C35.4731 69.6595 33.3464 72.7352 29.7988 74.9104C26.154 77.1452 21.1995 78.3531 13.9851 77.3197C4.6062 75.9762 1.43054 69.4458 0.534618 67.5401C0.203488 67.1813 6.60629e-05 66.7033 0 66.1769C0 65.717 0.154866 65.2934 0.414659 64.9544C0.361672 64.6369 0.383991 64.3021 0.494947 63.9761C2.85102 57.0615 5.21267 51.17 7.83603 44.5403C10.3098 38.2887 13.0257 31.345 16.2331 22.1811C15.816 22.1188 15.3815 22.0537 14.9277 21.9849C14.1745 21.8707 13.5818 21.354 13.3362 20.6869C13.0886 20.2994 12.9703 19.8262 13.0367 19.335C13.1862 18.2332 14.2022 17.46 15.3056 17.6087C19.8827 18.2263 21.8372 17.9561 23.6819 17.3059C24.7058 16.9449 25.7024 16.4657 27.1729 15.805C28.6084 15.1601 30.3614 14.4069 32.7175 13.6014C36.2249 12.4025 38.9457 12.2861 41.6851 13.3231C43.0768 13.85 44.4368 14.671 45.8704 15.6749C45.3342 13.1878 45.268 11.1054 45.5219 9.24596C45.9716 5.95241 47.5167 3.34874 48.3697 1.25392C48.6921 0.462641 49.4614 -0.0115585 50.2683 0.000214198ZM5.5502 68.191C7.00839 70.2094 9.67113 72.6321 14.5575 73.3322C21.025 74.2586 24.9918 73.1311 27.6887 71.4776C29.2234 70.5365 30.4083 69.3978 31.4603 68.191H5.5502ZM68.5388 68.191C69.5909 69.3979 70.7763 70.5364 72.3113 71.4776C75.0082 73.1311 78.9749 74.2586 85.4425 73.3322C90.3289 72.6321 92.9916 70.2094 94.4498 68.191H68.5388ZM16.9028 32.2315C14.973 37.4347 13.2228 41.8872 11.5869 46.0214C9.09834 52.3103 6.88797 57.8313 4.69538 64.1629H16.9028V32.2315ZM20.9361 64.1629H32.3841C30.2542 58.061 28.1002 52.6794 25.6843 46.5742C24.2095 42.8471 22.6445 38.8606 20.9361 34.2994V64.1629ZM79.0639 34.2994C77.3555 38.8606 75.7905 42.8471 74.3157 46.5742C71.8998 52.6794 69.7458 58.061 67.6159 64.1629H79.0639V34.2994ZM83.0972 64.1629H95.3046C93.112 57.8313 90.9017 52.3103 88.4131 46.0214C86.7771 41.8867 85.0273 37.4335 83.0972 32.2297V64.1629Z" fill="white"/>
</svg>
