<svg width="100" height="101" viewBox="0 0 100 101" fill="none" xmlns="http://www.w3.org/2000/svg">
<path d="M38.2571 75.4196C47.9801 74.8236 47.9379 75.3876 62.7639 75.4196" stroke="white" stroke-width="5" stroke-miterlimit="1.5" stroke-linecap="round" stroke-linejoin="round"/>
<path d="M38.0558 75.219C35.9978 57.358 25.092 60.7959 24.631 43.0779C24.206 26.7559 36.8528 13.2509 53.3468 15.1379" stroke="white" stroke-width="5" stroke-miterlimit="1.5" stroke-linecap="round" stroke-linejoin="round"/>
<path d="M53.323 15.3569C57.3 15.5949 92.8649 24.7539 70.3679 60.7339C70.2739 60.8849 64.458 68.5069 63.739 73.2249C63.637 73.8899 63.755 74.5979 63.531 75.2329C63.463 75.4249 63.2821 74.5189 63.2151 74.7109" stroke="white" stroke-width="5" stroke-miterlimit="1.5" stroke-linecap="round" stroke-linejoin="round"/>
<path d="M51.5149 2.5C51.5439 3.031 51.4979 3.02295 51.7109 9.14795" stroke="white" stroke-width="5" stroke-miterlimit="1.5" stroke-linecap="round" stroke-linejoin="round"/>
<path d="M79.2371 18.3699C84.1751 13.0759 86.3109 11.0409 86.9519 10.4299" stroke="white" stroke-width="5" stroke-miterlimit="1.5" stroke-linecap="round" stroke-linejoin="round"/>
<path d="M88.0759 46.4929C88.7669 46.4729 94.9059 46.293 96.7229 46.229" stroke="white" stroke-width="5" stroke-miterlimit="1.5" stroke-linecap="round" stroke-linejoin="round"/>
<path d="M77.228 73.0098C77.93 73.6398 77.8679 73.6766 85.8489 81.0576" stroke="white" stroke-width="5" stroke-miterlimit="1.5" stroke-linecap="round" stroke-linejoin="round"/>
<path d="M14.3521 80.8442C14.9691 80.1442 18.675 75.9412 21.918 71.9502" stroke="white" stroke-width="5" stroke-miterlimit="1.5" stroke-linecap="round" stroke-linejoin="round"/>
<path d="M2.5 44.4839C7.393 44.4839 7.30907 44.6589 12.1431 44.5269" stroke="white" stroke-width="5" stroke-miterlimit="1.5" stroke-linecap="round" stroke-linejoin="round"/>
<path d="M15.155 9.12891C17.928 11.7029 22.252 15.8799 22.865 16.4719" stroke="white" stroke-width="5" stroke-miterlimit="1.5" stroke-linecap="round" stroke-linejoin="round"/>
<path d="M35.2429 46.0918C35.3739 40.1008 35.2081 30.449 50.7161 28.908" stroke="white" stroke-width="5" stroke-miterlimit="1.5" stroke-linecap="round" stroke-linejoin="round"/>
<path d="M42.676 92.4946C43.5 98.7216 48.6749 97.8038 53.5239 97.7178C59.5269 97.6108 59.515 94.1005 60.106 90.6855" stroke="white" stroke-width="5" stroke-miterlimit="1.5" stroke-linecap="round" stroke-linejoin="round"/>
<path d="M39.4619 81.8486C45.9609 81.9746 61.677 81.8395 61.835 81.8525C62.976 81.9515 62.7931 89.0226 62.7771 89.6506" stroke="white" stroke-width="5" stroke-miterlimit="1.5" stroke-linecap="round" stroke-linejoin="round"/>
<path d="M39.2109 82.6016C39.2109 83.2336 39.2111 90.2217 40.0391 90.4617C42.7051 91.2347 53.9909 89.8997 62.8169 90.5537" stroke="white" stroke-width="5" stroke-miterlimit="1.5" stroke-linecap="round" stroke-linejoin="round"/>
</svg>
