<svg width="95" height="96" viewBox="0 0 95 96" fill="none" xmlns="http://www.w3.org/2000/svg">
<path fill-rule="evenodd" clip-rule="evenodd" d="M1.10379e-06 38.25C1.10379e-06 33.6967 3.36108 30 7.50191 30H32.4981C36.6382 30 40 33.6967 40 38.25V54.75C40 59.3033 36.6382 63 32.4981 63H7.50191C3.36108 63 1.10379e-06 59.3033 1.10379e-06 54.75V38.25ZM5.00065 38.25V54.75C5.00065 56.2681 6.12113 57.4996 7.50191 57.4996H32.4981C33.8781 57.4996 34.9984 56.2681 34.9984 54.75V38.25C34.9984 36.7319 33.8781 35.5004 32.4981 35.5004H7.50191C6.12113 35.5004 5.00065 36.7319 5.00065 38.25Z" fill="white"/>
<path fill-rule="evenodd" clip-rule="evenodd" d="M55 8.24998C55 3.69673 58.3611 0 62.5019 0H87.4981C91.6382 0 95 3.69673 95 8.24998V24.75C95 29.3033 91.6382 33 87.4981 33H62.5019C58.3611 33 55 29.3033 55 24.75V8.24998ZM60.0007 8.24998V24.75C60.0007 26.2681 61.1211 27.4996 62.5019 27.4996H87.4981C88.8781 27.4996 89.9984 26.2681 89.9984 24.75V8.24998C89.9984 6.73186 88.8781 5.50036 87.4981 5.50036H62.5019C61.1211 5.50036 60.0007 6.73186 60.0007 8.24998Z" fill="white"/>
<path fill-rule="evenodd" clip-rule="evenodd" d="M55 71.25C55 66.6967 58.3611 63 62.5019 63H87.4981C91.6382 63 95 66.6967 95 71.25V87.75C95 92.3033 91.6382 96 87.4981 96H62.5019C58.3611 96 55 92.3033 55 87.75V71.25ZM60.0007 71.25V87.75C60.0007 89.2681 61.1211 90.4996 62.5019 90.4996H87.4981C88.8781 90.4996 89.9984 89.2681 89.9984 87.75V71.25C89.9984 69.7319 88.8781 68.5004 87.4981 68.5004H62.5019C61.1211 68.5004 60.0007 69.7319 60.0007 71.25Z" fill="white"/>
<path d="M57.1467 15.6553C39.7147 15.6553 57.8528 47.0002 38.5498 47.0002" stroke="white" stroke-width="6" stroke-miterlimit="1.5" stroke-linecap="round" stroke-linejoin="round"/>
<path d="M57.1467 80.0005C39.7147 80.0005 57.8528 47.6555 38.5498 47.6555" stroke="white" stroke-width="6" stroke-miterlimit="1.5" stroke-linecap="round" stroke-linejoin="round"/>
<path d="M9.30566 50.7C13.3287 44.808 17.7869 42.498 18.3589 44.478C18.4149 44.673 17.7447 51.688 21.8667 50.584C25.0177 49.74 25.37 46.173 30 44" stroke="white" stroke-width="6" stroke-miterlimit="1.5" stroke-linecap="round" stroke-linejoin="round"/>
<path d="M64.4277 19.0411C67.6177 14.6401 76.3017 10.2641 76.7017 14.7081C77.1987 20.2401 79.7988 16.4011 84.7178 13.8311" stroke="white" stroke-width="6" stroke-miterlimit="1.5" stroke-linecap="round" stroke-linejoin="round"/>
<path d="M64.4639 83.0023C64.7849 82.4193 67.5739 77.3602 70.4209 77.1882C71.3969 77.1292 71.2298 81.9792 72.4988 81.8522C73.2408 81.7772 72.5058 80.5723 80.4478 76.9893C79.5738 82.1803 80.5147 82.6102 80.9397 82.8052C83.1367 83.8102 85.4327 82.0343 85.7427 81.7943" stroke="white" stroke-width="6" stroke-miterlimit="1.5" stroke-linecap="round" stroke-linejoin="round"/>
</svg>
