<svg width="100" height="96" viewBox="0 0 100 96" fill="none" xmlns="http://www.w3.org/2000/svg">
<path d="M85.2526 62.894C88.3533 55.4952 89.0666 47.3069 87.2925 39.48C85.5183 31.6531 81.3458 24.5812 75.3615 19.2582C69.3772 13.9353 61.8819 10.629 53.9292 9.80411C45.9765 8.97918 37.9663 10.6771 31.0244 14.6592L26.2775 6.32252C33.5326 2.16066 41.7474 -0.0192407 50.1031 0.000127952C58.4588 0.0194966 66.6635 2.23746 73.8993 6.43291C95.3631 18.878 103.585 45.5151 93.5848 67.7222L100 71.4418L80.0851 82.0679L79.2963 59.4431L85.2526 62.894ZM14.7426 33.1084C11.6408 40.5078 10.9268 48.697 12.701 56.5249C14.4751 64.3528 18.6482 71.4256 24.6335 76.7489C30.6187 82.0722 38.1152 85.3783 46.0689 86.2023C54.0227 87.0264 62.0336 85.3271 68.9756 81.3432L73.7177 89.6799C66.4622 93.841 58.2472 96.0201 49.8915 95.9999C41.5358 95.9797 33.3313 93.7609 26.0959 89.5647C4.63215 77.1196 -3.59004 50.4873 6.41522 28.2753L0 24.5653L19.9101 13.9345L20.6989 36.5592L14.7426 33.1084Z" fill="white"/>
<path d="M37 58.1022C37.2689 61.155 38.7276 63.9817 41.0639 65.977C43.4002 67.9723 46.4284 68.9776 49.5 68.7777C59.5826 68.7777 62 63.0029 62 58.1022C62 53.2015 57.8316 48.0077 49.5 48.0077C41.1684 48.0077 37 44.7269 37 38.0418C37.1157 35.7253 37.9373 33.4988 39.3556 31.6587C40.7738 29.8187 42.7214 28.4524 44.939 27.7416C46.4112 27.2685 47.9607 27.0988 49.5 27.2428C52.5755 27.1098 55.5854 28.1551 57.9104 30.1637C60.2355 32.1724 61.699 34.9917 62 38.0418M49.5 75V69.5954M49.5 21V27.2223" stroke="white" stroke-width="8" stroke-linecap="round" stroke-linejoin="round"/>
</svg>
