<svg width="100" height="100" viewBox="0 0 100 100" fill="none" xmlns="http://www.w3.org/2000/svg">
<path d="M68.4661 27.9068C68.3346 22.2959 73.3956 11.7809 83.5943 17.1242" stroke="white" stroke-width="4" stroke-miterlimit="1.5" stroke-linecap="round" stroke-linejoin="round"/>
<path d="M83.9723 17.0527C77.2923 23.189 93.3993 38.3915 71.6524 47.1235C57.3403 52.8702 45.8427 43.7941 45 41.5159" stroke="white" stroke-width="4" stroke-miterlimit="1.5" stroke-linecap="round" stroke-linejoin="round"/>
<path d="M45.0959 41.6404C46.0058 41.6779 52.3047 41.9368 56.0886 38.6836" stroke="white" stroke-width="4" stroke-miterlimit="1.5" stroke-linecap="round" stroke-linejoin="round"/>
<path d="M56.1719 38.6504C53.1389 36.4465 50.4986 31.3748 50.1497 27.2377C49.4431 18.8626 52.3623 14.7162 53.3173 12.9722" stroke="white" stroke-width="4" stroke-miterlimit="1.5" stroke-linecap="round" stroke-linejoin="round"/>
<path d="M53.4027 12.9546C54.9051 26.1652 66.2584 27.748 67.9135 27.9789" stroke="white" stroke-width="4" stroke-miterlimit="1.5" stroke-linecap="round" stroke-linejoin="round"/>
<path d="M67.8015 27.9071C67.6025 27.7914 65.413 26.8465 64.74 23.8988C62.7707 15.2732 63.2673 12.8065 63.4623 11.6099" stroke="white" stroke-width="4" stroke-miterlimit="1.5" stroke-linecap="round" stroke-linejoin="round"/>
<path d="M56.2826 20.4856C56.7176 19.3991 56.9739 17.4482 59.813 14.051C61.524 12.0035 63.452 11.4017 63.8241 11.2856" stroke="white" stroke-width="4" stroke-miterlimit="1.5" stroke-linecap="round" stroke-linejoin="round"/>
<path d="M89.1807 24.5603C88.8131 24.23 86.2931 21.9649 87.1233 18.7351C88.0179 15.255 88.9639 14.7564 86.3391 12.3208" stroke="white" stroke-width="3" stroke-miterlimit="1.5" stroke-linecap="round" stroke-linejoin="round"/>
<path d="M86.3499 12.1631C85.5525 12.2978 79.4425 13.3296 82.4029 2.85498" stroke="white" stroke-width="3" stroke-miterlimit="1.5" stroke-linecap="round" stroke-linejoin="round"/>
<path d="M86.3501 12.0249C89.2741 9.26797 86.7956 6.5475 82.2633 2" stroke="white" stroke-width="3" stroke-miterlimit="1.5" stroke-linecap="round" stroke-linejoin="round"/>
<path d="M88.4271 15.2095C88.8585 14.5825 91.4434 10.826 97.1921 11.5089" stroke="white" stroke-width="3" stroke-miterlimit="1.5" stroke-linecap="round" stroke-linejoin="round"/>
<path d="M88.1499 15.7626C92.6328 20.2692 96.0601 14.1857 97.6368 11.9336" stroke="white" stroke-width="3" stroke-miterlimit="1.5" stroke-linecap="round" stroke-linejoin="round"/>
<circle cx="76.251" cy="22.3152" r="2.5774" fill="white"/>
<path d="M18.427 24.8022C8.15491 24.8022 7.08926 8 16.2466 8C20.5257 8 23.6365 12.8946 22.062 21.1356C16.763 48.854 8.46553 78.5872 22 89.5C25.9064 92.6502 38 95.5 41.3433 75.7726" stroke="white" stroke-width="6" stroke-miterlimit="1.5" stroke-linecap="round" stroke-linejoin="round"/>
<path d="M29.5 91.9995H80.5454" stroke="white" stroke-width="6" stroke-miterlimit="1.5" stroke-linecap="round" stroke-linejoin="round"/>
<path d="M80.5452 92C89.5424 86.4297 88.8527 76.6369 89.014 73.6426" stroke="white" stroke-width="6" stroke-miterlimit="1.5" stroke-linecap="round" stroke-linejoin="round"/>
<path d="M41.4193 74.2144C75.3465 75.158 81.4212 73.2598 88.8363 71.9468" stroke="white" stroke-width="6" stroke-miterlimit="1.5" stroke-linecap="round" stroke-linejoin="round"/>
<path d="M16.2463 8H51.7425" stroke="white" stroke-width="6" stroke-miterlimit="1.5" stroke-linecap="round" stroke-linejoin="round"/>
<path d="M78.0826 48.4648V70.951" stroke="white" stroke-width="6" stroke-miterlimit="1.5" stroke-linecap="round" stroke-linejoin="round"/>
<path d="M31 25H41" stroke="white" stroke-width="7" stroke-miterlimit="1.5" stroke-linecap="round" stroke-linejoin="round"/>
<path d="M29 42H37" stroke="white" stroke-width="7" stroke-miterlimit="1.5" stroke-linecap="round" stroke-linejoin="round"/>
<path d="M27 59H51" stroke="white" stroke-width="7" stroke-miterlimit="1.5" stroke-linecap="round" stroke-linejoin="round"/>
</svg>
