<svg width="100" height="100" viewBox="0 0 100 100" fill="none" xmlns="http://www.w3.org/2000/svg">
<path d="M18.427 24.8022C8.15491 24.8022 7.08926 8 16.2466 8C20.5257 8 23.6365 12.8946 22.062 21.1356C16.763 48.854 8.46553 78.5872 22 89.5C25.9064 92.6502 38 95.5 41.3433 75.7726" stroke="white" stroke-width="6" stroke-miterlimit="1.5" stroke-linecap="round" stroke-linejoin="round"/>
<path d="M29.5 91.9995H80.5454" stroke="white" stroke-width="6" stroke-miterlimit="1.5" stroke-linecap="round" stroke-linejoin="round"/>
<path d="M80.5452 92C89.5424 86.4297 88.8527 76.6369 89.014 73.6426" stroke="white" stroke-width="6" stroke-miterlimit="1.5" stroke-linecap="round" stroke-linejoin="round"/>
<path d="M41.4193 74.2144C75.3465 75.158 81.4212 73.2598 88.8363 71.9468" stroke="white" stroke-width="6" stroke-miterlimit="1.5" stroke-linecap="round" stroke-linejoin="round"/>
<path d="M16.2463 8H51.7425" stroke="white" stroke-width="6" stroke-miterlimit="1.5" stroke-linecap="round" stroke-linejoin="round"/>
<path d="M78 60L78 71" stroke="white" stroke-width="6" stroke-miterlimit="1.5" stroke-linecap="round" stroke-linejoin="round"/>
<path d="M31 26H38" stroke="white" stroke-width="7" stroke-miterlimit="1.5" stroke-linecap="round" stroke-linejoin="round"/>
<path d="M29 43H48" stroke="white" stroke-width="7" stroke-miterlimit="1.5" stroke-linecap="round" stroke-linejoin="round"/>
<path d="M27 60H60" stroke="white" stroke-width="7" stroke-miterlimit="1.5" stroke-linecap="round" stroke-linejoin="round"/>
<path d="M93.748 12.373C70.509 70.939 75.0031 58.2629 73.0591 63.3809" stroke="white" stroke-width="6" stroke-miterlimit="1.5" stroke-linecap="round" stroke-linejoin="round"/>
<path d="M93.748 11.981C81.122 7.20896 80.9192 11.4928 70.9822 12.5698C63.8012 13.3488 59.2371 6.105 58.3201 5" stroke="white" stroke-width="6" stroke-miterlimit="1.5" stroke-linecap="round" stroke-linejoin="round"/>
<path d="M82.3701 38.2681C74.5491 25.3681 63.989 43.7122 48 25.8652" stroke="white" stroke-width="6" stroke-miterlimit="1.5" stroke-linecap="round" stroke-linejoin="round"/>
<path d="M58.3201 5C58.1911 6.859 56.45 20.655 48 25.865" stroke="white" stroke-width="6" stroke-miterlimit="1.5" stroke-linecap="round" stroke-linejoin="round"/>
</svg>
