<svg width="100" height="100" viewBox="0 0 100 100" fill="none" xmlns="http://www.w3.org/2000/svg">
<path d="M4 18.5L35.5 96.5" stroke="white" stroke-width="7" stroke-miterlimit="1.5" stroke-linecap="round" stroke-linejoin="round"/>
<path d="M4 18.0388C29.3911 8.44225 33 16.5 48 16.5C61.5791 16.5 73.4021 6.22217 75.2462 4" stroke="white" stroke-width="7" stroke-miterlimit="1.5" stroke-linecap="round" stroke-linejoin="round"/>
<path d="M27 70.5391C48.5 50.0391 69.9999 79.0391 95.5 49.5" stroke="white" stroke-width="7" stroke-miterlimit="1.5" stroke-linecap="round" stroke-linejoin="round"/>
<path d="M75.2462 4C75.5056 7.73848 78.0069 38.5226 95 49" stroke="white" stroke-width="7" stroke-miterlimit="1.5" stroke-linecap="round" stroke-linejoin="round"/>
<path d="M39.326 26.2431L37.0624 31.5939C36.0482 32.3717 35.2222 33.3759 34.6482 34.5284L33.3819 37.0984C32.8968 38.0848 32.0561 38.8611 31.0339 39.2782L29.5567 39.8811L33.4362 49.3871C34.9764 48.8105 36.6753 48.8362 38.1966 49.4716L41.9315 51.0315L42.6659 51.3382L45.4986 52.5213C46.1491 52.793 46.9101 52.4824 47.1847 51.8332C47.26 51.6552 47.2964 51.4671 47.285 51.2898C47.2605 50.6327 47.5697 50.0041 48.112 49.6268C48.6542 49.2495 49.3537 49.172 49.9652 49.4336L51.0922 49.892C52.3092 50.4003 53.7118 49.8278 54.2182 48.6162C54.4574 48.0508 54.4647 47.45 54.2719 46.9136C54.035 46.2479 54.1865 45.5103 54.6682 44.9845C55.1499 44.4587 55.868 44.235 56.5522 44.3975C57.4566 44.6089 58.4067 44.1432 58.7788 43.2636C59.1952 42.2793 58.7345 41.1505 57.7513 40.746L49.7988 37.4246L48.1281 40.9654C46.8551 43.6681 43.7412 44.9736 40.9185 43.9857C37.6988 42.8566 36.1554 39.224 37.5713 36.1251L40.7948 29.0744C42.057 26.3241 44.3213 24.1524 47.134 23.0046C49.8273 21.9054 52.8341 21.8305 55.5654 22.7864L58.6233 23.8603L67.494 20.24C68.1505 19.9721 68.9059 20.2876 69.1726 20.9411L75.4768 36.3883C76.0133 37.7028 75.3798 39.2002 74.0593 39.7392L71.6719 40.7135C70.7915 41.0728 69.8216 40.9141 69.1203 40.3686L62.7863 42.9536C62.7357 43.5547 62.5939 44.167 62.3459 44.7534C61.5884 46.544 60.0233 47.7632 58.2549 48.1644C58.2076 48.8161 58.0481 49.4703 57.7779 50.1091C56.5685 52.9677 53.4647 54.4684 50.5329 53.7676C49.2907 56.0765 46.461 57.1187 43.9925 56.0816L41.1673 54.8954L40.4329 54.5887L36.6979 53.0288C36.1209 52.7878 35.4867 52.7694 34.8941 52.9592C35.4275 54.2663 34.7866 55.7668 33.4735 56.3026L31.0861 57.277C29.7656 57.8159 28.2653 57.1893 27.7289 55.8748L21.4247 40.4276C21.158 39.774 21.4769 39.0201 22.1334 38.7522L29.5791 35.7135C29.7284 35.6526 29.8489 35.5428 29.9139 35.4036L31.1757 32.8441C32.5086 30.1602 34.7717 28.0497 37.5546 26.914L38.323 26.6004C38.6513 26.4664 38.9931 26.3443 39.326 26.2431ZM67.3447 36.9348L62.9803 26.2406L59.3992 27.7021C58.959 27.8817 58.4671 27.8919 58.0281 27.7332L54.281 26.4208C52.4322 25.7718 50.4092 25.8264 48.5888 26.5693C46.6938 27.3427 45.1674 28.806 44.3146 30.6615L41.0911 37.7122C40.6197 38.7536 41.1347 39.9729 42.2104 40.3483C43.1558 40.6815 44.2017 40.2373 44.626 39.3364L47.9777 32.216C48.4286 31.2523 49.5808 30.8341 50.5493 31.2878C51.5178 31.7416 51.9307 32.8813 51.4723 33.8481L51.4369 33.9318L59.2425 37.1919C60.2917 37.6301 61.1494 38.3456 61.7537 39.2079L67.3342 36.9304L67.3447 36.9348ZM32.0187 52.7379C31.8901 52.4227 31.641 52.1718 31.3262 52.0404C31.0114 51.9089 30.6567 51.9076 30.3401 52.0368C30.0235 52.166 29.771 52.4151 29.638 52.7293C29.5051 53.0435 29.5027 53.3971 29.6313 53.7122C29.7599 54.0274 30.009 54.2783 30.3238 54.4097C30.6386 54.5412 30.9934 54.5425 31.3099 54.4133C31.6265 54.2841 31.8791 54.035 32.012 53.7208C32.1449 53.4066 32.1473 53.053 32.0187 52.7379ZM71.8957 37.8498C72.2123 37.7206 72.4648 37.4715 72.5977 37.1573C72.7307 36.8431 72.7331 36.4896 72.6045 36.1744C72.4759 35.8593 72.2267 35.6084 71.9119 35.4769C71.5971 35.3454 71.2424 35.3441 70.9258 35.4733C70.6092 35.6025 70.3567 35.8516 70.2238 36.1658C70.0909 36.48 70.0885 36.8336 70.2171 37.1487C70.3457 37.4639 70.5948 37.7148 70.9096 37.8463C71.2244 37.9778 71.5791 37.979 71.8957 37.8498Z" fill="white"/>
</svg>
