<svg width="100" height="100" viewBox="0 0 100 100" fill="none" xmlns="http://www.w3.org/2000/svg">
<path d="M81 24.4444V85.7778C81 88.4889 79.9113 91.0889 77.9734 93.006C76.0356 94.923 73.4072 96 70.6667 96H29.3333C26.5928 96 23.9644 94.923 22.0266 93.006C20.0887 91.0889 19 88.4889 19 85.7778V24.4444L50 4L81 24.4444Z" stroke="white" stroke-width="7" stroke-linecap="round" stroke-linejoin="round"/>
<path d="M49.0489 54.9271C49.3483 54.0057 50.6517 54.0057 50.9511 54.9271L54.2658 65.1287C54.3996 65.5407 54.7836 65.8197 55.2168 65.8197H65.9434C66.9122 65.8197 67.3149 67.0593 66.5312 67.6287L57.8532 73.9336C57.5027 74.1883 57.3561 74.6396 57.4899 75.0517L60.8046 85.2533C61.104 86.1746 60.0495 86.9407 59.2658 86.3713L50.5878 80.0664C50.2373 79.8117 49.7627 79.8117 49.4122 80.0664L40.7342 86.3713C39.9505 86.9407 38.896 86.1746 39.1954 85.2533L42.5101 75.0517C42.6439 74.6396 42.4973 74.1883 42.1468 73.9336L33.4688 67.6287C32.6851 67.0593 33.0878 65.8197 34.0566 65.8197H44.7832C45.2164 65.8197 45.6004 65.5407 45.7342 65.1287L49.0489 54.9271Z" fill="white"/>
<path d="M34 33L50 23L66 33" stroke="white" stroke-width="7" stroke-linecap="round" stroke-linejoin="round"/>
<path d="M34 50L50 40L66 50" stroke="white" stroke-width="7" stroke-linecap="round" stroke-linejoin="round"/>
</svg>
