<svg width="100" height="100" viewBox="0 0 100 100" fill="none" xmlns="http://www.w3.org/2000/svg">
<path d="M81 24.4444V85.7778C81 88.4889 79.9113 91.0889 77.9734 93.006C76.0356 94.923 73.4072 96 70.6667 96H29.3333C26.5928 96 23.9644 94.923 22.0266 93.006C20.0887 91.0889 19 88.4889 19 85.7778V24.4444L50 4L81 24.4444Z" stroke="white" stroke-width="7" stroke-linecap="round" stroke-linejoin="round"/>
<path d="M36.0489 60.9271C36.3483 60.0057 37.6517 60.0057 37.9511 60.9271L40.1432 67.6738C40.2771 68.0858 40.661 68.3647 41.0943 68.3647H48.1882C49.1569 68.3647 49.5597 69.6044 48.776 70.1738L43.0369 74.3435C42.6864 74.5981 42.5397 75.0495 42.6736 75.4615L44.8657 82.2082C45.1651 83.1295 44.1106 83.8956 43.3269 83.3262L37.5878 79.1565C37.2373 78.9019 36.7627 78.9019 36.4122 79.1565L30.6731 83.3262C29.8894 83.8956 28.8349 83.1295 29.1343 82.2082L31.3264 75.4615C31.4603 75.0495 31.3136 74.5981 30.9631 74.3435L25.2241 70.1738C24.4403 69.6044 24.8431 68.3647 25.8118 68.3647H32.9057C33.339 68.3647 33.7229 68.0858 33.8568 67.6738L36.0489 60.9271Z" fill="white"/>
<path d="M49.0489 24.9271C49.3483 24.0057 50.6517 24.0057 50.9511 24.9271L54.2658 35.1287C54.3996 35.5407 54.7836 35.8197 55.2168 35.8197H65.9434C66.9122 35.8197 67.3149 37.0593 66.5312 37.6287L57.8532 43.9336C57.5027 44.1883 57.3561 44.6396 57.4899 45.0517L60.8046 55.2533C61.104 56.1746 60.0495 56.9407 59.2658 56.3713L50.5878 50.0664C50.2373 49.8117 49.7627 49.8117 49.4122 50.0664L40.7342 56.3713C39.9505 56.9407 38.896 56.1746 39.1954 55.2533L42.5101 45.0517C42.6439 44.6396 42.4973 44.1883 42.1468 43.9336L33.4688 37.6287C32.6851 37.0593 33.0878 35.8197 34.0566 35.8197H44.7832C45.2164 35.8197 45.6004 35.5407 45.7342 35.1287L49.0489 24.9271Z" fill="white"/>
<path d="M62.0489 60.9271C62.3483 60.0057 63.6517 60.0057 63.9511 60.9271L66.1432 67.6738C66.2771 68.0858 66.661 68.3647 67.0943 68.3647H74.1882C75.1569 68.3647 75.5597 69.6044 74.776 70.1738L69.0369 74.3435C68.6864 74.5981 68.5397 75.0495 68.6736 75.4615L70.8657 82.2082C71.1651 83.1295 70.1106 83.8956 69.3269 83.3262L63.5878 79.1565C63.2373 78.9019 62.7627 78.9019 62.4122 79.1565L56.6731 83.3262C55.8894 83.8956 54.8349 83.1295 55.1343 82.2082L57.3264 75.4615C57.4603 75.0495 57.3136 74.5981 56.9631 74.3435L51.2241 70.1738C50.4403 69.6044 50.8431 68.3647 51.8118 68.3647H58.9057C59.339 68.3647 59.7229 68.0858 59.8568 67.6738L62.0489 60.9271Z" fill="white"/>
</svg>
