<svg width="96" height="94" viewBox="0 0 96 94" fill="none" xmlns="http://www.w3.org/2000/svg">
<path d="M14.5442 60.5684C33.6952 62.9544 33.7062 76.3484 33.9712 80.3674" stroke="white" stroke-width="5" stroke-miterlimit="1.5" stroke-linecap="round" stroke-linejoin="round"/>
<path d="M14.5442 61.5093V67.4731" stroke="white" stroke-width="5" stroke-miterlimit="1.5" stroke-linecap="round" stroke-linejoin="round"/>
<path d="M14.5442 68.4155C25.4532 69.1195 25.5553 75.8245 26.3933 80.3445" stroke="white" stroke-width="5" stroke-miterlimit="1.5" stroke-linecap="round" stroke-linejoin="round"/>
<path d="M26.4712 81.2841C27.4122 81.3261 28.3554 81.2421 29.2964 81.2841C29.6754 81.3011 29.6473 81.3052 34.0312 81.5722" stroke="white" stroke-width="5" stroke-miterlimit="1.5" stroke-linecap="round" stroke-linejoin="round"/>
<path d="M10.4634 78.4597L18.9292 69.9937" stroke="white" stroke-width="5" stroke-miterlimit="1.5" stroke-linecap="round" stroke-linejoin="round"/>
<path d="M15.1724 84.4236L24.0103 75.5845" stroke="white" stroke-width="5" stroke-miterlimit="1.5" stroke-linecap="round" stroke-linejoin="round"/>
<path d="M25.5303 22.5881C35.6643 20.6121 41.239 19.5745 48 13.0005" stroke="white" stroke-width="5" stroke-miterlimit="1.5" stroke-linecap="round" stroke-linejoin="round"/>
<path d="M25.5304 22.5884C25.5304 46.8824 25.4363 49.5835 27.5963 52.9165C27.8753 53.3485 37.7435 62.2825 47.9945 69.1565" stroke="white" stroke-width="5" stroke-miterlimit="1.5" stroke-linecap="round" stroke-linejoin="round"/>
<path d="M4.50024 3.12842C5.48624 7.85942 6.50821 12.4006 6.68921 13.2056" stroke="white" stroke-width="5" stroke-miterlimit="1.5" stroke-linecap="round" stroke-linejoin="round"/>
<path d="M5.12817 2.50049C10.4672 4.32949 10.3924 4.31147 15.8694 5.80347" stroke="white" stroke-width="5" stroke-miterlimit="1.5" stroke-linecap="round" stroke-linejoin="round"/>
<path d="M6.69727 13.8003C13.1553 19.8923 13.4642 19.4102 19.8872 25.4082" stroke="white" stroke-width="5" stroke-miterlimit="1.5" stroke-linecap="round" stroke-linejoin="round"/>
<path d="M16.1133 6.58154C21.6823 11.5725 21.6782 11.3654 27.0432 16.6694" stroke="white" stroke-width="5" stroke-miterlimit="1.5" stroke-linecap="round" stroke-linejoin="round"/>
<path d="M28.3552 58.6846L25.2964 61.8884" stroke="white" stroke-width="5" stroke-miterlimit="1.5" stroke-linecap="round" stroke-linejoin="round"/>
<path d="M37.1433 66.5317C36.0283 67.9217 34.9124 69.3107 33.7964 70.6997" stroke="white" stroke-width="5" stroke-miterlimit="1.5" stroke-linecap="round" stroke-linejoin="round"/>
<circle cx="8.5" cy="85.5005" r="6" stroke="white" stroke-width="5"/>
<path d="M81.4503 60.5684C62.2993 62.9544 62.2883 76.3484 62.0233 80.3674" stroke="white" stroke-width="5" stroke-miterlimit="1.5" stroke-linecap="round" stroke-linejoin="round"/>
<path d="M81.4503 61.5093V67.4731" stroke="white" stroke-width="5" stroke-miterlimit="1.5" stroke-linecap="round" stroke-linejoin="round"/>
<path d="M81.4503 68.4155C70.5413 69.1195 70.4392 75.8245 69.6012 80.3445" stroke="white" stroke-width="5" stroke-miterlimit="1.5" stroke-linecap="round" stroke-linejoin="round"/>
<path d="M69.5233 81.2841C68.5823 81.3261 67.6391 81.2421 66.6981 81.2841C66.3191 81.3011 66.3473 81.3052 61.9633 81.5722" stroke="white" stroke-width="5" stroke-miterlimit="1.5" stroke-linecap="round" stroke-linejoin="round"/>
<path d="M85.5311 78.4597L77.0653 69.9937" stroke="white" stroke-width="5" stroke-miterlimit="1.5" stroke-linecap="round" stroke-linejoin="round"/>
<path d="M80.8221 84.4236L71.9843 75.5845" stroke="white" stroke-width="5" stroke-miterlimit="1.5" stroke-linecap="round" stroke-linejoin="round"/>
<path d="M70.4642 22.5881C60.3302 20.6121 54.761 19.5745 48 13.0005" stroke="white" stroke-width="5" stroke-miterlimit="1.5" stroke-linecap="round" stroke-linejoin="round"/>
<path d="M70.4641 22.5884C70.4641 46.8824 70.5582 49.5835 68.3982 52.9165C68.1192 53.3485 58.251 62.2825 48 69.1565" stroke="white" stroke-width="5" stroke-miterlimit="1.5" stroke-linecap="round" stroke-linejoin="round"/>
<path d="M91.4943 3.12842C90.5083 7.85942 89.4863 12.4006 89.3053 13.2056" stroke="white" stroke-width="5" stroke-miterlimit="1.5" stroke-linecap="round" stroke-linejoin="round"/>
<path d="M90.8663 2.50049C85.5273 4.32949 85.6021 4.31147 80.1251 5.80347" stroke="white" stroke-width="5" stroke-miterlimit="1.5" stroke-linecap="round" stroke-linejoin="round"/>
<path d="M89.2972 13.8003C82.8392 19.8923 82.5303 19.4102 76.1073 25.4082" stroke="white" stroke-width="5" stroke-miterlimit="1.5" stroke-linecap="round" stroke-linejoin="round"/>
<path d="M79.8812 6.58154C74.3122 11.5725 74.3163 11.3654 68.9513 16.6694" stroke="white" stroke-width="5" stroke-miterlimit="1.5" stroke-linecap="round" stroke-linejoin="round"/>
<path d="M67.6393 58.6846L70.6981 61.8884" stroke="white" stroke-width="5" stroke-miterlimit="1.5" stroke-linecap="round" stroke-linejoin="round"/>
<path d="M58.8512 66.5317C59.9662 67.9217 61.0821 69.3107 62.1981 70.6997" stroke="white" stroke-width="5" stroke-miterlimit="1.5" stroke-linecap="round" stroke-linejoin="round"/>
<circle cx="8.5" cy="8.5" r="6" transform="matrix(-1 0 0 1 95.9945 77.0005)" stroke="white" stroke-width="5"/>
<path d="M60 37.7684C61.3333 38.5382 61.3333 40.4627 60 41.2325L43.5 50.7588C42.1667 51.5286 40.5 50.5664 40.5 49.0268L40.5 29.9742C40.5 28.4346 42.1667 27.4724 43.5 28.2422L60 37.7684Z" fill="white"/>
</svg>
